Atma-SemiBold.ufo
<glyph name="exclam" format="1">
  <advance width="280"/>
  <unicode hex="0021"/>
  <outline>
    <contour>
      <point x="82" y="233" type="qcurve"/>
      <point x="72" y="338"/>
      <point x="63" y="533"/>
      <point x="63" y="655" type="qcurve" smooth="yes"/>
      <point x="63" y="679"/>
      <point x="63" y="704"/>
      <point x="64" y="713" type="qcurve"/>
      <point x="90" y="726"/>
      <point x="138" y="737"/>
      <point x="164" y="737" type="qcurve" smooth="yes"/>
      <point x="181" y="737"/>
      <point x="212" y="732"/>
      <point x="228" y="727" type="qcurve"/>
      <point x="210" y="623"/>
      <point x="193" y="347"/>
      <point x="196" y="229" type="qcurve"/>
      <point x="189" y="227"/>
      <point x="169" y="225"/>
      <point x="154" y="225" type="qcurve" smooth="yes"/>
      <point x="136" y="225"/>
      <point x="99" y="229"/>
    </contour>
    <contour>
      <point x="152" y="-19" type="qcurve" smooth="yes"/>
      <point x="132" y="-19"/>
      <point x="93" y="-12"/>
      <point x="77" y="-6" type="qcurve"/>
      <point x="75" y="23"/>
      <point x="75" y="83"/>
      <point x="77" y="121" type="qcurve"/>
      <point x="98" y="121"/>
      <point x="137" y="120"/>
      <point x="212" y="117" type="qcurve"/>
      <point x="217" y="44"/>
      <point x="219" y="6"/>
      <point x="221" y="-12" type="qcurve"/>
      <point x="205" y="-16"/>
      <point x="174" y="-19"/>
    </contour>
  </outline>
</glyph>
<glyph name="dollar" format="1">
  <advance width="443"/>
  <unicode hex="0024"/>
  <outline>
    <contour>
      <point x="261" y="38" type="qcurve"/>
      <point x="264" y="11"/>
      <point x="266" y="-40"/>
      <point x="264" y="-61" type="qcurve"/>
      <point x="242" y="-68"/>
      <point x="188" y="-71"/>
      <point x="165" y="-66" type="qcurve"/>
      <point x="169" y="-38"/>
      <point x="173" y="12"/>
      <point x="172" y="39" type="qcurve"/>
      <point x="97" y="52"/>
      <point x="7" y="158"/>
      <point x="7" y="231" type="qcurve"/>
      <point x="34" y="243"/>
      <point x="95" y="255"/>
      <point x="126" y="255" type="qcurve"/>
      <point x="125" y="194"/>
      <point x="174" y="116"/>
      <point x="215" y="116" type="qcurve" smooth="yes"/>
      <point x="245" y="116"/>
      <point x="277" y="149"/>
      <point x="277" y="179" type="qcurve" smooth="yes"/>
      <point x="277" y="200"/>
      <point x="257" y="238"/>
      <point x="235" y="258" type="qcurve" smooth="yes"/>
      <point x="221" y="270"/>
      <point x="167" y="311"/>
      <point x="161" y="316" type="qcurve" smooth="yes"/>
      <point x="84" y="376"/>
      <point x="35" y="459"/>
      <point x="35" y="512" type="qcurve" smooth="yes"/>
      <point x="35" y="578"/>
      <point x="117" y="671"/>
      <point x="186" y="684" type="qcurve"/>
      <point x="182" y="712"/>
      <point x="180" y="758"/>
      <point x="182" y="775" type="qcurve"/>
      <point x="203" y="782"/>
      <point x="257" y="786"/>
      <point x="281" y="781" type="qcurve"/>
      <point x="278" y="753"/>
      <point x="275" y="707"/>
      <point x="276" y="685" type="qcurve"/>
      <point x="338" y="676"/>
      <point x="413" y="597"/>
      <point x="427" y="526" type="qcurve"/>
      <point x="404" y="513"/>
      <point x="344" y="499"/>
      <point x="304" y="497" type="qcurve"/>
      <point x="295" y="555"/>
      <point x="265" y="603"/>
      <point x="237" y="603" type="qcurve"/>
      <point x="215" y="603"/>
      <point x="188" y="571"/>
      <point x="188" y="545" type="qcurve" smooth="yes"/>
      <point x="188" y="511"/>
      <point x="233" y="450"/>
      <point x="287" y="412" type="qcurve" smooth="yes"/>
      <point x="368" y="355"/>
      <point x="427" y="266"/>
      <point x="427" y="208" type="qcurve" smooth="yes"/>
      <point x="427" y="143"/>
      <point x="335" y="50"/>
    </contour>
  </outline>
</glyph>
<glyph name="quotesingle" format="1">
  <advance width="203"/>
  <unicode hex="0027"/>
  <outline>
    <contour>
      <point x="95" y="746" type="qcurve" smooth="yes"/>
      <point x="110" y="746"/>
      <point x="144" y="741"/>
      <point x="160" y="736" type="qcurve"/>
      <point x="154" y="676"/>
      <point x="139" y="561"/>
      <point x="127" y="497" type="qcurve"/>
      <point x="116" y="493"/>
      <point x="73" y="490"/>
      <point x="47" y="491" type="qcurve"/>
      <point x="43" y="617"/>
      <point x="40" y="698"/>
      <point x="38" y="736" type="qcurve"/>
      <point x="47" y="740"/>
      <point x="78" y="746"/>
    </contour>
  </outline>
</glyph>
<glyph name="parenright" format="1">
  <advance width="406"/>
  <unicode hex="0029"/>
  <outline>
    <contour>
      <point x="-25" y="-106" type="qcurve"/>
      <point x="90" y="-26"/>
      <point x="213" y="199"/>
      <point x="213" y="327" type="qcurve" smooth="yes"/>
      <point x="213" y="447"/>
      <point x="108" y="648"/>
      <point x="-5" y="744" type="qcurve"/>
      <point x="11" y="766"/>
      <point x="51" y="795"/>
      <point x="83" y="810" type="qcurve"/>
      <point x="199" y="716"/>
      <point x="327" y="467"/>
      <point x="327" y="333" type="qcurve" smooth="yes"/>
      <point x="327" y="183"/>
      <point x="194" y="-72"/>
      <point x="63" y="-174" type="qcurve"/>
      <point x="39" y="-166"/>
      <point x="-4" y="-132"/>
    </contour>
  </outline>
</glyph>
<glyph name="asterisk" format="1">
  <advance width="483"/>
  <unicode hex="002A"/>
  <outline>
    <contour>
      <point x="273" y="450" type="qcurve"/>
      <point x="275" y="421"/>
      <point x="284" y="360"/>
      <point x="293" y="308" type="qcurve"/>
      <point x="282" y="302"/>
      <point x="251" y="295"/>
      <point x="237" y="295" type="qcurve" smooth="yes"/>
      <point x="227" y="295"/>
      <point x="209" y="298"/>
      <point x="196" y="301" type="qcurve"/>
      <point x="195" y="330"/>
      <point x="200" y="404"/>
      <point x="205" y="446" type="qcurve"/>
      <point x="195" y="439"/>
      <point x="171" y="422"/>
      <point x="149" y="405" type="qcurve" smooth="yes"/>
      <point x="126" y="388"/>
      <point x="102" y="371"/>
      <point x="92" y="364" type="qcurve"/>
      <point x="81" y="372"/>
      <point x="60" y="395"/>
      <point x="53" y="407" type="qcurve" smooth="yes"/>
      <point x="49" y="414"/>
      <point x="42" y="430"/>
      <point x="37" y="445" type="qcurve"/>
      <point x="64" y="460"/>
      <point x="130" y="492"/>
      <point x="173" y="512" type="qcurve"/>
      <point x="141" y="528"/>
      <point x="80" y="553"/>
      <point x="41" y="566" type="qcurve"/>
      <point x="41" y="577"/>
      <point x="50" y="608"/>
      <point x="58" y="621" type="qcurve" smooth="yes"/>
      <point x="63" y="630"/>
      <point x="73" y="645"/>
      <point x="82" y="654" type="qcurve"/>
      <point x="104" y="642"/>
      <point x="162" y="605"/>
      <point x="205" y="574" type="qcurve"/>
      <point x="200" y="611"/>
      <point x="193" y="677"/>
      <point x="189" y="712" type="qcurve"/>
      <point x="200" y="718"/>
      <point x="231" y="725"/>
      <point x="246" y="725" type="qcurve" smooth="yes"/>
      <point x="255" y="725"/>
      <point x="272" y="723"/>
      <point x="286" y="720" type="qcurve"/>
      <point x="286" y="688"/>
      <point x="282" y="615"/>
      <point x="277" y="567" type="qcurve"/>
      <point x="308" y="588"/>
      <point x="362" y="630"/>
      <point x="391" y="656" type="qcurve"/>
      <point x="401" y="650"/>
      <point x="422" y="626"/>
      <point x="429" y="613" type="qcurve" smooth="yes"/>
      <point x="434" y="605"/>
      <point x="441" y="588"/>
      <point x="445" y="575" type="qcurve"/>
      <point x="422" y="561"/>
      <point x="357" y="529"/>
      <point x="315" y="510" type="qcurve"/>
      <point x="322" y="507"/>
      <point x="413" y="467"/>
      <point x="442" y="454" type="qcurve"/>
      <point x="441" y="441"/>
      <point x="432" y="411"/>
      <point x="425" y="399" type="qcurve" smooth="yes"/>
      <point x="419" y="390"/>
      <point x="408" y="375"/>
      <point x="400" y="366" type="qcurve"/>
      <point x="376" y="381"/>
      <point x="316" y="420"/>
    </contour>
  </outline>
</glyph>
<glyph name="plus" format="1">
  <advance width="445"/>
  <unicode hex="002B"/>
  <outline>
    <contour>
      <point x="276" y="286" type="qcurve"/>
      <point x="275" y="252"/>
      <point x="270" y="182"/>
      <point x="265" y="147" type="qcurve"/>
      <point x="241" y="144"/>
      <point x="195" y="143"/>
      <point x="172" y="145" type="qcurve"/>
      <point x="175" y="177"/>
      <point x="180" y="246"/>
      <point x="182" y="286" type="qcurve"/>
      <point x="141" y="287"/>
      <point x="66" y="293"/>
      <point x="34" y="298" type="qcurve"/>
      <point x="34" y="323"/>
      <point x="37" y="366"/>
      <point x="41" y="391" type="qcurve"/>
      <point x="71" y="387"/>
      <point x="138" y="382"/>
      <point x="182" y="380" type="qcurve"/>
      <point x="180" y="418"/>
      <point x="175" y="484"/>
      <point x="172" y="515" type="qcurve"/>
      <point x="195" y="518"/>
      <point x="238" y="521"/>
      <point x="265" y="520" type="qcurve"/>
      <point x="270" y="487"/>
      <point x="275" y="416"/>
      <point x="276" y="380" type="qcurve"/>
      <point x="316" y="382"/>
      <point x="387" y="387"/>
      <point x="420" y="390" type="qcurve"/>
      <point x="420" y="366"/>
      <point x="414" y="320"/>
      <point x="408" y="298" type="qcurve"/>
      <point x="378" y="294"/>
      <point x="311" y="288"/>
    </contour>
  </outline>
</glyph>
<glyph name="hyphen" format="1">
  <advance width="343"/>
  <unicode hex="002D"/>
  <outline>
    <contour>
      <point x="303" y="222" type="qcurve"/>
      <point x="234" y="208"/>
      <point x="62" y="212"/>
      <point x="27" y="228" type="qcurve"/>
      <point x="25" y="266"/>
      <point x="31" y="318"/>
      <point x="40" y="345" type="qcurve"/>
      <point x="65" y="340"/>
      <point x="144" y="333"/>
      <point x="175" y="333" type="qcurve" smooth="yes"/>
      <point x="232" y="333"/>
      <point x="292" y="336"/>
      <point x="316" y="339" type="qcurve"/>
      <point x="316" y="298"/>
      <point x="310" y="244"/>
    </contour>
  </outline>
</glyph>
<glyph name="period" format="1">
  <advance width="228"/>
  <unicode hex="002E"/>
  <outline>
    <contour>
      <point x="48" y="110" type="qcurve"/>
      <point x="84" y="119"/>
      <point x="160" y="122"/>
      <point x="199" y="116" type="qcurve"/>
      <point x="198" y="78"/>
      <point x="192" y="16"/>
      <point x="187" y="-15" type="qcurve"/>
      <point x="147" y="-19"/>
      <point x="84" y="-18"/>
      <point x="53" y="-14" type="qcurve"/>
      <point x="49" y="44"/>
      <point x="48" y="87"/>
    </contour>
  </outline>
</glyph>
<glyph name="zero" format="1">
  <advance width="586"/>
  <unicode hex="0030"/>
  <outline>
    <contour>
      <point x="33" y="300" type="qcurve"/>
      <point x="33" y="468"/>
      <point x="196" y="673"/>
      <point x="331" y="673" type="qcurve"/>
      <point x="436" y="673"/>
      <point x="553" y="526"/>
      <point x="553" y="396" type="qcurve"/>
      <point x="553" y="211"/>
      <point x="398" y="-20"/>
      <point x="262" y="-20" type="qcurve" smooth="yes"/>
      <point x="155" y="-20"/>
      <point x="33" y="155"/>
    </contour>
    <contour>
      <point x="398" y="347" type="qcurve" smooth="yes"/>
      <point x="398" y="462"/>
      <point x="351" y="573"/>
      <point x="303" y="573" type="qcurve" smooth="yes"/>
      <point x="250" y="573"/>
      <point x="186" y="435"/>
      <point x="186" y="321" type="qcurve" smooth="yes"/>
      <point x="186" y="216"/>
      <point x="244" y="79"/>
      <point x="292" y="79" type="qcurve" smooth="yes"/>
      <point x="341" y="79"/>
      <point x="398" y="229"/>
    </contour>
  </outline>
</glyph>
<glyph name="one" format="1">
  <advance width="428"/>
  <unicode hex="0031"/>
  <outline>
    <contour>
      <point x="291" y="-32" type="qcurve"/>
      <point x="277" y="-38"/>
      <point x="238" y="-45"/>
      <point x="214" y="-46" type="qcurve" smooth="yes"/>
      <point x="198" y="-46"/>
      <point x="177" y="-44"/>
      <point x="166" y="-42" type="qcurve"/>
      <point x="166" y="-9"/>
      <point x="169" y="56"/>
      <point x="172" y="104" type="qcurve" smooth="yes"/>
      <point x="176" y="183"/>
      <point x="200" y="378"/>
      <point x="219" y="474" type="qcurve"/>
      <point x="185" y="450"/>
      <point x="124" y="409"/>
      <point x="95" y="391" type="qcurve"/>
      <point x="69" y="412"/>
      <point x="29" y="466"/>
      <point x="14" y="501" type="qcurve"/>
      <point x="105" y="545"/>
      <point x="261" y="643"/>
      <point x="326" y="698" type="qcurve"/>
      <point x="353" y="688"/>
      <point x="396" y="660"/>
      <point x="415" y="640" type="qcurve"/>
      <point x="379" y="546"/>
      <point x="307" y="159"/>
    </contour>
  </outline>
</glyph>
<glyph name="three" format="1">
  <advance width="505"/>
  <unicode hex="0033"/>
  <outline>
    <contour>
      <point x="482" y="169" type="qcurve" smooth="yes"/>
      <point x="482" y="75"/>
      <point x="346" y="-57"/>
      <point x="250" y="-57" type="qcurve" smooth="yes"/>
      <point x="152" y="-57"/>
      <point x="35" y="57"/>
      <point x="30" y="161" type="qcurve"/>
      <point x="57" y="174"/>
      <point x="124" y="186"/>
      <point x="168" y="187" type="qcurve"/>
      <point x="168" y="115"/>
      <point x="219" y="29"/>
      <point x="257" y="29" type="qcurve" smooth="yes"/>
      <point x="292" y="29"/>
      <point x="329" y="85"/>
      <point x="329" y="137" type="qcurve" smooth="yes"/>
      <point x="329" y="211"/>
      <point x="238" y="296"/>
      <point x="154" y="297" type="qcurve"/>
      <point x="147" y="328"/>
      <point x="143" y="364"/>
      <point x="143" y="386" type="qcurve"/>
      <point x="194" y="418"/>
      <point x="274" y="485"/>
      <point x="306" y="522" type="qcurve"/>
      <point x="237" y="517"/>
      <point x="104" y="497"/>
      <point x="38" y="482" type="qcurve"/>
      <point x="31" y="505"/>
      <point x="23" y="567"/>
      <point x="24" y="598" type="qcurve"/>
      <point x="113" y="622"/>
      <point x="348" y="652"/>
      <point x="451" y="653" type="qcurve"/>
      <point x="461" y="626"/>
      <point x="471" y="563"/>
      <point x="470" y="530" type="qcurve"/>
      <point x="430" y="476"/>
      <point x="355" y="402"/>
      <point x="301" y="362" type="qcurve"/>
      <point x="392" y="339"/>
      <point x="482" y="243"/>
    </contour>
  </outline>
</glyph>
<glyph name="seven" format="1">
  <advance width="472"/>
  <unicode hex="0037"/>
  <outline>
    <contour>
      <point x="450" y="522" type="qcurve"/>
      <point x="357" y="405"/>
      <point x="218" y="145"/>
      <point x="158" y="-25" type="qcurve"/>
      <point x="118" y="-29"/>
      <point x="46" y="-18"/>
      <point x="11" y="-3" type="qcurve"/>
      <point x="70" y="156"/>
      <point x="216" y="417"/>
      <point x="312" y="535" type="qcurve"/>
      <point x="228" y="533"/>
      <point x="80" y="538"/>
      <point x="-4" y="547" type="qcurve"/>
      <point x="-6" y="585"/>
      <point x="6" y="651"/>
      <point x="19" y="679" type="qcurve"/>
      <point x="166" y="652"/>
      <point x="366" y="630"/>
      <point x="462" y="628" type="qcurve"/>
      <point x="464" y="603"/>
      <point x="459" y="555"/>
    </contour>
  </outline>
</glyph>
<glyph name="eight" format="1">
  <advance width="563"/>
  <unicode hex="0038"/>
  <outline>
    <contour>
      <point x="520" y="230" type="qcurve" smooth="yes"/>
      <point x="520" y="130"/>
      <point x="371" y="-6"/>
      <point x="245" y="-6" type="qcurve" smooth="yes"/>
      <point x="148" y="-6"/>
      <point x="36" y="91"/>
      <point x="36" y="170" type="qcurve" smooth="yes"/>
      <point x="36" y="226"/>
      <point x="96" y="321"/>
      <point x="151" y="350" type="qcurve"/>
      <point x="99" y="370"/>
      <point x="40" y="456"/>
      <point x="40" y="511" type="qcurve" smooth="yes"/>
      <point x="40" y="605"/>
      <point x="188" y="723"/>
      <point x="308" y="723" type="qcurve" smooth="yes"/>
      <point x="403" y="723"/>
      <point x="515" y="638"/>
      <point x="515" y="565" type="qcurve" smooth="yes"/>
      <point x="515" y="506"/>
      <point x="457" y="404"/>
      <point x="405" y="374" type="qcurve"/>
      <point x="460" y="356"/>
      <point x="520" y="281"/>
    </contour>
    <contour>
      <point x="275" y="405" type="qcurve" smooth="yes"/>
      <point x="314" y="405"/>
      <point x="360" y="475"/>
      <point x="360" y="530" type="qcurve" smooth="yes"/>
      <point x="360" y="582"/>
      <point x="319" y="640"/>
      <point x="283" y="640" type="qcurve" smooth="yes"/>
      <point x="243" y="640"/>
      <point x="192" y="570"/>
      <point x="192" y="517" type="qcurve" smooth="yes"/>
      <point x="192" y="467"/>
      <point x="237" y="405"/>
    </contour>
    <contour>
      <point x="273" y="76" type="qcurve" smooth="yes"/>
      <point x="314" y="76"/>
      <point x="365" y="154"/>
      <point x="365" y="212" type="qcurve" smooth="yes"/>
      <point x="365" y="262"/>
      <point x="323" y="318"/>
      <point x="285" y="318" type="qcurve" smooth="yes"/>
      <point x="243" y="318"/>
      <point x="189" y="247"/>
      <point x="189" y="190" type="qcurve" smooth="yes"/>
      <point x="189" y="140"/>
      <point x="236" y="76"/>
    </contour>
  </outline>
</glyph>
<glyph name="colon" format="1">
  <advance width="235"/>
  <unicode hex="003A"/>
  <outline>
    <contour>
      <point x="119" y="550" type="qcurve" smooth="yes"/>
      <point x="140" y="550"/>
      <point x="180" y="543"/>
      <point x="195" y="536" type="qcurve"/>
      <point x="197" y="479"/>
      <point x="199" y="424"/>
      <point x="198" y="407" type="qcurve"/>
      <point x="164" y="406"/>
      <point x="96" y="408"/>
      <point x="50" y="411" type="qcurve"/>
      <point x="49" y="439"/>
      <point x="45" y="493"/>
      <point x="41" y="542" type="qcurve"/>
      <point x="60" y="546"/>
      <point x="97" y="550"/>
    </contour>
    <contour>
      <point x="53" y="123" type="qcurve"/>
      <point x="96" y="127"/>
      <point x="169" y="131"/>
      <point x="205" y="130" type="qcurve"/>
      <point x="205" y="128"/>
      <point x="205" y="24"/>
      <point x="204" y="-10" type="qcurve"/>
      <point x="163" y="-11"/>
      <point x="77" y="-6"/>
      <point x="54" y="-2" type="qcurve"/>
      <point x="53" y="26"/>
      <point x="53" y="74"/>
    </contour>
  </outline>
</glyph>
<glyph name="semicolon" format="1">
  <advance width="234"/>
  <unicode hex="003B"/>
  <outline>
    <contour>
      <point x="208" y="536" type="qcurve"/>
      <point x="210" y="479"/>
      <point x="212" y="424"/>
      <point x="211" y="407" type="qcurve"/>
      <point x="177" y="406"/>
      <point x="109" y="408"/>
      <point x="63" y="411" type="qcurve"/>
      <point x="62" y="439"/>
      <point x="58" y="493"/>
      <point x="54" y="542" type="qcurve"/>
      <point x="73" y="546"/>
      <point x="110" y="550"/>
      <point x="132" y="550" type="qcurve" smooth="yes"/>
      <point x="153" y="550"/>
      <point x="193" y="543"/>
    </contour>
    <contour>
      <point x="65" y="120" type="qcurve"/>
      <point x="103" y="121"/>
      <point x="175" y="116"/>
      <point x="203" y="110" type="qcurve"/>
      <point x="202" y="26"/>
      <point x="162" y="-141"/>
      <point x="124" y="-227" type="qcurve"/>
      <point x="95" y="-225"/>
      <point x="45" y="-218"/>
      <point x="22" y="-211" type="qcurve"/>
      <point x="45" y="-121"/>
      <point x="66" y="37"/>
    </contour>
  </outline>
</glyph>
<glyph name="equal" format="1">
  <advance width="445"/>
  <unicode hex="003D"/>
  <outline>
    <contour>
      <point x="35" y="358" type="qcurve"/>
      <point x="35" y="383"/>
      <point x="38" y="426"/>
      <point x="42" y="451" type="qcurve"/>
      <point x="130" y="440"/>
      <point x="316" y="439"/>
      <point x="421" y="450" type="qcurve"/>
      <point x="421" y="426"/>
      <point x="415" y="380"/>
      <point x="409" y="358" type="qcurve"/>
      <point x="325" y="345"/>
      <point x="121" y="345"/>
    </contour>
    <contour>
      <point x="23" y="206" type="qcurve"/>
      <point x="23" y="231"/>
      <point x="26" y="274"/>
      <point x="30" y="299" type="qcurve"/>
      <point x="118" y="288"/>
      <point x="303" y="287"/>
      <point x="409" y="298" type="qcurve"/>
      <point x="409" y="276"/>
      <point x="402" y="229"/>
      <point x="396" y="206" type="qcurve"/>
      <point x="311" y="194"/>
      <point x="106" y="194"/>
    </contour>
  </outline>
</glyph>
<glyph name="greater" format="1">
  <advance width="444"/>
  <unicode hex="003E"/>
  <outline>
    <contour>
      <point x="57" y="121" type="qcurve"/>
      <point x="47" y="143"/>
      <point x="34" y="180"/>
      <point x="29" y="206" type="qcurve"/>
      <point x="106" y="240"/>
      <point x="234" y="307"/>
      <point x="290" y="343" type="qcurve"/>
      <point x="232" y="380"/>
      <point x="102" y="448"/>
      <point x="30" y="478" type="qcurve"/>
      <point x="34" y="503"/>
      <point x="48" y="542"/>
      <point x="59" y="563" type="qcurve"/>
      <point x="149" y="529"/>
      <point x="352" y="419"/>
      <point x="415" y="369" type="qcurve"/>
      <point x="414" y="315" type="line"/>
      <point x="350" y="266"/>
      <point x="149" y="157"/>
    </contour>
  </outline>
</glyph>
<glyph name="at" format="1">
  <advance width="901"/>
  <unicode hex="0040"/>
  <outline>
    <contour>
      <point x="663" y="-49" type="qcurve"/>
      <point x="607" y="-81"/>
      <point x="489" y="-112"/>
      <point x="421" y="-112" type="qcurve" smooth="yes"/>
      <point x="242" y="-112"/>
      <point x="32" y="102"/>
      <point x="32" y="282" type="qcurve" smooth="yes"/>
      <point x="32" y="482"/>
      <point x="281" y="727"/>
      <point x="487" y="727" type="qcurve" smooth="yes"/>
      <point x="662" y="727"/>
      <point x="860" y="526"/>
      <point x="860" y="361" type="qcurve" smooth="yes"/>
      <point x="860" y="241"/>
      <point x="736" y="85"/>
      <point x="648" y="85" type="qcurve" smooth="yes"/>
      <point x="592" y="85"/>
      <point x="519" y="137"/>
      <point x="504" y="188" type="qcurve"/>
      <point x="486" y="142"/>
      <point x="428" y="96"/>
      <point x="388" y="96" type="qcurve" smooth="yes"/>
      <point x="328" y="96"/>
      <point x="257" y="201"/>
      <point x="257" y="287" type="qcurve" smooth="yes"/>
      <point x="257" y="397"/>
      <point x="364" y="529"/>
      <point x="453" y="529" type="qcurve" smooth="yes"/>
      <point x="460" y="529"/>
      <point x="475" y="527"/>
      <point x="482" y="526" type="qcurve"/>
      <point x="481" y="548" type="line"/>
      <point x="516" y="556"/>
      <point x="576" y="558"/>
      <point x="604" y="551" type="qcurve"/>
      <point x="599" y="472"/>
      <point x="595" y="361"/>
      <point x="595" y="307" type="qcurve" smooth="yes"/>
      <point x="595" y="227"/>
      <point x="625" y="152"/>
      <point x="658" y="152" type="qcurve" smooth="yes"/>
      <point x="703" y="152"/>
      <point x="766" y="272"/>
      <point x="766" y="363" type="qcurve" smooth="yes"/>
      <point x="766" y="496"/>
      <point x="612" y="646"/>
      <point x="475" y="646" type="qcurve" smooth="yes"/>
      <point x="319" y="646"/>
      <point x="136" y="461"/>
      <point x="136" y="305" type="qcurve" smooth="yes"/>
      <point x="136" y="148"/>
      <point x="290" y="-28"/>
      <point x="429" y="-28" type="qcurve" smooth="yes"/>
      <point x="484" y="-28"/>
      <point x="566" y="-3"/>
      <point x="604" y="26" type="qcurve"/>
      <point x="624" y="7"/>
      <point x="652" y="-28"/>
    </contour>
    <contour>
      <point x="373" y="302" type="qcurve" smooth="yes"/>
      <point x="373" y="244"/>
      <point x="401" y="180"/>
      <point x="427" y="180" type="qcurve" smooth="yes"/>
      <point x="449" y="180"/>
      <point x="484" y="234"/>
      <point x="492" y="284" type="qcurve"/>
      <point x="492" y="293"/>
      <point x="491" y="313"/>
      <point x="490" y="335" type="qcurve" smooth="yes"/>
      <point x="488" y="383"/>
      <point x="486" y="435"/>
      <point x="485" y="458" type="qcurve"/>
      <point x="480" y="460"/>
      <point x="468" y="461"/>
      <point x="461" y="461" type="qcurve" smooth="yes"/>
      <point x="421" y="461"/>
      <point x="373" y="375"/>
    </contour>
  </outline>
</glyph>
<glyph name="A" format="1">
  <advance width="649"/>
  <unicode hex="0041"/>
  <outline>
    <contour>
      <point x="640" y="-65" type="qcurve"/>
      <point x="613" y="-83"/>
      <point x="542" y="-105"/>
      <point x="491" y="-112" type="qcurve"/>
      <point x="481" y="-31"/>
      <point x="456" y="110"/>
      <point x="441" y="173" type="qcurve"/>
      <point x="376" y="173"/>
      <point x="259" y="166"/>
      <point x="207" y="159" type="qcurve"/>
      <point x="186" y="105"/>
      <point x="146" y="13"/>
      <point x="125" y="-27" type="qcurve"/>
      <point x="87" y="-20"/>
      <point x="22" y="14"/>
      <point x="2" y="38" type="qcurve"/>
      <point x="85" y="189"/>
      <point x="199" y="486"/>
      <point x="256" y="708" type="qcurve"/>
      <point x="295" y="707"/>
      <point x="357" y="700"/>
      <point x="393" y="692" type="qcurve"/>
      <point x="483" y="535"/>
      <point x="604" y="166"/>
    </contour>
    <contour>
      <point x="322" y="534" type="qcurve"/>
      <point x="304" y="462"/>
      <point x="265" y="326"/>
      <point x="244" y="264" type="qcurve"/>
      <point x="290" y="270"/>
      <point x="374" y="277"/>
      <point x="414" y="278" type="qcurve"/>
      <point x="394" y="348"/>
      <point x="348" y="476"/>
    </contour>
    <contour>
      <point x="309" y="745" type="move" name="top"/>
    </contour>
  </outline>
</glyph>
<glyph name="E" format="1">
  <advance width="572"/>
  <unicode hex="0045"/>
  <outline>
    <contour>
      <point x="538" y="-11" type="qcurve"/>
      <point x="482" y="-22"/>
      <point x="228" y="-41"/>
      <point x="129" y="-42" type="qcurve"/>
      <point x="102" y="135"/>
      <point x="63" y="547"/>
      <point x="61" y="685" type="qcurve"/>
      <point x="204" y="712"/>
      <point x="409" y="734"/>
      <point x="514" y="735" type="qcurve"/>
      <point x="514" y="706"/>
      <point x="507" y="644"/>
      <point x="500" y="611" type="qcurve"/>
      <point x="428" y="610"/>
      <point x="296" y="604"/>
      <point x="234" y="598" type="qcurve"/>
      <point x="232" y="556"/>
      <point x="230" y="460"/>
      <point x="231" y="407" type="qcurve"/>
      <point x="290" y="421"/>
      <point x="400" y="437"/>
      <point x="458" y="439" type="qcurve"/>
      <point x="464" y="414"/>
      <point x="470" y="358"/>
      <point x="470" y="320" type="qcurve"/>
      <point x="397" y="317"/>
      <point x="287" y="309"/>
      <point x="235" y="301" type="qcurve"/>
      <point x="239" y="222"/>
      <point x="248" y="118"/>
      <point x="254" y="74" type="qcurve"/>
      <point x="307" y="76"/>
      <point x="472" y="95"/>
      <point x="525" y="106" type="qcurve"/>
      <point x="531" y="88"/>
      <point x="539" y="16"/>
    </contour>
  </outline>
</glyph>
<glyph name="F" format="1">
  <advance width="539"/>
  <unicode hex="0046"/>
  <outline>
    <contour>
      <point x="255" y="300" type="qcurve"/>
      <point x="256" y="191"/>
      <point x="252" y="14"/>
      <point x="248" y="-68" type="qcurve"/>
      <point x="213" y="-76"/>
      <point x="147" y="-83"/>
      <point x="109" y="-82" type="qcurve"/>
      <point x="111" y="117"/>
      <point x="82" y="561"/>
      <point x="56" y="717" type="qcurve"/>
      <point x="141" y="722"/>
      <point x="302" y="741"/>
      <point x="502" y="774" type="qcurve"/>
      <point x="507" y="760"/>
      <point x="511" y="728"/>
      <point x="511" y="710" type="qcurve" smooth="yes"/>
      <point x="512" y="695"/>
      <point x="508" y="663"/>
      <point x="504" y="645" type="qcurve"/>
      <point x="417" y="633"/>
      <point x="297" y="620"/>
      <point x="242" y="616" type="qcurve"/>
      <point x="246" y="565"/>
      <point x="252" y="462"/>
      <point x="253" y="412" type="qcurve"/>
      <point x="306" y="423"/>
      <point x="400" y="434"/>
      <point x="444" y="435" type="qcurve"/>
      <point x="450" y="409"/>
      <point x="456" y="352"/>
      <point x="456" y="314" type="qcurve"/>
      <point x="408" y="313"/>
      <point x="306" y="306"/>
    </contour>
  </outline>
</glyph>
<glyph name="G" format="1">
  <advance width="611"/>
  <unicode hex="0047"/>
  <outline>
    <contour>
      <point x="553" y="350" type="qcurve"/>
      <point x="551" y="255"/>
      <point x="574" y="73"/>
      <point x="599" y="-17" type="qcurve"/>
      <point x="579" y="-22"/>
      <point x="526" y="-29"/>
      <point x="487" y="-32" type="qcurve"/>
      <point x="475" y="-5"/>
      <point x="454" y="53"/>
      <point x="444" y="85" type="qcurve"/>
      <point x="406" y="31"/>
      <point x="311" y="-21"/>
      <point x="252" y="-21" type="qcurve" smooth="yes"/>
      <point x="154" y="-21"/>
      <point x="39" y="139"/>
      <point x="39" y="276" type="qcurve" smooth="yes"/>
      <point x="39" y="468"/>
      <point x="210" y="724"/>
      <point x="342" y="724" type="qcurve" smooth="yes"/>
      <point x="433" y="724"/>
      <point x="541" y="604"/>
      <point x="547" y="499" type="qcurve"/>
      <point x="513" y="488"/>
      <point x="440" y="478"/>
      <point x="395" y="478" type="qcurve"/>
      <point x="388" y="556"/>
      <point x="347" y="629"/>
      <point x="312" y="629" type="qcurve" smooth="yes"/>
      <point x="261" y="629"/>
      <point x="197" y="459"/>
      <point x="197" y="323" type="qcurve" smooth="yes"/>
      <point x="197" y="210"/>
      <point x="248" y="97"/>
      <point x="300" y="97" type="qcurve" smooth="yes"/>
      <point x="338" y="97"/>
      <point x="398" y="153"/>
      <point x="416" y="205" type="qcurve"/>
      <point x="411" y="231"/>
      <point x="404" y="291"/>
      <point x="401" y="333" type="qcurve"/>
      <point x="432" y="342"/>
      <point x="506" y="350"/>
    </contour>
  </outline>
</glyph>
<glyph name="H" format="1">
  <advance width="652"/>
  <unicode hex="0048"/>
  <outline>
    <contour>
      <point x="574" y="719" type="qcurve"/>
      <point x="582" y="554"/>
      <point x="593" y="110"/>
      <point x="593" y="-58" type="qcurve"/>
      <point x="555" y="-58"/>
      <point x="466" y="-49"/>
      <point x="444" y="-43" type="qcurve"/>
      <point x="444" y="37"/>
      <point x="442" y="223"/>
      <point x="440" y="309" type="qcurve"/>
      <point x="379" y="308"/>
      <point x="267" y="301"/>
      <point x="216" y="295" type="qcurve"/>
      <point x="215" y="223"/>
      <point x="216" y="78"/>
      <point x="218" y="19" type="qcurve"/>
      <point x="197" y="13"/>
      <point x="118" y="4"/>
      <point x="86" y="5" type="qcurve"/>
      <point x="70" y="220"/>
      <point x="55" y="563"/>
      <point x="55" y="690" type="qcurve"/>
      <point x="73" y="701"/>
      <point x="126" y="714"/>
      <point x="154" y="714" type="qcurve" smooth="yes"/>
      <point x="174" y="714"/>
      <point x="210" y="709"/>
      <point x="228" y="704" type="qcurve"/>
      <point x="224" y="653"/>
      <point x="218" y="496"/>
      <point x="217" y="407" type="qcurve"/>
      <point x="270" y="417"/>
      <point x="379" y="427"/>
      <point x="438" y="429" type="qcurve"/>
      <point x="434" y="564"/>
      <point x="427" y="692"/>
      <point x="423" y="732" type="qcurve"/>
      <point x="448" y="738"/>
      <point x="477" y="742"/>
      <point x="492" y="742" type="qcurve" smooth="yes"/>
      <point x="514" y="742"/>
      <point x="557" y="730"/>
    </contour>
  </outline>
</glyph>
<glyph name="I" format="1">
  <advance width="292"/>
  <unicode hex="0049"/>
  <outline>
    <contour>
      <point x="225" y="510" type="qcurve" smooth="yes"/>
      <point x="225" y="379"/>
      <point x="217" y="109"/>
      <point x="209" y="-15" type="qcurve"/>
      <point x="189" y="-21"/>
      <point x="116" y="-30"/>
      <point x="84" y="-30" type="qcurve"/>
      <point x="85" y="173"/>
      <point x="71" y="519"/>
      <point x="56" y="660" type="qcurve"/>
      <point x="75" y="672"/>
      <point x="124" y="685"/>
      <point x="151" y="685" type="qcurve" smooth="yes"/>
      <point x="171" y="685"/>
      <point x="203" y="681"/>
      <point x="221" y="677" type="qcurve"/>
      <point x="223" y="642"/>
      <point x="225" y="561"/>
    </contour>
  </outline>
</glyph>
<glyph name="K" format="1">
  <advance width="615"/>
  <unicode hex="004B"/>
  <outline>
    <contour>
      <point x="622" y="-4" type="qcurve"/>
      <point x="598" y="-39"/>
      <point x="536" y="-88"/>
      <point x="494" y="-106" type="qcurve"/>
      <point x="438" y="2"/>
      <point x="325" y="157"/>
      <point x="246" y="236" type="qcurve"/>
      <point x="235" y="228"/>
      <point x="219" y="216"/>
      <point x="211" y="211" type="qcurve"/>
      <point x="213" y="140"/>
      <point x="223" y="10"/>
      <point x="232" y="-58" type="qcurve"/>
      <point x="212" y="-64"/>
      <point x="133" y="-73"/>
      <point x="100" y="-73" type="qcurve"/>
      <point x="79" y="57"/>
      <point x="59" y="304"/>
      <point x="59" y="441" type="qcurve" smooth="yes"/>
      <point x="59" y="497"/>
      <point x="64" y="616"/>
      <point x="68" y="680" type="qcurve"/>
      <point x="90" y="691"/>
      <point x="142" y="704"/>
      <point x="169" y="704" type="qcurve" smooth="yes"/>
      <point x="189" y="704"/>
      <point x="226" y="699"/>
      <point x="243" y="694" type="qcurve"/>
      <point x="228" y="609"/>
      <point x="212" y="429"/>
      <point x="210" y="335" type="qcurve"/>
      <point x="283" y="407"/>
      <point x="386" y="565"/>
      <point x="446" y="699" type="qcurve"/>
      <point x="479" y="688"/>
      <point x="538" y="645"/>
      <point x="566" y="612" type="qcurve"/>
      <point x="516" y="519"/>
      <point x="412" y="380"/>
      <point x="349" y="321" type="qcurve"/>
      <point x="431" y="251"/>
      <point x="552" y="105"/>
    </contour>
  </outline>
</glyph>
<glyph name="L" format="1">
  <advance width="511"/>
  <unicode hex="004C"/>
  <outline>
    <contour>
      <point x="493" y="44" type="qcurve"/>
      <point x="499" y="21"/>
      <point x="510" y="-49"/>
      <point x="510" y="-72" type="qcurve"/>
      <point x="410" y="-73"/>
      <point x="236" y="-86"/>
      <point x="120" y="-102" type="qcurve"/>
      <point x="95" y="69"/>
      <point x="64" y="497"/>
      <point x="65" y="656" type="qcurve"/>
      <point x="97" y="666"/>
      <point x="162" y="675"/>
      <point x="196" y="675" type="qcurve" smooth="yes"/>
      <point x="207" y="675"/>
      <point x="228" y="674"/>
      <point x="238" y="672" type="qcurve"/>
      <point x="231" y="615"/>
      <point x="223" y="459"/>
      <point x="224" y="372" type="qcurve" smooth="yes"/>
      <point x="224" y="254"/>
      <point x="234" y="86"/>
      <point x="245" y="15" type="qcurve"/>
      <point x="303" y="29"/>
      <point x="434" y="44"/>
    </contour>
  </outline>
</glyph>
<glyph name="N" format="1">
  <advance width="677"/>
  <unicode hex="004E"/>
  <outline>
    <contour>
      <point x="216" y="235" type="qcurve" smooth="yes"/>
      <point x="216" y="199"/>
      <point x="218" y="115"/>
      <point x="223" y="-28" type="qcurve"/>
      <point x="202" y="-34"/>
      <point x="131" y="-42"/>
      <point x="100" y="-43" type="qcurve"/>
      <point x="81" y="186"/>
      <point x="63" y="529"/>
      <point x="63" y="663" type="qcurve"/>
      <point x="65" y="665"/>
      <point x="75" y="670"/>
      <point x="77" y="671" type="qcurve"/>
      <point x="108" y="687"/>
      <point x="183" y="706"/>
      <point x="226" y="709" type="qcurve"/>
      <point x="303" y="603"/>
      <point x="420" y="391"/>
      <point x="471" y="266" type="qcurve"/>
      <point x="471" y="287"/>
      <point x="471" y="330"/>
      <point x="471" y="351" type="qcurve" smooth="yes"/>
      <point x="471" y="483"/>
      <point x="462" y="675"/>
      <point x="453" y="734" type="qcurve"/>
      <point x="491" y="746"/>
      <point x="568" y="759"/>
      <point x="608" y="760" type="qcurve"/>
      <point x="611" y="702"/>
      <point x="613" y="598"/>
      <point x="613" y="549" type="qcurve" smooth="yes"/>
      <point x="613" y="416"/>
      <point x="603" y="158"/>
      <point x="593" y="29" type="qcurve"/>
      <point x="554" y="22"/>
      <point x="490" y="15"/>
      <point x="459" y="14" type="qcurve"/>
      <point x="389" y="181"/>
      <point x="278" y="393"/>
      <point x="216" y="480" type="qcurve"/>
      <point x="215" y="422"/>
      <point x="215" y="298"/>
    </contour>
  </outline>
</glyph>
<glyph name="O" format="1">
  <advance width="628"/>
  <unicode hex="004F"/>
  <outline>
    <contour>
      <point x="350" y="733" type="qcurve" smooth="yes"/>
      <point x="466" y="733"/>
      <point x="591" y="569"/>
      <point x="591" y="416" type="qcurve" smooth="yes"/>
      <point x="591" y="340"/>
      <point x="554" y="187"/>
      <point x="520" y="129" type="qcurve" smooth="yes"/>
      <point x="478" y="55"/>
      <point x="355" y="-20"/>
      <point x="277" y="-20" type="qcurve" smooth="yes"/>
      <point x="163" y="-20"/>
      <point x="33" y="171"/>
      <point x="33" y="329" type="qcurve" smooth="yes"/>
      <point x="33" y="507"/>
      <point x="209" y="733"/>
    </contour>
    <contour>
      <point x="305" y="80" type="qcurve" smooth="yes"/>
      <point x="367" y="80"/>
      <point x="434" y="238"/>
      <point x="434" y="377" type="qcurve" smooth="yes"/>
      <point x="434" y="510"/>
      <point x="380" y="631"/>
      <point x="320" y="631" type="qcurve" smooth="yes"/>
      <point x="259" y="631"/>
      <point x="187" y="478"/>
      <point x="187" y="351" type="qcurve" smooth="yes"/>
      <point x="187" y="228"/>
      <point x="249" y="80"/>
    </contour>
  </outline>
</glyph>
<glyph name="P" format="1">
  <advance width="599"/>
  <unicode hex="0050"/>
  <outline>
    <contour>
      <point x="212" y="219" type="qcurve"/>
      <point x="213" y="147"/>
      <point x="220" y="10"/>
      <point x="225" y="-68" type="qcurve"/>
      <point x="193" y="-69"/>
      <point x="121" y="-64"/>
      <point x="95" y="-59" type="qcurve"/>
      <point x="78" y="112"/>
      <point x="63" y="389"/>
      <point x="63" y="538" type="qcurve" smooth="yes"/>
      <point x="63" y="572"/>
      <point x="67" y="657"/>
      <point x="70" y="696" type="qcurve"/>
      <point x="122" y="718"/>
      <point x="247" y="742"/>
      <point x="306" y="742" type="qcurve" smooth="yes"/>
      <point x="428" y="742"/>
      <point x="561" y="639"/>
      <point x="561" y="547" type="qcurve" smooth="yes"/>
      <point x="561" y="438"/>
      <point x="380" y="268"/>
    </contour>
    <contour>
      <point x="406" y="521" type="qcurve" smooth="yes"/>
      <point x="406" y="584"/>
      <point x="342" y="653"/>
      <point x="281" y="653" type="qcurve" smooth="yes"/>
      <point x="268" y="653"/>
      <point x="242" y="650"/>
      <point x="229" y="647" type="qcurve"/>
      <point x="222" y="568"/>
      <point x="214" y="407"/>
      <point x="212" y="320" type="qcurve"/>
      <point x="309" y="344"/>
      <point x="406" y="445"/>
    </contour>
  </outline>
</glyph>
<glyph name="S" format="1">
  <advance width="525"/>
  <unicode hex="0053"/>
  <outline>
    <contour>
      <point x="447" y="319" type="qcurve" smooth="yes"/>
      <point x="468" y="288"/>
      <point x="489" y="218"/>
      <point x="489" y="177" type="qcurve" smooth="yes"/>
      <point x="489" y="83"/>
      <point x="358" y="-40"/>
      <point x="261" y="-40" type="qcurve" smooth="yes"/>
      <point x="150" y="-40"/>
      <point x="10" y="108"/>
      <point x="10" y="215" type="qcurve"/>
      <point x="34" y="227"/>
      <point x="103" y="245"/>
      <point x="129" y="246" type="qcurve"/>
      <point x="129" y="157"/>
      <point x="192" y="53"/>
      <point x="248" y="53" type="qcurve" smooth="yes"/>
      <point x="290" y="53"/>
      <point x="337" y="103"/>
      <point x="337" y="146" type="qcurve" smooth="yes"/>
      <point x="337" y="185"/>
      <point x="294" y="252"/>
      <point x="221" y="307" type="qcurve" smooth="yes"/>
      <point x="172" y="344"/>
      <point x="126" y="389"/>
      <point x="110" y="411" type="qcurve" smooth="yes"/>
      <point x="88" y="443"/>
      <point x="66" y="515"/>
      <point x="66" y="556" type="qcurve" smooth="yes"/>
      <point x="66" y="651"/>
      <point x="190" y="767"/>
      <point x="293" y="767" type="qcurve" smooth="yes"/>
      <point x="385" y="767"/>
      <point x="494" y="672"/>
      <point x="513" y="573" type="qcurve"/>
      <point x="491" y="558"/>
      <point x="432" y="543"/>
      <point x="388" y="540" type="qcurve"/>
      <point x="378" y="609"/>
      <point x="333" y="669"/>
      <point x="290" y="669" type="qcurve" smooth="yes"/>
      <point x="257" y="669"/>
      <point x="220" y="626"/>
      <point x="220" y="588" type="qcurve" smooth="yes"/>
      <point x="220" y="546"/>
      <point x="264" y="476"/>
      <point x="338" y="421" type="qcurve" smooth="yes"/>
      <point x="387" y="384"/>
      <point x="431" y="341"/>
    </contour>
  </outline>
</glyph>
<glyph name="T" format="1">
  <advance width="584"/>
  <unicode hex="0054"/>
  <outline>
    <contour>
      <point x="384" y="40" type="qcurve"/>
      <point x="354" y="32"/>
      <point x="288" y="24"/>
      <point x="246" y="23" type="qcurve"/>
      <point x="248" y="164"/>
      <point x="232" y="513"/>
      <point x="215" y="647" type="qcurve"/>
      <point x="185" y="644"/>
      <point x="111" y="636"/>
      <point x="35" y="627" type="qcurve"/>
      <point x="25" y="656"/>
      <point x="15" y="713"/>
      <point x="16" y="738" type="qcurve"/>
      <point x="160" y="767"/>
      <point x="402" y="791"/>
      <point x="554" y="792" type="qcurve"/>
      <point x="558" y="779"/>
      <point x="563" y="746"/>
      <point x="563" y="727" type="qcurve" smooth="yes"/>
      <point x="563" y="714"/>
      <point x="560" y="686"/>
      <point x="556" y="663" type="qcurve"/>
      <point x="522" y="663"/>
      <point x="447" y="661"/>
      <point x="381" y="659" type="qcurve"/>
      <point x="389" y="576"/>
      <point x="396" y="399"/>
      <point x="396" y="302" type="qcurve" smooth="yes"/>
      <point x="396" y="251"/>
      <point x="391" y="130"/>
    </contour>
  </outline>
</glyph>
<glyph name="Y" format="1">
  <advance width="543"/>
  <unicode hex="0059"/>
  <outline>
    <contour>
      <point x="526" y="670" type="qcurve"/>
      <point x="457" y="404"/>
      <point x="310" y="54"/>
      <point x="210" y="-94" type="qcurve"/>
      <point x="179" y="-87"/>
      <point x="113" y="-57"/>
      <point x="93" y="-42" type="qcurve"/>
      <point x="131" y="17"/>
      <point x="195" y="132"/>
      <point x="221" y="190" type="qcurve"/>
      <point x="145" y="287"/>
      <point x="39" y="527"/>
      <point x="3" y="685" type="qcurve"/>
      <point x="35" y="707"/>
      <point x="109" y="731"/>
      <point x="154" y="733" type="qcurve"/>
      <point x="173" y="615"/>
      <point x="233" y="428"/>
      <point x="280" y="336" type="qcurve"/>
      <point x="309" y="419"/>
      <point x="356" y="607"/>
      <point x="375" y="723" type="qcurve"/>
      <point x="421" y="716"/>
      <point x="494" y="690"/>
    </contour>
  </outline>
</glyph>
<glyph name="Z" format="1">
  <advance width="588"/>
  <unicode hex="005A"/>
  <outline>
    <contour>
      <point x="540" y="109" type="qcurve"/>
      <point x="540" y="67"/>
      <point x="527" y="-6"/>
      <point x="514" y="-35" type="qcurve"/>
      <point x="399" y="-34"/>
      <point x="123" y="-11"/>
      <point x="15" y="6" type="qcurve"/>
      <point x="15" y="42"/>
      <point x="22" y="104"/>
      <point x="28" y="125" type="qcurve"/>
      <point x="148" y="248"/>
      <point x="322" y="463"/>
      <point x="390" y="573" type="qcurve"/>
      <point x="316" y="577"/>
      <point x="162" y="594"/>
      <point x="65" y="608" type="qcurve"/>
      <point x="65" y="649"/>
      <point x="80" y="711"/>
      <point x="97" y="741" type="qcurve"/>
      <point x="218" y="718"/>
      <point x="457" y="678"/>
      <point x="571" y="661" type="qcurve"/>
      <point x="563" y="601"/>
      <point x="555" y="564"/>
      <point x="550" y="553" type="qcurve"/>
      <point x="483" y="455"/>
      <point x="293" y="232"/>
      <point x="163" y="98" type="qcurve"/>
      <point x="263" y="95"/>
      <point x="446" y="100"/>
    </contour>
  </outline>
</glyph>
<glyph name="bracketright" format="1">
  <advance width="392"/>
  <unicode hex="005D"/>
  <outline>
    <contour>
      <point x="295" y="804" type="qcurve"/>
      <point x="318" y="669"/>
      <point x="324" y="184"/>
      <point x="308" y="-86" type="qcurve"/>
      <point x="235" y="-100"/>
      <point x="106" y="-116"/>
      <point x="37" y="-120" type="qcurve"/>
      <point x="37" y="-92"/>
      <point x="40" y="-42"/>
      <point x="43" y="-22" type="qcurve"/>
      <point x="92" y="-21"/>
      <point x="167" y="-17"/>
      <point x="199" y="-14" type="qcurve"/>
      <point x="213" y="175"/>
      <point x="202" y="529"/>
      <point x="177" y="701" type="qcurve"/>
      <point x="144" y="701"/>
      <point x="64" y="694"/>
      <point x="27" y="687" type="qcurve"/>
      <point x="22" y="705"/>
      <point x="14" y="766"/>
      <point x="14" y="787" type="qcurve"/>
      <point x="76" y="795"/>
      <point x="217" y="804"/>
    </contour>
  </outline>
</glyph>
<glyph name="grave" format="1">
  <advance width="260"/>
  <unicode hex="0060"/>
  <outline>
    <contour>
      <point x="173" y="749" type="qcurve"/>
      <point x="175" y="710"/>
      <point x="192" y="626"/>
      <point x="207" y="583" type="qcurve"/>
      <point x="184" y="577"/>
      <point x="141" y="572"/>
      <point x="119" y="572" type="qcurve"/>
      <point x="88" y="620"/>
      <point x="55" y="700"/>
      <point x="50" y="738" type="qcurve"/>
      <point x="74" y="747"/>
      <point x="141" y="753"/>
    </contour>
    <contour>
      <point x="158" y="560" type="move" name="_top"/>
    </contour>
  </outline>
</glyph>
<glyph name="b" format="1">
  <advance width="519"/>
  <unicode hex="0062"/>
  <outline>
    <contour>
      <point x="485" y="281" type="qcurve" smooth="yes"/>
      <point x="485" y="137"/>
      <point x="340" y="-49"/>
      <point x="230" y="-49" type="qcurve" smooth="yes"/>
      <point x="184" y="-49"/>
      <point x="107" y="-26"/>
      <point x="66" y="1" type="qcurve"/>
      <point x="61" y="74"/>
      <point x="55" y="278"/>
      <point x="55" y="376" type="qcurve" smooth="yes"/>
      <point x="55" y="466"/>
      <point x="61" y="630"/>
      <point x="67" y="687" type="qcurve"/>
      <point x="84" y="696"/>
      <point x="145" y="706"/>
      <point x="181" y="706" type="qcurve" smooth="yes"/>
      <point x="202" y="706"/>
      <point x="228" y="703"/>
      <point x="241" y="699" type="qcurve"/>
      <point x="232" y="652"/>
      <point x="216" y="530"/>
      <point x="209" y="451" type="qcurve"/>
      <point x="232" y="479"/>
      <point x="290" y="506"/>
      <point x="326" y="506" type="qcurve" smooth="yes"/>
      <point x="404" y="506"/>
      <point x="485" y="392"/>
    </contour>
    <contour>
      <point x="197" y="65" type="qcurve"/>
      <point x="206" y="58"/>
      <point x="228" y="50"/>
      <point x="238" y="50" type="qcurve" smooth="yes"/>
      <point x="285" y="50"/>
      <point x="335" y="181"/>
      <point x="335" y="302" type="qcurve" smooth="yes"/>
      <point x="335" y="356"/>
      <point x="305" y="410"/>
      <point x="276" y="410" type="qcurve" smooth="yes"/>
      <point x="254" y="410"/>
      <point x="215" y="367"/>
      <point x="201" y="326" type="qcurve"/>
      <point x="199" y="253"/>
      <point x="197" y="169"/>
      <point x="197" y="133" type="qcurve" smooth="yes"/>
      <point x="197" y="116"/>
      <point x="197" y="82"/>
    </contour>
  </outline>
</glyph>
<glyph name="c" format="1">
  <advance width="481"/>
  <unicode hex="0063"/>
  <outline>
    <contour>
      <point x="460" y="370" type="qcurve"/>
      <point x="435" y="358"/>
      <point x="370" y="346"/>
      <point x="327" y="346" type="qcurve"/>
      <point x="327" y="404"/>
      <point x="300" y="463"/>
      <point x="274" y="463" type="qcurve" smooth="yes"/>
      <point x="234" y="463"/>
      <point x="175" y="307"/>
      <point x="175" y="207" type="qcurve" smooth="yes"/>
      <point x="175" y="139"/>
      <point x="215" y="62"/>
      <point x="252" y="62" type="qcurve" smooth="yes"/>
      <point x="282" y="62"/>
      <point x="343" y="117"/>
      <point x="372" y="170" type="qcurve"/>
      <point x="395" y="164"/>
      <point x="438" y="135"/>
      <point x="452" y="116" type="qcurve"/>
      <point x="436" y="60"/>
      <point x="309" y="-25"/>
      <point x="225" y="-25" type="qcurve" smooth="yes"/>
      <point x="130" y="-25"/>
      <point x="26" y="96"/>
      <point x="26" y="201" type="qcurve" smooth="yes"/>
      <point x="26" y="341"/>
      <point x="171" y="542"/>
      <point x="282" y="542" type="qcurve" smooth="yes"/>
      <point x="366" y="542"/>
      <point x="460" y="450"/>
    </contour>
  </outline>
</glyph>
<glyph name="d" format="1">
  <advance width="542"/>
  <unicode hex="0064"/>
  <outline>
    <contour>
      <point x="470" y="-26" type="qcurve"/>
      <point x="449" y="-33"/>
      <point x="382" y="-42"/>
      <point x="356" y="-42" type="qcurve"/>
      <point x="352" y="-19"/>
      <point x="345" y="40"/>
      <point x="341" y="76" type="qcurve"/>
      <point x="320" y="22"/>
      <point x="255" y="-30"/>
      <point x="208" y="-30" type="qcurve" smooth="yes"/>
      <point x="124" y="-30"/>
      <point x="31" y="105"/>
      <point x="31" y="223" type="qcurve" smooth="yes"/>
      <point x="31" y="363"/>
      <point x="167" y="531"/>
      <point x="281" y="531" type="qcurve" smooth="yes"/>
      <point x="289" y="531"/>
      <point x="307" y="529"/>
      <point x="315" y="528" type="qcurve"/>
      <point x="314" y="612"/>
      <point x="313" y="680"/>
      <point x="313" y="707" type="qcurve"/>
      <point x="331" y="716"/>
      <point x="392" y="727"/>
      <point x="423" y="727" type="qcurve" smooth="yes"/>
      <point x="438" y="727"/>
      <point x="468" y="723"/>
      <point x="483" y="720" type="qcurve"/>
      <point x="475" y="652"/>
      <point x="467" y="366"/>
      <point x="467" y="108" type="qcurve" smooth="yes"/>
      <point x="467" y="73"/>
      <point x="468" y="13"/>
    </contour>
    <contour>
      <point x="177" y="241" type="qcurve" smooth="yes"/>
      <point x="177" y="161"/>
      <point x="215" y="75"/>
      <point x="249" y="75" type="qcurve" smooth="yes"/>
      <point x="278" y="75"/>
      <point x="320" y="150"/>
      <point x="329" y="220" type="qcurve"/>
      <point x="325" y="295"/>
      <point x="320" y="397"/>
      <point x="318" y="442" type="qcurve"/>
      <point x="308" y="443"/>
      <point x="297" y="444"/>
      <point x="291" y="444" type="qcurve" smooth="yes"/>
      <point x="239" y="444"/>
      <point x="177" y="336"/>
    </contour>
  </outline>
</glyph>
<glyph name="i" format="1">
  <advance width="263"/>
  <unicode hex="0069"/>
  <outline>
    <contour>
      <point x="180" y="750" type="qcurve" smooth="yes"/>
      <point x="204" y="749"/>
      <point x="244" y="741"/>
      <point x="257" y="734" type="qcurve"/>
      <point x="248" y="713"/>
      <point x="226" y="641"/>
      <point x="220" y="609" type="qcurve"/>
      <point x="192" y="605"/>
      <point x="130" y="602"/>
      <point x="94" y="603" type="qcurve"/>
      <point x="89" y="619"/>
      <point x="84" y="651"/>
      <point x="84" y="667" type="qcurve" smooth="yes"/>
      <point x="84" y="685"/>
      <point x="90" y="719"/>
      <point x="95" y="732" type="qcurve"/>
      <point x="114" y="741"/>
      <point x="155" y="750"/>
    </contour>
    <contour>
      <point x="66" y="501" type="qcurve"/>
      <point x="87" y="513"/>
      <point x="140" y="526"/>
      <point x="170" y="526" type="qcurve" smooth="yes"/>
      <point x="184" y="526"/>
      <point x="213" y="523"/>
      <point x="227" y="520" type="qcurve"/>
      <point x="206" y="440"/>
      <point x="180" y="156"/>
      <point x="180" y="5" type="qcurve"/>
      <point x="164" y="-2"/>
      <point x="117" y="-11"/>
      <point x="92" y="-11" type="qcurve" smooth="yes"/>
      <point x="81" y="-11"/>
      <point x="64" y="-9"/>
      <point x="57" y="-8" type="qcurve"/>
      <point x="41" y="129"/>
      <point x="46" y="395"/>
    </contour>
  </outline>
</glyph>
<glyph name="n" format="1">
  <advance width="541"/>
  <unicode hex="006E"/>
  <outline>
    <contour>
      <point x="193" y="127" type="qcurve" smooth="yes"/>
      <point x="193" y="95"/>
      <point x="196" y="10"/>
      <point x="198" y="-23" type="qcurve"/>
      <point x="176" y="-30"/>
      <point x="105" y="-39"/>
      <point x="74" y="-39" type="qcurve"/>
      <point x="63" y="65"/>
      <point x="44" y="405"/>
      <point x="44" y="522" type="qcurve"/>
      <point x="62" y="531"/>
      <point x="123" y="542"/>
      <point x="155" y="542" type="qcurve" smooth="yes"/>
      <point x="169" y="542"/>
      <point x="199" y="539"/>
      <point x="216" y="536" type="qcurve"/>
      <point x="214" y="519"/>
      <point x="209" y="471"/>
      <point x="207" y="440" type="qcurve"/>
      <point x="237" y="488"/>
      <point x="311" y="536"/>
      <point x="355" y="536" type="qcurve" smooth="yes"/>
      <point x="422" y="536"/>
      <point x="487" y="439"/>
      <point x="487" y="341" type="qcurve" smooth="yes"/>
      <point x="487" y="264"/>
      <point x="462" y="65"/>
      <point x="448" y="10" type="qcurve"/>
      <point x="418" y="11"/>
      <point x="345" y="19"/>
      <point x="304" y="27" type="qcurve"/>
      <point x="321" y="120"/>
      <point x="339" y="280"/>
      <point x="339" y="338" type="qcurve" smooth="yes"/>
      <point x="339" y="382"/>
      <point x="317" y="420"/>
      <point x="293" y="420" type="qcurve" smooth="yes"/>
      <point x="267" y="420"/>
      <point x="217" y="363"/>
      <point x="199" y="313" type="qcurve"/>
      <point x="196" y="267"/>
      <point x="193" y="170"/>
    </contour>
  </outline>
</glyph>
<glyph name="p" format="1">
  <advance width="521"/>
  <unicode hex="0070"/>
  <outline>
    <contour>
      <point x="196" y="109" type="qcurve"/>
      <point x="205" y="102"/>
      <point x="226" y="95"/>
      <point x="238" y="95" type="qcurve" smooth="yes"/>
      <point x="282" y="95"/>
      <point x="344" y="244"/>
      <point x="344" y="355" type="qcurve" smooth="yes"/>
      <point x="344" y="403"/>
      <point x="316" y="454"/>
      <point x="289" y="454" type="qcurve" smooth="yes"/>
      <point x="259" y="454"/>
      <point x="214" y="399"/>
      <point x="200" y="345" type="qcurve"/>
      <point x="197" y="308"/>
      <point x="195" y="220"/>
      <point x="195" y="165" type="qcurve"/>
      <point x="195" y="142"/>
      <point x="195" y="118"/>
    </contour>
    <contour>
      <point x="199" y="12" type="qcurve"/>
      <point x="201" y="-21"/>
      <point x="207" y="-93"/>
      <point x="221" y="-211" type="qcurve"/>
      <point x="198" y="-218"/>
      <point x="127" y="-227"/>
      <point x="96" y="-227" type="qcurve"/>
      <point x="80" y="-107"/>
      <point x="59" y="216"/>
      <point x="59" y="351" type="qcurve" smooth="yes"/>
      <point x="59" y="410"/>
      <point x="63" y="504"/>
      <point x="68" y="550" type="qcurve"/>
      <point x="86" y="560"/>
      <point x="147" y="571"/>
      <point x="179" y="571" type="qcurve" smooth="yes"/>
      <point x="192" y="571"/>
      <point x="213" y="568"/>
      <point x="228" y="564" type="qcurve"/>
      <point x="223" y="547"/>
      <point x="215" y="505"/>
      <point x="212" y="478" type="qcurve"/>
      <point x="240" y="522"/>
      <point x="312" y="566"/>
      <point x="354" y="566" type="qcurve" smooth="yes"/>
      <point x="419" y="566"/>
      <point x="494" y="461"/>
      <point x="494" y="370" type="qcurve" smooth="yes"/>
      <point x="494" y="212"/>
      <point x="349" y="10"/>
      <point x="240" y="10" type="qcurve" smooth="yes"/>
      <point x="232" y="10"/>
      <point x="215" y="11"/>
    </contour>
  </outline>
</glyph>
<glyph name="q" format="1">
  <advance width="554"/>
  <unicode hex="0071"/>
  <outline>
    <contour>
      <point x="443" y="-227" type="qcurve"/>
      <point x="428" y="-234"/>
      <point x="386" y="-241"/>
      <point x="363" y="-241" type="qcurve" smooth="yes"/>
      <point x="347" y="-241"/>
      <point x="328" y="-239"/>
      <point x="318" y="-236" type="qcurve"/>
      <point x="317" y="-221"/>
      <point x="313" y="-57"/>
      <point x="312" y="20" type="qcurve"/>
      <point x="290" y="-15"/>
      <point x="236" y="-50"/>
      <point x="205" y="-50" type="qcurve" smooth="yes"/>
      <point x="124" y="-50"/>
      <point x="33" y="83"/>
      <point x="33" y="196" type="qcurve" smooth="yes"/>
      <point x="33" y="345"/>
      <point x="173" y="522"/>
      <point x="291" y="522" type="qcurve" smooth="yes"/>
      <point x="302" y="522"/>
      <point x="334" y="518"/>
      <point x="349" y="514" type="qcurve"/>
      <point x="350" y="523"/>
      <point x="354" y="542"/>
      <point x="357" y="554" type="qcurve"/>
      <point x="378" y="565"/>
      <point x="424" y="574"/>
      <point x="454" y="574" type="qcurve" smooth="yes"/>
      <point x="469" y="574"/>
      <point x="506" y="569"/>
      <point x="523" y="564" type="qcurve"/>
      <point x="490" y="467"/>
      <point x="440" y="-16"/>
    </contour>
    <contour>
      <point x="179" y="218" type="qcurve" smooth="yes"/>
      <point x="179" y="142"/>
      <point x="215" y="56"/>
      <point x="246" y="56" type="qcurve" smooth="yes"/>
      <point x="268" y="56"/>
      <point x="300" y="89"/>
      <point x="312" y="124" type="qcurve"/>
      <point x="313" y="189"/>
      <point x="326" y="351"/>
      <point x="336" y="429" type="qcurve"/>
      <point x="328" y="432"/>
      <point x="308" y="435"/>
      <point x="296" y="435" type="qcurve" smooth="yes"/>
      <point x="242" y="435"/>
      <point x="179" y="321"/>
    </contour>
  </outline>
</glyph>
<glyph name="r" format="1">
  <advance width="452"/>
  <unicode hex="0072"/>
  <outline>
    <contour>
      <point x="195" y="226" type="qcurve"/>
      <point x="198" y="166"/>
      <point x="210" y="53"/>
      <point x="219" y="-1" type="qcurve"/>
      <point x="202" y="-7"/>
      <point x="158" y="-12"/>
      <point x="130" y="-11" type="qcurve" smooth="yes"/>
      <point x="114" y="-10"/>
      <point x="94" y="-7"/>
      <point x="84" y="-3" type="qcurve"/>
      <point x="58" y="120"/>
      <point x="36" y="413"/>
      <point x="45" y="534" type="qcurve"/>
      <point x="60" y="540"/>
      <point x="98" y="545"/>
      <point x="125" y="545" type="qcurve" smooth="yes"/>
      <point x="150" y="545"/>
      <point x="192" y="538"/>
      <point x="209" y="531" type="qcurve"/>
      <point x="205" y="510"/>
      <point x="199" y="460"/>
      <point x="197" y="433" type="qcurve"/>
      <point x="221" y="497"/>
      <point x="295" y="571"/>
      <point x="334" y="571" type="qcurve" smooth="yes"/>
      <point x="383" y="571"/>
      <point x="437" y="492"/>
      <point x="437" y="419" type="qcurve" smooth="yes"/>
      <point x="437" y="402"/>
      <point x="437" y="383"/>
      <point x="436" y="375" type="qcurve"/>
      <point x="412" y="367"/>
      <point x="343" y="362"/>
      <point x="305" y="364" type="qcurve"/>
      <point x="306" y="384"/>
      <point x="307" y="399"/>
      <point x="307" y="405" type="qcurve" smooth="yes"/>
      <point x="307" y="433"/>
      <point x="294" y="461"/>
      <point x="280" y="461" type="qcurve" smooth="yes"/>
      <point x="255" y="461"/>
      <point x="208" y="334"/>
    </contour>
  </outline>
</glyph>
<glyph name="s" format="1">
  <advance width="447"/>
  <unicode hex="0073"/>
  <outline>
    <contour>
      <point x="273" y="316" type="qcurve" smooth="yes"/>
      <point x="355" y="262"/>
      <point x="409" y="182"/>
      <point x="409" y="133" type="qcurve" smooth="yes"/>
      <point x="409" y="57"/>
      <point x="290" y="-43"/>
      <point x="203" y="-43" type="qcurve" smooth="yes"/>
      <point x="123" y="-43"/>
      <point x="18" y="60"/>
      <point x="18" y="136" type="qcurve"/>
      <point x="38" y="145"/>
      <point x="98" y="156"/>
      <point x="120" y="155" type="qcurve"/>
      <point x="119" y="102"/>
      <point x="163" y="39"/>
      <point x="202" y="39" type="qcurve" smooth="yes"/>
      <point x="231" y="39"/>
      <point x="264" y="72"/>
      <point x="264" y="102" type="qcurve" smooth="yes"/>
      <point x="264" y="128"/>
      <point x="229" y="175"/>
      <point x="169" y="215" type="qcurve" smooth="yes"/>
      <point x="89" y="269"/>
      <point x="38" y="348"/>
      <point x="38" y="397" type="qcurve" smooth="yes"/>
      <point x="38" y="470"/>
      <point x="141" y="563"/>
      <point x="224" y="563" type="qcurve" smooth="yes"/>
      <point x="306" y="563"/>
      <point x="405" y="484"/>
      <point x="420" y="407" type="qcurve"/>
      <point x="398" y="393"/>
      <point x="341" y="377"/>
      <point x="298" y="374" type="qcurve"/>
      <point x="291" y="426"/>
      <point x="257" y="474"/>
      <point x="228" y="474" type="qcurve" smooth="yes"/>
      <point x="205" y="474"/>
      <point x="180" y="446"/>
      <point x="180" y="421" type="qcurve" smooth="yes"/>
      <point x="180" y="397"/>
      <point x="214" y="354"/>
    </contour>
  </outline>
</glyph>
<glyph name="w" format="1">
  <advance width="751"/>
  <unicode hex="0077"/>
  <outline>
    <contour>
      <point x="556" y="-15" type="qcurve"/>
      <point x="537" y="-22"/>
      <point x="471" y="-34"/>
      <point x="442" y="-36" type="qcurve"/>
      <point x="426" y="63"/>
      <point x="393" y="228"/>
      <point x="372" y="309" type="qcurve"/>
      <point x="340" y="212"/>
      <point x="290" y="82"/>
      <point x="261" y="20" type="qcurve"/>
      <point x="238" y="13"/>
      <point x="165" y="2"/>
      <point x="135" y="1" type="qcurve"/>
      <point x="88" y="124"/>
      <point x="25" y="375"/>
      <point x="4" y="521" type="qcurve"/>
      <point x="43" y="533"/>
      <point x="124" y="547"/>
      <point x="167" y="548" type="qcurve"/>
      <point x="176" y="422"/>
      <point x="203" y="236"/>
      <point x="225" y="147" type="qcurve"/>
      <point x="256" y="233"/>
      <point x="302" y="396"/>
      <point x="319" y="485" type="qcurve"/>
      <point x="360" y="495"/>
      <point x="430" y="504"/>
      <point x="456" y="503" type="qcurve"/>
      <point x="480" y="431"/>
      <point x="519" y="255"/>
      <point x="537" y="146" type="qcurve"/>
      <point x="568" y="241"/>
      <point x="608" y="420"/>
      <point x="618" y="510" type="qcurve"/>
      <point x="657" y="507"/>
      <point x="715" y="491"/>
      <point x="744" y="474" type="qcurve"/>
      <point x="703" y="317"/>
      <point x="614" y="86"/>
    </contour>
  </outline>
</glyph>
<glyph name="x" format="1">
  <advance width="524"/>
  <unicode hex="0078"/>
  <outline>
    <contour>
      <point x="485" y="24" type="qcurve"/>
      <point x="468" y="7"/>
      <point x="409" y="-30"/>
      <point x="378" y="-44" type="qcurve"/>
      <point x="346" y="13"/>
      <point x="283" y="119"/>
      <point x="252" y="168" type="qcurve"/>
      <point x="203" y="118"/>
      <point x="101" y="22"/>
      <point x="46" y="-25" type="qcurve"/>
      <point x="30" y="-13"/>
      <point x="-2" y="27"/>
      <point x="-15" y="50" type="qcurve"/>
      <point x="43" y="106"/>
      <point x="145" y="210"/>
      <point x="190" y="261" type="qcurve"/>
      <point x="150" y="319"/>
      <point x="67" y="425"/>
      <point x="24" y="473" type="qcurve"/>
      <point x="60" y="502"/>
      <point x="134" y="545"/>
      <point x="167" y="557" type="qcurve"/>
      <point x="202" y="510"/>
      <point x="265" y="416"/>
      <point x="295" y="368" type="qcurve"/>
      <point x="323" y="404"/>
      <point x="386" y="490"/>
      <point x="430" y="554" type="qcurve"/>
      <point x="457" y="536"/>
      <point x="504" y="485"/>
      <point x="523" y="453" type="qcurve"/>
      <point x="475" y="395"/>
      <point x="395" y="303"/>
      <point x="358" y="264" type="qcurve"/>
      <point x="389" y="212"/>
      <point x="450" y="95"/>
    </contour>
  </outline>
</glyph>
<glyph name="y" format="1">
  <advance width="526"/>
  <unicode hex="0079"/>
  <outline>
    <contour>
      <point x="476" y="179" type="qcurve" smooth="yes"/>
      <point x="476" y="-24"/>
      <point x="349" y="-236"/>
      <point x="231" y="-236" type="qcurve" smooth="yes"/>
      <point x="151" y="-236"/>
      <point x="58" y="-147"/>
      <point x="52" y="-76" type="qcurve"/>
      <point x="76" y="-58"/>
      <point x="141" y="-32"/>
      <point x="177" y="-26" type="qcurve"/>
      <point x="186" y="-91"/>
      <point x="217" y="-147"/>
      <point x="243" y="-147" type="qcurve" smooth="yes"/>
      <point x="279" y="-147"/>
      <point x="321" y="-27"/>
      <point x="325" y="93" type="qcurve"/>
      <point x="300" y="54"/>
      <point x="238" y="17"/>
      <point x="199" y="17" type="qcurve" smooth="yes"/>
      <point x="127" y="17"/>
      <point x="33" y="150"/>
      <point x="33" y="255" type="qcurve" smooth="yes"/>
      <point x="33" y="323"/>
      <point x="52" y="443"/>
      <point x="79" y="535" type="qcurve"/>
      <point x="116" y="535"/>
      <point x="185" y="527"/>
      <point x="222" y="519" type="qcurve"/>
      <point x="200" y="434"/>
      <point x="183" y="323"/>
      <point x="183" y="262" type="qcurve" smooth="yes"/>
      <point x="183" y="202"/>
      <point x="219" y="126"/>
      <point x="249" y="126" type="qcurve" smooth="yes"/>
      <point x="272" y="126"/>
      <point x="310" y="165"/>
      <point x="325" y="204" type="qcurve"/>
      <point x="322" y="284"/>
      <point x="300" y="445"/>
      <point x="285" y="491" type="qcurve"/>
      <point x="313" y="503"/>
      <point x="398" y="517"/>
      <point x="440" y="515" type="qcurve"/>
      <point x="455" y="461"/>
      <point x="476" y="264"/>
    </contour>
  </outline>
</glyph>
<glyph name="bar" format="1">
  <advance width="271"/>
  <unicode hex="007C"/>
  <outline>
    <contour>
      <point x="182" y="-159" type="qcurve"/>
      <point x="164" y="-165"/>
      <point x="113" y="-170"/>
      <point x="94" y="-168" type="qcurve"/>
      <point x="84" y="-1"/>
      <point x="73" y="478"/>
      <point x="74" y="713" type="qcurve"/>
      <point x="103" y="725"/>
      <point x="171" y="732"/>
      <point x="197" y="725" type="qcurve"/>
      <point x="186" y="580"/>
      <point x="177" y="-3"/>
    </contour>
  </outline>
</glyph>
<glyph name="braceright" format="1">
  <advance width="324"/>
  <unicode hex="007D"/>
  <outline>
    <contour>
      <point x="264" y="-23" type="qcurve" smooth="yes"/>
      <point x="264" y="-86"/>
      <point x="170" y="-168"/>
      <point x="101" y="-167" type="qcurve" smooth="yes"/>
      <point x="85" y="-167"/>
      <point x="58" y="-164"/>
      <point x="44" y="-160" type="qcurve"/>
      <point x="39" y="-142"/>
      <point x="40" y="-98"/>
      <point x="46" y="-76" type="qcurve"/>
      <point x="57" y="-79"/>
      <point x="76" y="-82"/>
      <point x="86" y="-82" type="qcurve" smooth="yes"/>
      <point x="115" y="-82"/>
      <point x="145" y="-49"/>
      <point x="145" y="-18" type="qcurve" smooth="yes"/>
      <point x="145" y="6"/>
      <point x="130" y="53"/>
      <point x="105" y="93" type="qcurve" smooth="yes"/>
      <point x="79" y="137"/>
      <point x="63" y="188"/>
      <point x="63" y="215" type="qcurve" smooth="yes"/>
      <point x="64" y="251"/>
      <point x="105" y="310"/>
      <point x="141" y="324" type="qcurve"/>
      <point x="106" y="338"/>
      <point x="67" y="396"/>
      <point x="68" y="433" type="qcurve" smooth="yes"/>
      <point x="68" y="460"/>
      <point x="86" y="510"/>
      <point x="115" y="550" type="qcurve" smooth="yes"/>
      <point x="144" y="591"/>
      <point x="162" y="639"/>
      <point x="162" y="666" type="qcurve" smooth="yes"/>
      <point x="162" y="698"/>
      <point x="129" y="737"/>
      <point x="102" y="737" type="qcurve" smooth="yes"/>
      <point x="89" y="737"/>
      <point x="74" y="734"/>
      <point x="66" y="731" type="qcurve"/>
      <point x="60" y="752"/>
      <point x="59" y="794"/>
      <point x="63" y="814" type="qcurve"/>
      <point x="76" y="819"/>
      <point x="106" y="823"/>
      <point x="130" y="823" type="qcurve" smooth="yes"/>
      <point x="201" y="822"/>
      <point x="285" y="747"/>
      <point x="285" y="685" type="qcurve" smooth="yes"/>
      <point x="284" y="647"/>
      <point x="261" y="586"/>
      <point x="226" y="535" type="qcurve" smooth="yes"/>
      <point x="199" y="495"/>
      <point x="177" y="448"/>
      <point x="177" y="430" type="qcurve" smooth="yes"/>
      <point x="177" y="404"/>
      <point x="208" y="375"/>
      <point x="235" y="375" type="qcurve" smooth="yes"/>
      <point x="250" y="375"/>
      <point x="272" y="378"/>
      <point x="284" y="381" type="qcurve"/>
      <point x="290" y="353"/>
      <point x="290" y="287"/>
      <point x="283" y="265" type="qcurve"/>
      <point x="265" y="269"/>
      <point x="244" y="272"/>
      <point x="233" y="272" type="qcurve" smooth="yes"/>
      <point x="207" y="272"/>
      <point x="175" y="243"/>
      <point x="174" y="218" type="qcurve" smooth="yes"/>
      <point x="174" y="199"/>
      <point x="192" y="158"/>
      <point x="216" y="122" type="qcurve" smooth="yes"/>
      <point x="244" y="82"/>
      <point x="265" y="18"/>
    </contour>
  </outline>
</glyph>
<glyph name="asciitilde" format="1">
  <advance width="440"/>
  <unicode hex="007E"/>
  <outline>
    <contour>
      <point x="216" y="374" type="qcurve" smooth="yes"/>
      <point x="247" y="361"/>
      <point x="278" y="353"/>
      <point x="292" y="353" type="qcurve" smooth="yes"/>
      <point x="320" y="353"/>
      <point x="345" y="377"/>
      <point x="344" y="404" type="qcurve"/>
      <point x="361" y="405"/>
      <point x="398" y="399"/>
      <point x="409" y="394" type="qcurve"/>
      <point x="414" y="333"/>
      <point x="360" y="264"/>
      <point x="306" y="264" type="qcurve" smooth="yes"/>
      <point x="286" y="264"/>
      <point x="245" y="274"/>
      <point x="209" y="289" type="qcurve" smooth="yes"/>
      <point x="181" y="300"/>
      <point x="155" y="307"/>
      <point x="144" y="307" type="qcurve" smooth="yes"/>
      <point x="116" y="307"/>
      <point x="92" y="283"/>
      <point x="94" y="256" type="qcurve"/>
      <point x="80" y="255"/>
      <point x="46" y="261"/>
      <point x="30" y="266" type="qcurve"/>
      <point x="25" y="327"/>
      <point x="79" y="396"/>
      <point x="132" y="396" type="qcurve" smooth="yes"/>
      <point x="148" y="396"/>
      <point x="183" y="387"/>
    </contour>
  </outline>
</glyph>
<glyph name="cent" format="1">
  <advance width="485"/>
  <unicode hex="00A2"/>
  <outline>
    <contour>
      <point x="458" y="187" type="qcurve"/>
      <point x="442" y="132"/>
      <point x="313" y="45"/>
      <point x="229" y="45" type="qcurve" smooth="yes"/>
      <point x="218" y="45"/>
      <point x="198" y="47"/>
      <point x="188" y="48" type="qcurve"/>
      <point x="179" y="18"/>
      <point x="158" y="-36"/>
      <point x="147" y="-58" type="qcurve"/>
      <point x="124" y="-56"/>
      <point x="70" y="-37"/>
      <point x="51" y="-24" type="qcurve"/>
      <point x="69" y="4"/>
      <point x="95" y="56"/>
      <point x="105" y="84" type="qcurve"/>
      <point x="69" y="113"/>
      <point x="30" y="210"/>
      <point x="30" y="272" type="qcurve" smooth="yes"/>
      <point x="30" y="412"/>
      <point x="176" y="613"/>
      <point x="288" y="613" type="qcurve" smooth="yes"/>
      <point x="304" y="613"/>
      <point x="332" y="610"/>
      <point x="345" y="607" type="qcurve"/>
      <point x="354" y="636"/>
      <point x="372" y="679"/>
      <point x="382" y="696" type="qcurve"/>
      <point x="402" y="695"/>
      <point x="454" y="677"/>
      <point x="475" y="663" type="qcurve"/>
      <point x="456" y="629"/>
      <point x="433" y="582"/>
      <point x="425" y="560" type="qcurve"/>
      <point x="444" y="538"/>
      <point x="464" y="478"/>
      <point x="464" y="441" type="qcurve"/>
      <point x="439" y="429"/>
      <point x="374" y="417"/>
      <point x="331" y="417" type="qcurve"/>
      <point x="331" y="476"/>
      <point x="305" y="534"/>
      <point x="278" y="534" type="qcurve" smooth="yes"/>
      <point x="238" y="534"/>
      <point x="179" y="378"/>
      <point x="179" y="278" type="qcurve" smooth="yes"/>
      <point x="179" y="210"/>
      <point x="219" y="133"/>
      <point x="256" y="133" type="qcurve" smooth="yes"/>
      <point x="286" y="133"/>
      <point x="347" y="188"/>
      <point x="376" y="241" type="qcurve"/>
      <point x="399" y="236"/>
      <point x="446" y="206"/>
    </contour>
  </outline>
</glyph>
<glyph name="sterling" format="1">
  <advance width="515"/>
  <unicode hex="00A3"/>
  <outline>
    <contour>
      <point x="233" y="-20" type="qcurve" smooth="yes"/>
      <point x="193" y="-14"/>
      <point x="155" y="-11"/>
      <point x="140" y="-11" type="qcurve" smooth="yes"/>
      <point x="116" y="-11"/>
      <point x="73" y="-21"/>
      <point x="39" y="-36" type="qcurve"/>
      <point x="27" y="-17"/>
      <point x="14" y="19"/>
      <point x="13" y="38" type="qcurve"/>
      <point x="42" y="55"/>
      <point x="103" y="77"/>
      <point x="128" y="79" type="qcurve"/>
      <point x="144" y="97"/>
      <point x="160" y="136"/>
      <point x="160" y="160" type="qcurve" smooth="yes"/>
      <point x="160" y="177"/>
      <point x="155" y="205"/>
      <point x="149" y="218" type="qcurve"/>
      <point x="120" y="217"/>
      <point x="57" y="218"/>
      <point x="16" y="219" type="qcurve"/>
      <point x="14" y="244"/>
      <point x="15" y="291"/>
      <point x="18" y="304" type="qcurve"/>
      <point x="28" y="303"/>
      <point x="56" y="303"/>
      <point x="87" y="303" type="qcurve"/>
      <point x="57" y="345"/>
      <point x="29" y="421"/>
      <point x="29" y="461" type="qcurve" smooth="yes"/>
      <point x="29" y="552"/>
      <point x="165" y="673"/>
      <point x="270" y="673" type="qcurve" smooth="yes"/>
      <point x="366" y="673"/>
      <point x="482" y="544"/>
      <point x="488" y="431" type="qcurve"/>
      <point x="459" y="422"/>
      <point x="385" y="420"/>
      <point x="343" y="427" type="qcurve"/>
      <point x="347" y="503"/>
      <point x="308" y="584"/>
      <point x="269" y="584" type="qcurve" smooth="yes"/>
      <point x="229" y="584"/>
      <point x="185" y="513"/>
      <point x="185" y="450" type="qcurve" smooth="yes"/>
      <point x="185" y="414"/>
      <point x="201" y="352"/>
      <point x="224" y="309" type="qcurve"/>
      <point x="289" y="313"/>
      <point x="386" y="324"/>
      <point x="418" y="331" type="qcurve"/>
      <point x="420" y="315"/>
      <point x="422" y="299"/>
      <point x="423" y="292" type="qcurve" smooth="yes"/>
      <point x="423" y="276"/>
      <point x="419" y="247"/>
      <point x="415" y="236" type="qcurve"/>
      <point x="382" y="231"/>
      <point x="303" y="223"/>
      <point x="260" y="221" type="qcurve"/>
      <point x="261" y="210"/>
      <point x="262" y="198"/>
      <point x="262" y="192" type="qcurve" smooth="yes"/>
      <point x="262" y="157"/>
      <point x="236" y="98"/>
      <point x="208" y="71" type="qcurve"/>
      <point x="223" y="68"/>
      <point x="256" y="65"/>
      <point x="277" y="65" type="qcurve" smooth="yes"/>
      <point x="328" y="67"/>
      <point x="435" y="87"/>
      <point x="488" y="106" type="qcurve"/>
      <point x="499" y="78"/>
      <point x="508" y="5"/>
      <point x="504" y="-26" type="qcurve"/>
      <point x="443" y="-34"/>
      <point x="325" y="-33"/>
    </contour>
  </outline>
</glyph>
<glyph name="currency" format="1">
  <advance width="562"/>
  <unicode hex="00A4"/>
  <outline>
    <contour>
      <point x="353" y="371" type="qcurve" smooth="yes"/>
      <point x="353" y="443"/>
      <point x="317" y="515"/>
      <point x="282" y="515" type="qcurve" smooth="yes"/>
      <point x="246" y="515"/>
      <point x="201" y="422"/>
      <point x="201" y="348" type="qcurve" smooth="yes"/>
      <point x="201" y="285"/>
      <point x="243" y="197"/>
      <point x="275" y="197" type="qcurve" smooth="yes"/>
      <point x="309" y="197"/>
      <point x="353" y="300"/>
    </contour>
    <contour>
      <point x="393" y="168" type="qcurve"/>
      <point x="364" y="142"/>
      <point x="291" y="116"/>
      <point x="249" y="116" type="qcurve" smooth="yes"/>
      <point x="220" y="116"/>
      <point x="170" y="130"/>
      <point x="148" y="145" type="qcurve"/>
      <point x="127" y="116"/>
      <point x="88" y="68"/>
      <point x="70" y="51" type="qcurve"/>
      <point x="50" y="59"/>
      <point x="4" y="94"/>
      <point x="-9" y="112" type="qcurve"/>
      <point x="23" y="141"/>
      <point x="70" y="191"/>
      <point x="90" y="219" type="qcurve"/>
      <point x="80" y="243"/>
      <point x="69" y="299"/>
      <point x="69" y="329" type="qcurve" smooth="yes"/>
      <point x="69" y="380"/>
      <point x="96" y="469"/>
      <point x="121" y="504" type="qcurve"/>
      <point x="96" y="527"/>
      <point x="49" y="577"/>
      <point x="32" y="599" type="qcurve"/>
      <point x="42" y="618"/>
      <point x="82" y="659"/>
      <point x="102" y="671" type="qcurve"/>
      <point x="126" y="635"/>
      <point x="165" y="588"/>
      <point x="189" y="565" type="qcurve"/>
      <point x="215" y="580"/>
      <point x="276" y="596"/>
      <point x="309" y="596" type="qcurve" smooth="yes"/>
      <point x="339" y="596"/>
      <point x="393" y="582"/>
      <point x="414" y="568" type="qcurve"/>
      <point x="435" y="598"/>
      <point x="474" y="645"/>
      <point x="492" y="661" type="qcurve"/>
      <point x="511" y="654"/>
      <point x="555" y="619"/>
      <point x="570" y="601" type="qcurve"/>
      <point x="541" y="575"/>
      <point x="494" y="525"/>
      <point x="472" y="496" type="qcurve"/>
      <point x="480" y="478"/>
      <point x="487" y="436"/>
      <point x="487" y="412" type="qcurve" smooth="yes"/>
      <point x="487" y="366"/>
      <point x="466" y="276"/>
      <point x="446" y="239" type="qcurve"/>
      <point x="483" y="207"/>
      <point x="529" y="158"/>
      <point x="545" y="137" type="qcurve"/>
      <point x="534" y="118"/>
      <point x="495" y="79"/>
      <point x="475" y="68" type="qcurve"/>
      <point x="447" y="107"/>
      <point x="413" y="149"/>
    </contour>
  </outline>
</glyph>
<glyph name="yen" format="1">
  <advance width="550"/>
  <unicode hex="00A5"/>
  <outline>
    <contour>
      <point x="322" y="-35" type="qcurve"/>
      <point x="299" y="-41"/>
      <point x="228" y="-50"/>
      <point x="198" y="-50" type="qcurve"/>
      <point x="199" y="-16"/>
      <point x="200" y="61"/>
      <point x="200" y="138" type="qcurve"/>
      <point x="162" y="138"/>
      <point x="85" y="141"/>
      <point x="47" y="143" type="qcurve"/>
      <point x="47" y="168"/>
      <point x="52" y="224"/>
      <point x="56" y="239" type="qcurve"/>
      <point x="85" y="237"/>
      <point x="157" y="234"/>
      <point x="198" y="233" type="qcurve"/>
      <point x="198" y="236"/>
      <point x="198" y="244"/>
      <point x="198" y="252" type="qcurve" smooth="yes"/>
      <point x="197" y="260"/>
      <point x="197" y="268"/>
      <point x="197" y="271" type="qcurve"/>
      <point x="196" y="274"/>
      <point x="191" y="286"/>
      <point x="187" y="296" type="qcurve"/>
      <point x="153" y="295"/>
      <point x="82" y="296"/>
      <point x="44" y="298" type="qcurve"/>
      <point x="43" y="326"/>
      <point x="46" y="379"/>
      <point x="50" y="394" type="qcurve"/>
      <point x="71" y="393"/>
      <point x="118" y="391"/>
      <point x="143" y="391" type="qcurve"/>
      <point x="121" y="436"/>
      <point x="65" y="540"/>
      <point x="20" y="616" type="qcurve"/>
      <point x="31" y="634"/>
      <point x="67" y="661"/>
      <point x="90" y="669" type="qcurve" smooth="yes"/>
      <point x="110" y="676"/>
      <point x="136" y="683"/>
      <point x="148" y="684" type="qcurve"/>
      <point x="186" y="611"/>
      <point x="248" y="456"/>
      <point x="275" y="369" type="qcurve"/>
      <point x="317" y="442"/>
      <point x="380" y="591"/>
      <point x="410" y="690" type="qcurve"/>
      <point x="441" y="684"/>
      <point x="499" y="652"/>
      <point x="527" y="625" type="qcurve"/>
      <point x="498" y="554"/>
      <point x="444" y="448"/>
      <point x="410" y="393" type="qcurve"/>
      <point x="438" y="395"/>
      <point x="488" y="401"/>
      <point x="510" y="405" type="qcurve"/>
      <point x="513" y="394"/>
      <point x="515" y="372"/>
      <point x="515" y="359" type="qcurve" smooth="yes"/>
      <point x="514" y="345"/>
      <point x="506" y="320"/>
      <point x="499" y="310" type="qcurve"/>
      <point x="461" y="304"/>
      <point x="384" y="297"/>
      <point x="347" y="296" type="qcurve"/>
      <point x="343" y="291"/>
      <point x="340" y="286"/>
      <point x="339" y="284" type="qcurve"/>
      <point x="338" y="276"/>
      <point x="338" y="255"/>
      <point x="338" y="235" type="qcurve"/>
      <point x="385" y="237"/>
      <point x="467" y="243"/>
      <point x="499" y="247" type="qcurve"/>
      <point x="501" y="236"/>
      <point x="502" y="216"/>
      <point x="501" y="207" type="qcurve" smooth="yes"/>
      <point x="501" y="194"/>
      <point x="496" y="166"/>
      <point x="491" y="152" type="qcurve"/>
      <point x="452" y="148"/>
      <point x="372" y="142"/>
      <point x="334" y="141" type="qcurve"/>
      <point x="332" y="96"/>
      <point x="326" y="8"/>
    </contour>
  </outline>
</glyph>
<glyph name="brokenbar" format="1">
  <advance width="273"/>
  <unicode hex="00A6"/>
  <outline>
    <contour>
      <point x="197" y="725" type="qcurve"/>
      <point x="192" y="656"/>
      <point x="184" y="472"/>
      <point x="182" y="377" type="qcurve"/>
      <point x="161" y="373"/>
      <point x="108" y="370"/>
      <point x="76" y="371" type="qcurve"/>
      <point x="72" y="466"/>
      <point x="71" y="640"/>
      <point x="74" y="713" type="qcurve"/>
      <point x="103" y="725"/>
      <point x="171" y="732"/>
    </contour>
    <contour>
      <point x="182" y="-159" type="qcurve"/>
      <point x="164" y="-165"/>
      <point x="113" y="-170"/>
      <point x="94" y="-168" type="qcurve"/>
      <point x="89" y="-97"/>
      <point x="82" y="86"/>
      <point x="79" y="220" type="qcurve"/>
      <point x="102" y="223"/>
      <point x="154" y="223"/>
      <point x="181" y="219" type="qcurve"/>
      <point x="180" y="119"/>
      <point x="180" y="-84"/>
    </contour>
  </outline>
</glyph>
<glyph name="copyright" format="1">
  <advance width="823"/>
  <unicode hex="00A9"/>
  <outline>
    <contour>
      <point x="435" y="704" type="qcurve" smooth="yes"/>
      <point x="598" y="704"/>
      <point x="791" y="494"/>
      <point x="791" y="328" type="qcurve" smooth="yes"/>
      <point x="791" y="144"/>
      <point x="586" y="-66"/>
      <point x="405" y="-66" type="qcurve" smooth="yes"/>
      <point x="235" y="-66"/>
      <point x="32" y="135"/>
      <point x="32" y="305" type="qcurve" smooth="yes"/>
      <point x="32" y="476"/>
      <point x="261" y="704"/>
    </contour>
    <contour>
      <point x="413" y="17" type="qcurve" smooth="yes"/>
      <point x="541" y="17"/>
      <point x="686" y="183"/>
      <point x="686" y="330" type="qcurve" smooth="yes"/>
      <point x="686" y="465"/>
      <point x="546" y="620"/>
      <point x="423" y="620" type="qcurve" smooth="yes"/>
      <point x="300" y="620"/>
      <point x="136" y="445"/>
      <point x="136" y="312" type="qcurve" smooth="yes"/>
      <point x="136" y="175"/>
      <point x="284" y="17"/>
    </contour>
    <contour>
      <point x="477" y="271" type="qcurve"/>
      <point x="501" y="273"/>
      <point x="552" y="264"/>
      <point x="563" y="256" type="qcurve"/>
      <point x="559" y="192"/>
      <point x="472" y="120"/>
      <point x="397" y="120" type="qcurve" smooth="yes"/>
      <point x="325" y="120"/>
      <point x="245" y="206"/>
      <point x="245" y="286" type="qcurve" smooth="yes"/>
      <point x="245" y="388"/>
      <point x="360" y="527"/>
      <point x="447" y="527" type="qcurve"/>
      <point x="501" y="527"/>
      <point x="566" y="463"/>
      <point x="571" y="405" type="qcurve"/>
      <point x="542" y="392"/>
      <point x="500" y="385"/>
      <point x="465" y="385" type="qcurve"/>
      <point x="465" y="422"/>
      <point x="445" y="462"/>
      <point x="428" y="462" type="qcurve"/>
      <point x="403" y="462"/>
      <point x="370" y="375"/>
      <point x="370" y="313" type="qcurve" smooth="yes"/>
      <point x="370" y="253"/>
      <point x="399" y="189"/>
      <point x="427" y="189" type="qcurve" smooth="yes"/>
      <point x="455" y="189"/>
      <point x="482" y="233"/>
    </contour>
  </outline>
</glyph>
<glyph name="ordfeminine" format="1">
  <advance width="315"/>
  <unicode hex="00AA"/>
  <outline>
    <contour>
      <point x="294" y="614" type="qcurve" smooth="yes"/>
      <point x="294" y="579"/>
      <point x="274" y="461"/>
      <point x="258" y="393" type="qcurve"/>
      <point x="239" y="393"/>
      <point x="194" y="398"/>
      <point x="171" y="402" type="qcurve"/>
      <point x="172" y="407"/>
      <point x="173" y="417"/>
      <point x="174" y="427" type="qcurve"/>
      <point x="162" y="422"/>
      <point x="133" y="416"/>
      <point x="116" y="416" type="qcurve" smooth="yes"/>
      <point x="68" y="416"/>
      <point x="11" y="462"/>
      <point x="11" y="501" type="qcurve" smooth="yes"/>
      <point x="11" y="540"/>
      <point x="78" y="580"/>
      <point x="144" y="580" type="qcurve" smooth="yes"/>
      <point x="167" y="580"/>
      <point x="182" y="580"/>
      <point x="186" y="579" type="qcurve"/>
      <point x="186" y="632"/>
      <point x="173" y="671"/>
      <point x="157" y="671" type="qcurve" smooth="yes"/>
      <point x="143" y="671"/>
      <point x="123" y="635"/>
      <point x="122" y="606" type="qcurve"/>
      <point x="90" y="610"/>
      <point x="46" y="629"/>
      <point x="32" y="646" type="qcurve"/>
      <point x="52" y="687"/>
      <point x="118" y="728"/>
      <point x="166" y="728" type="qcurve" smooth="yes"/>
      <point x="229" y="728"/>
      <point x="294" y="670"/>
    </contour>
    <contour>
      <point x="124" y="494" type="qcurve" smooth="yes"/>
      <point x="124" y="480"/>
      <point x="138" y="466"/>
      <point x="152" y="466" type="qcurve" smooth="yes"/>
      <point x="161" y="466"/>
      <point x="174" y="469"/>
      <point x="180" y="473" type="qcurve"/>
      <point x="182" y="497"/>
      <point x="185" y="527"/>
      <point x="185" y="534" type="qcurve"/>
      <point x="154" y="533"/>
      <point x="124" y="513"/>
    </contour>
  </outline>
</glyph>
<glyph name="guillemotleft" format="1">
  <advance width="549"/>
  <unicode hex="00AB"/>
  <outline>
    <contour>
      <point x="532" y="120" type="qcurve"/>
      <point x="514" y="90"/>
      <point x="473" y="53"/>
      <point x="444" y="40" type="qcurve"/>
      <point x="376" y="95"/>
      <point x="284" y="204"/>
      <point x="254" y="265" type="qcurve"/>
      <point x="314" y="310"/>
      <point x="404" y="411"/>
      <point x="442" y="475" type="qcurve"/>
      <point x="470" y="461"/>
      <point x="519" y="422"/>
      <point x="532" y="402" type="qcurve"/>
      <point x="491" y="353"/>
      <point x="418" y="284"/>
      <point x="377" y="256" type="qcurve"/>
      <point x="409" y="217"/>
      <point x="484" y="152"/>
    </contour>
    <contour>
      <point x="285" y="120" type="qcurve"/>
      <point x="267" y="90"/>
      <point x="226" y="53"/>
      <point x="197" y="40" type="qcurve"/>
      <point x="129" y="95"/>
      <point x="37" y="204"/>
      <point x="7" y="265" type="qcurve"/>
      <point x="67" y="310"/>
      <point x="157" y="411"/>
      <point x="195" y="475" type="qcurve"/>
      <point x="223" y="461"/>
      <point x="272" y="422"/>
      <point x="285" y="402" type="qcurve"/>
      <point x="244" y="353"/>
      <point x="171" y="284"/>
      <point x="130" y="256" type="qcurve"/>
      <point x="162" y="217"/>
      <point x="237" y="152"/>
    </contour>
  </outline>
</glyph>
<glyph name="macron" format="1">
  <advance width="259"/>
  <unicode hex="00AF"/>
  <outline>
    <contour>
      <point x="242" y="626" type="qcurve"/>
      <point x="168" y="614"/>
      <point x="48" y="618"/>
      <point x="17" y="632" type="qcurve"/>
      <point x="15" y="648"/>
      <point x="16" y="697"/>
      <point x="19" y="712" type="qcurve"/>
      <point x="80" y="702"/>
      <point x="184" y="699"/>
      <point x="242" y="705" type="qcurve"/>
      <point x="244" y="686"/>
      <point x="244" y="646"/>
    </contour>
    <contour>
      <point x="127" y="560" type="move" name="_top"/>
    </contour>
  </outline>
</glyph>
<glyph name="degree" format="1">
  <advance width="268"/>
  <unicode hex="00B0"/>
  <outline>
    <contour>
      <point x="10" y="630" type="qcurve" smooth="yes"/>
      <point x="10" y="684"/>
      <point x="81" y="747"/>
      <point x="144" y="747" type="qcurve" smooth="yes"/>
      <point x="197" y="747"/>
      <point x="258" y="693"/>
      <point x="258" y="648" type="qcurve" smooth="yes"/>
      <point x="258" y="584"/>
      <point x="191" y="515"/>
      <point x="128" y="515" type="qcurve" smooth="yes"/>
      <point x="74" y="515"/>
      <point x="10" y="578"/>
    </contour>
    <contour>
      <point x="179" y="639" type="qcurve" smooth="yes"/>
      <point x="179" y="667"/>
      <point x="157" y="697"/>
      <point x="137" y="697" type="qcurve" smooth="yes"/>
      <point x="115" y="697"/>
      <point x="88" y="659"/>
      <point x="88" y="628" type="qcurve" smooth="yes"/>
      <point x="88" y="600"/>
      <point x="111" y="569"/>
      <point x="132" y="569" type="qcurve" smooth="yes"/>
      <point x="153" y="569"/>
      <point x="179" y="608"/>
    </contour>
  </outline>
</glyph>
<glyph name="threesuperior" format="1">
  <advance width="364"/>
  <unicode hex="00B3"/>
  <outline>
    <contour>
      <point x="347" y="413" type="qcurve" smooth="yes"/>
      <point x="347" y="350"/>
      <point x="251" y="267"/>
      <point x="178" y="267" type="qcurve" smooth="yes"/>
      <point x="109" y="267"/>
      <point x="27" y="337"/>
      <point x="23" y="401" type="qcurve"/>
      <point x="45" y="411"/>
      <point x="101" y="421"/>
      <point x="135" y="421" type="qcurve"/>
      <point x="135" y="379"/>
      <point x="163" y="331"/>
      <point x="185" y="331" type="qcurve" smooth="yes"/>
      <point x="203" y="331"/>
      <point x="222" y="360"/>
      <point x="222" y="389" type="qcurve" smooth="yes"/>
      <point x="222" y="436"/>
      <point x="164" y="486"/>
      <point x="115" y="478" type="qcurve"/>
      <point x="111" y="492"/>
      <point x="106" y="526"/>
      <point x="105" y="541" type="qcurve"/>
      <point x="137" y="556"/>
      <point x="195" y="596"/>
      <point x="219" y="620" type="qcurve"/>
      <point x="168" y="616"/>
      <point x="78" y="604"/>
      <point x="36" y="595" type="qcurve"/>
      <point x="30" y="611"/>
      <point x="24" y="657"/>
      <point x="24" y="682" type="qcurve"/>
      <point x="78" y="698"/>
      <point x="247" y="719"/>
      <point x="324" y="720" type="qcurve"/>
      <point x="332" y="700"/>
      <point x="341" y="651"/>
      <point x="341" y="624" type="qcurve"/>
      <point x="313" y="593"/>
      <point x="266" y="552"/>
      <point x="233" y="529" type="qcurve"/>
      <point x="288" y="517"/>
      <point x="347" y="456"/>
    </contour>
  </outline>
</glyph>
<glyph name="uni00B5" format="1">
  <advance width="520"/>
  <unicode hex="00B5"/>
  <outline>
    <contour>
      <point x="132" y="26" type="qcurve"/>
      <point x="139" y="-37"/>
      <point x="164" y="-157"/>
      <point x="179" y="-204" type="qcurve"/>
      <point x="166" y="-207"/>
      <point x="143" y="-210"/>
      <point x="126" y="-210" type="qcurve" smooth="yes"/>
      <point x="102" y="-210"/>
      <point x="59" y="-201"/>
      <point x="43" y="-192" type="qcurve"/>
      <point x="37" y="-96"/>
      <point x="32" y="65"/>
      <point x="34" y="151" type="qcurve" smooth="yes"/>
      <point x="35" y="232"/>
      <point x="56" y="406"/>
      <point x="79" y="519" type="qcurve"/>
      <point x="109" y="518"/>
      <point x="181" y="510"/>
      <point x="222" y="502" type="qcurve"/>
      <point x="205" y="409"/>
      <point x="187" y="249"/>
      <point x="187" y="191" type="qcurve" smooth="yes"/>
      <point x="187" y="148"/>
      <point x="209" y="109"/>
      <point x="234" y="109" type="qcurve" smooth="yes"/>
      <point x="260" y="109"/>
      <point x="310" y="166"/>
      <point x="328" y="217" type="qcurve"/>
      <point x="332" y="309"/>
      <point x="332" y="482"/>
      <point x="327" y="553" type="qcurve"/>
      <point x="348" y="560"/>
      <point x="421" y="569"/>
      <point x="452" y="569" type="qcurve"/>
      <point x="464" y="464"/>
      <point x="482" y="123"/>
      <point x="482" y="6" type="qcurve"/>
      <point x="464" y="-2"/>
      <point x="403" y="-12"/>
      <point x="371" y="-12" type="qcurve" smooth="yes"/>
      <point x="354" y="-12"/>
      <point x="326" y="-9"/>
      <point x="312" y="-6" type="qcurve"/>
      <point x="314" y="13"/>
      <point x="319" y="60"/>
      <point x="321" y="89" type="qcurve"/>
      <point x="294" y="44"/>
      <point x="232" y="-2"/>
      <point x="198" y="-2" type="qcurve" smooth="yes"/>
      <point x="177" y="-2"/>
      <point x="144" y="12"/>
    </contour>
  </outline>
</glyph>
<glyph name="paragraph" format="1">
  <advance width="706"/>
  <unicode hex="00B6"/>
  <outline>
    <contour>
      <point x="640" y="695" type="qcurve"/>
      <point x="643" y="484"/>
      <point x="623" y="-97"/>
      <point x="604" y="-287" type="qcurve"/>
      <point x="576" y="-294"/>
      <point x="535" y="-300"/>
      <point x="514" y="-300" type="qcurve"/>
      <point x="526" y="-118"/>
      <point x="540" y="113"/>
      <point x="542" y="162" type="qcurve" smooth="yes"/>
      <point x="546" y="274"/>
      <point x="547" y="500"/>
      <point x="544" y="626" type="qcurve"/>
      <point x="526" y="631"/>
      <point x="502" y="637"/>
      <point x="492" y="639" type="qcurve"/>
      <point x="495" y="435"/>
      <point x="474" y="-8"/>
      <point x="449" y="-287" type="qcurve"/>
      <point x="433" y="-292"/>
      <point x="389" y="-297"/>
      <point x="360" y="-296" type="qcurve"/>
      <point x="361" y="-285"/>
      <point x="386" y="131"/>
      <point x="386" y="210" type="qcurve"/>
      <point x="217" y="259"/>
      <point x="50" y="425"/>
      <point x="50" y="543" type="qcurve" smooth="yes"/>
      <point x="50" y="642"/>
      <point x="202" y="760"/>
      <point x="330" y="760" type="qcurve" smooth="yes"/>
      <point x="401" y="760"/>
      <point x="523" y="736"/>
    </contour>
  </outline>
</glyph>
<glyph name="guillemotright" format="1">
  <advance width="549"/>
  <unicode hex="00BB"/>
  <outline>
    <contour>
      <point x="541" y="265" type="qcurve"/>
      <point x="511" y="204"/>
      <point x="419" y="95"/>
      <point x="351" y="40" type="qcurve"/>
      <point x="322" y="53"/>
      <point x="281" y="90"/>
      <point x="263" y="120" type="qcurve"/>
      <point x="311" y="152"/>
      <point x="386" y="217"/>
      <point x="418" y="256" type="qcurve"/>
      <point x="376" y="285"/>
      <point x="302" y="355"/>
      <point x="262" y="402" type="qcurve"/>
      <point x="275" y="421"/>
      <point x="326" y="461"/>
      <point x="357" y="477" type="qcurve"/>
      <point x="399" y="409"/>
      <point x="486" y="309"/>
    </contour>
    <contour>
      <point x="294" y="265" type="qcurve"/>
      <point x="264" y="204"/>
      <point x="172" y="95"/>
      <point x="104" y="40" type="qcurve"/>
      <point x="75" y="53"/>
      <point x="34" y="90"/>
      <point x="16" y="120" type="qcurve"/>
      <point x="64" y="152"/>
      <point x="139" y="217"/>
      <point x="171" y="256" type="qcurve"/>
      <point x="129" y="285"/>
      <point x="55" y="355"/>
      <point x="15" y="402" type="qcurve"/>
      <point x="28" y="421"/>
      <point x="79" y="461"/>
      <point x="110" y="477" type="qcurve"/>
      <point x="152" y="409"/>
      <point x="239" y="309"/>
    </contour>
  </outline>
</glyph>
<glyph name="questiondown" format="1">
  <advance width="453"/>
  <unicode hex="00BF"/>
  <outline>
    <contour>
      <point x="189" y="428" type="qcurve"/>
      <point x="184" y="488"/>
      <point x="179" y="536"/>
      <point x="177" y="559" type="qcurve"/>
      <point x="192" y="562"/>
      <point x="220" y="566"/>
      <point x="246" y="567" type="qcurve" smooth="yes"/>
      <point x="267" y="567"/>
      <point x="305" y="560"/>
      <point x="319" y="554" type="qcurve"/>
      <point x="322" y="522"/>
      <point x="323" y="460"/>
      <point x="321" y="426" type="qcurve"/>
      <point x="301" y="426"/>
      <point x="262" y="426"/>
    </contour>
    <contour>
      <point x="468" y="5" type="qcurve"/>
      <point x="462" y="-101"/>
      <point x="347" y="-211"/>
      <point x="243" y="-211" type="qcurve" smooth="yes"/>
      <point x="150" y="-211"/>
      <point x="26" y="-102"/>
      <point x="26" y="-19" type="qcurve" smooth="yes"/>
      <point x="26" y="53"/>
      <point x="120" y="157"/>
      <point x="204" y="177" type="qcurve"/>
      <point x="204" y="189"/>
      <point x="205" y="217"/>
      <point x="205" y="246" type="qcurve" smooth="yes"/>
      <point x="205" y="275"/>
      <point x="206" y="304"/>
      <point x="206" y="316" type="qcurve"/>
      <point x="226" y="321"/>
      <point x="286" y="327"/>
      <point x="314" y="326" type="qcurve"/>
      <point x="323" y="270"/>
      <point x="333" y="184"/>
      <point x="334" y="151" type="qcurve"/>
      <point x="260" y="136"/>
      <point x="181" y="48"/>
      <point x="181" y="-19" type="qcurve" smooth="yes"/>
      <point x="181" y="-70"/>
      <point x="217" y="-128"/>
      <point x="249" y="-128" type="qcurve" smooth="yes"/>
      <point x="286" y="-128"/>
      <point x="331" y="-43"/>
      <point x="331" y="30" type="qcurve"/>
      <point x="373" y="30"/>
      <point x="440" y="18"/>
    </contour>
  </outline>
</glyph>
<glyph name="Thorn" format="1">
  <advance width="594"/>
  <unicode hex="00DE"/>
  <outline>
    <contour>
      <point x="214" y="72" type="qcurve"/>
      <point x="215" y="55"/>
      <point x="217" y="15"/>
      <point x="222" y="-68" type="qcurve"/>
      <point x="190" y="-69"/>
      <point x="119" y="-64"/>
      <point x="93" y="-59" type="qcurve"/>
      <point x="76" y="112"/>
      <point x="61" y="389"/>
      <point x="61" y="538" type="qcurve" smooth="yes"/>
      <point x="61" y="573"/>
      <point x="65" y="665"/>
      <point x="68" y="703" type="qcurve"/>
      <point x="109" y="709"/>
      <point x="194" y="703"/>
      <point x="230" y="693" type="qcurve"/>
      <point x="227" y="667"/>
      <point x="223" y="614"/>
      <point x="221" y="588" type="qcurve"/>
      <point x="242" y="591"/>
      <point x="284" y="594"/>
      <point x="305" y="594" type="qcurve" smooth="yes"/>
      <point x="427" y="594"/>
      <point x="560" y="491"/>
      <point x="560" y="399" type="qcurve" smooth="yes"/>
      <point x="560" y="290"/>
      <point x="380" y="121"/>
    </contour>
    <contour>
      <point x="215" y="496" type="qcurve"/>
      <point x="212" y="438"/>
      <point x="209" y="324"/>
      <point x="209" y="268" type="qcurve" smooth="yes"/>
      <point x="209" y="228"/>
      <point x="209" y="188"/>
      <point x="210" y="171" type="qcurve"/>
      <point x="307" y="195"/>
      <point x="405" y="297"/>
      <point x="405" y="373" type="qcurve" smooth="yes"/>
      <point x="405" y="436"/>
      <point x="341" y="505"/>
      <point x="280" y="505" type="qcurve" smooth="yes"/>
      <point x="266" y="505"/>
      <point x="235" y="501"/>
    </contour>
  </outline>
</glyph>
<glyph name="divide" format="1">
  <advance width="445"/>
  <unicode hex="00F7"/>
  <outline>
    <contour>
      <point x="319" y="549" type="qcurve"/>
      <point x="317" y="509"/>
      <point x="312" y="448"/>
      <point x="307" y="418" type="qcurve"/>
      <point x="272" y="414"/>
      <point x="209" y="414"/>
      <point x="173" y="418" type="qcurve"/>
      <point x="169" y="464"/>
      <point x="167" y="515"/>
      <point x="167" y="544" type="qcurve"/>
      <point x="207" y="553"/>
      <point x="281" y="555"/>
    </contour>
    <contour>
      <point x="29" y="282" type="qcurve"/>
      <point x="29" y="307"/>
      <point x="32" y="350"/>
      <point x="36" y="375" type="qcurve"/>
      <point x="124" y="364"/>
      <point x="309" y="363"/>
      <point x="415" y="374" type="qcurve"/>
      <point x="415" y="349"/>
      <point x="408" y="303"/>
      <point x="402" y="282" type="qcurve"/>
      <point x="318" y="269"/>
      <point x="115" y="269"/>
    </contour>
    <contour>
      <point x="312" y="217" type="qcurve"/>
      <point x="311" y="179"/>
      <point x="305" y="117"/>
      <point x="300" y="86" type="qcurve"/>
      <point x="265" y="82"/>
      <point x="202" y="82"/>
      <point x="166" y="86" type="qcurve"/>
      <point x="162" y="132"/>
      <point x="160" y="183"/>
      <point x="160" y="212" type="qcurve"/>
      <point x="200" y="221"/>
      <point x="275" y="223"/>
    </contour>
  </outline>
</glyph>
<glyph name="oslash" format="1">
  <advance width="510"/>
  <unicode hex="00F8"/>
  <outline>
    <contour>
      <point x="254" y="455" type="qcurve" smooth="yes"/>
      <point x="220" y="455"/>
      <point x="173" y="342"/>
      <point x="173" y="257" type="qcurve" smooth="yes"/>
      <point x="173" y="242"/>
      <point x="173" y="227"/>
      <point x="174" y="221" type="qcurve"/>
      <point x="191" y="250"/>
      <point x="228" y="316"/>
      <point x="295" y="437" type="qcurve"/>
      <point x="287" y="446"/>
      <point x="266" y="455"/>
    </contour>
    <contour>
      <point x="213" y="98" type="qcurve"/>
      <point x="221" y="89"/>
      <point x="239" y="80"/>
      <point x="249" y="80" type="qcurve" smooth="yes"/>
      <point x="282" y="80"/>
      <point x="327" y="201"/>
      <point x="327" y="283" type="qcurve"/>
      <point x="327" y="283"/>
      <point x="327" y="289"/>
      <point x="327" y="294" type="qcurve"/>
      <point x="301" y="248"/>
      <point x="245" y="151"/>
    </contour>
    <contour>
      <point x="477" y="333" type="qcurve" smooth="yes"/>
      <point x="477" y="187"/>
      <point x="337" y="-10"/>
      <point x="218" y="-10" type="qcurve" smooth="yes"/>
      <point x="201" y="-10"/>
      <point x="169" y="-5"/>
      <point x="153" y="1" type="qcurve"/>
      <point x="149" y="-5"/>
      <point x="141" y="-19"/>
      <point x="132" y="-33" type="qcurve" smooth="yes"/>
      <point x="123" y="-47"/>
      <point x="115" y="-61"/>
      <point x="111" y="-67" type="qcurve"/>
      <point x="94" y="-62"/>
      <point x="56" y="-40"/>
      <point x="34" y="-22" type="qcurve"/>
      <point x="53" y="10"/>
      <point x="71" y="42"/>
      <point x="79" y="55" type="qcurve"/>
      <point x="54" y="87"/>
      <point x="27" y="180"/>
      <point x="27" y="236" type="qcurve" smooth="yes"/>
      <point x="27" y="373"/>
      <point x="172" y="546"/>
      <point x="287" y="546" type="qcurve" smooth="yes"/>
      <point x="303" y="546"/>
      <point x="334" y="542"/>
      <point x="349" y="538" type="qcurve"/>
      <point x="363" y="563"/>
      <point x="376" y="588"/>
      <point x="382" y="599" type="qcurve"/>
      <point x="408" y="588"/>
      <point x="441" y="565"/>
      <point x="461" y="546" type="qcurve"/>
      <point x="458" y="541"/>
      <point x="452" y="528"/>
      <point x="446" y="516" type="qcurve" smooth="yes"/>
      <point x="439" y="504"/>
      <point x="433" y="491"/>
      <point x="430" y="486" type="qcurve"/>
      <point x="453" y="457"/>
      <point x="477" y="380"/>
    </contour>
  </outline>
</glyph>
<glyph name="thorn" format="1">
  <advance width="518"/>
  <unicode hex="00FE"/>
  <outline>
    <contour>
      <point x="200" y="105" type="qcurve"/>
      <point x="210" y="100"/>
      <point x="226" y="95"/>
      <point x="235" y="95" type="qcurve" smooth="yes"/>
      <point x="279" y="95"/>
      <point x="341" y="244"/>
      <point x="341" y="355" type="qcurve" smooth="yes"/>
      <point x="341" y="403"/>
      <point x="313" y="454"/>
      <point x="286" y="454" type="qcurve" smooth="yes"/>
      <point x="258" y="454"/>
      <point x="214" y="405"/>
      <point x="200" y="357" type="qcurve"/>
      <point x="199" y="295"/>
      <point x="199" y="167"/>
    </contour>
    <contour>
      <point x="203" y="12" type="qcurve"/>
      <point x="206" y="-58"/>
      <point x="212" y="-167"/>
      <point x="216" y="-210" type="qcurve"/>
      <point x="195" y="-218"/>
      <point x="122" y="-229"/>
      <point x="91" y="-229" type="qcurve"/>
      <point x="64" y="27"/>
      <point x="47" y="526"/>
      <point x="60" y="717" type="qcurve"/>
      <point x="81" y="732"/>
      <point x="132" y="748"/>
      <point x="158" y="748" type="qcurve" smooth="yes"/>
      <point x="178" y="748"/>
      <point x="212" y="743"/>
      <point x="229" y="737" type="qcurve"/>
      <point x="220" y="683"/>
      <point x="207" y="546"/>
      <point x="204" y="471" type="qcurve"/>
      <point x="232" y="517"/>
      <point x="307" y="566"/>
      <point x="351" y="566" type="qcurve" smooth="yes"/>
      <point x="416" y="566"/>
      <point x="491" y="461"/>
      <point x="491" y="370" type="qcurve" smooth="yes"/>
      <point x="491" y="212"/>
      <point x="346" y="10"/>
      <point x="237" y="10" type="qcurve" smooth="yes"/>
      <point x="230" y="10"/>
      <point x="214" y="11"/>
    </contour>
  </outline>
</glyph>
<glyph name="Lslash" format="1">
  <advance width="505"/>
  <unicode hex="0141"/>
  <outline>
    <contour>
      <point x="507" y="-72" type="qcurve"/>
      <point x="407" y="-73"/>
      <point x="235" y="-86"/>
      <point x="118" y="-102" type="qcurve"/>
      <point x="110" y="-45"/>
      <point x="95" y="72"/>
      <point x="90" y="129" type="qcurve"/>
      <point x="75" y="120"/>
      <point x="38" y="97"/>
      <point x="1" y="75" type="qcurve"/>
      <point x="-19" y="94"/>
      <point x="-42" y="131"/>
      <point x="-52" y="159" type="qcurve"/>
      <point x="-18" y="179"/>
      <point x="48" y="221"/>
      <point x="80" y="243" type="qcurve"/>
      <point x="70" y="359"/>
      <point x="62" y="571"/>
      <point x="63" y="656" type="qcurve"/>
      <point x="94" y="666"/>
      <point x="159" y="675"/>
      <point x="194" y="675" type="qcurve" smooth="yes"/>
      <point x="204" y="675"/>
      <point x="226" y="673"/>
      <point x="235" y="672" type="qcurve"/>
      <point x="228" y="619"/>
      <point x="221" y="467"/>
      <point x="221" y="372" type="qcurve" smooth="yes"/>
      <point x="221" y="364"/>
      <point x="221" y="349"/>
      <point x="221" y="341" type="qcurve"/>
      <point x="260" y="369"/>
      <point x="338" y="428"/>
      <point x="380" y="460" type="qcurve"/>
      <point x="397" y="446"/>
      <point x="428" y="398"/>
      <point x="438" y="369" type="qcurve"/>
      <point x="391" y="333"/>
      <point x="287" y="259"/>
      <point x="224" y="216" type="qcurve"/>
      <point x="227" y="156"/>
      <point x="235" y="58"/>
      <point x="242" y="15" type="qcurve"/>
      <point x="300" y="29"/>
      <point x="431" y="44"/>
      <point x="490" y="44" type="qcurve"/>
      <point x="496" y="24"/>
      <point x="507" y="-47"/>
    </contour>
  </outline>
</glyph>
<glyph name="lslash" format="1">
  <advance width="269"/>
  <unicode hex="0142"/>
  <outline>
    <contour>
      <point x="207" y="-46" type="qcurve"/>
      <point x="189" y="-52"/>
      <point x="110" y="-61"/>
      <point x="79" y="-61" type="qcurve"/>
      <point x="73" y="16"/>
      <point x="65" y="136"/>
      <point x="63" y="189" type="qcurve"/>
      <point x="54" y="183"/>
      <point x="34" y="169"/>
      <point x="13" y="156" type="qcurve" smooth="yes"/>
      <point x="1" y="148"/>
      <point x="-12" y="140"/>
      <point x="-17" y="136" type="qcurve"/>
      <point x="-37" y="154"/>
      <point x="-62" y="191"/>
      <point x="-73" y="219" type="qcurve"/>
      <point x="-67" y="223"/>
      <point x="29" y="290"/>
      <point x="57" y="311" type="qcurve"/>
      <point x="53" y="431"/>
      <point x="52" y="631"/>
      <point x="54" y="717" type="qcurve"/>
      <point x="72" y="728"/>
      <point x="122" y="742"/>
      <point x="149" y="742" type="qcurve" smooth="yes"/>
      <point x="168" y="742"/>
      <point x="204" y="737"/>
      <point x="223" y="732" type="qcurve"/>
      <point x="218" y="678"/>
      <point x="210" y="522"/>
      <point x="207" y="423" type="qcurve"/>
      <point x="212" y="427"/>
      <point x="276" y="477"/>
      <point x="295" y="493" type="qcurve"/>
      <point x="312" y="479"/>
      <point x="344" y="431"/>
      <point x="354" y="403" type="qcurve"/>
      <point x="316" y="373"/>
      <point x="242" y="316"/>
      <point x="205" y="290" type="qcurve"/>
      <point x="204" y="177"/>
      <point x="205" y="14"/>
    </contour>
  </outline>
</glyph>
<glyph name="oe" format="1">
  <advance width="798"/>
  <unicode hex="0153"/>
  <outline>
    <contour>
      <point x="477" y="306" type="qcurve"/>
      <point x="497" y="300"/>
      <point x="539" y="294"/>
      <point x="557" y="294" type="qcurve" smooth="yes"/>
      <point x="567" y="294"/>
      <point x="589" y="296"/>
      <point x="594" y="297" type="qcurve"/>
      <point x="601" y="323"/>
      <point x="608" y="368"/>
      <point x="608" y="386" type="qcurve" smooth="yes"/>
      <point x="608" y="415"/>
      <point x="589" y="443"/>
      <point x="569" y="443" type="qcurve" smooth="yes"/>
      <point x="541" y="443"/>
      <point x="492" y="369"/>
    </contour>
    <contour>
      <point x="245" y="60" type="qcurve" smooth="yes"/>
      <point x="278" y="60"/>
      <point x="322" y="180"/>
      <point x="322" y="263" type="qcurve" smooth="yes"/>
      <point x="322" y="351"/>
      <point x="287" y="435"/>
      <point x="250" y="435" type="qcurve" smooth="yes"/>
      <point x="216" y="435"/>
      <point x="168" y="322"/>
      <point x="168" y="237" type="qcurve" smooth="yes"/>
      <point x="168" y="163"/>
      <point x="210" y="60"/>
    </contour>
    <contour>
      <point x="640" y="157" type="qcurve"/>
      <point x="669" y="152"/>
      <point x="729" y="120"/>
      <point x="748" y="99" type="qcurve"/>
      <point x="732" y="46"/>
      <point x="598" y="-43"/>
      <point x="529" y="-43" type="qcurve" smooth="yes"/>
      <point x="474" y="-43"/>
      <point x="391" y="3"/>
      <point x="366" y="48" type="qcurve"/>
      <point x="333" y="9"/>
      <point x="257" y="-29"/>
      <point x="212" y="-29" type="qcurve" smooth="yes"/>
      <point x="124" y="-29"/>
      <point x="22" y="105"/>
      <point x="22" y="217" type="qcurve" smooth="yes"/>
      <point x="22" y="352"/>
      <point x="164" y="526"/>
      <point x="273" y="526" type="qcurve" smooth="yes"/>
      <point x="321" y="526"/>
      <point x="399" y="484"/>
      <point x="426" y="444" type="qcurve"/>
      <point x="460" y="483"/>
      <point x="543" y="525"/>
      <point x="586" y="525" type="qcurve" smooth="yes"/>
      <point x="656" y="525"/>
      <point x="741" y="443"/>
      <point x="741" y="376" type="qcurve" smooth="yes"/>
      <point x="741" y="342"/>
      <point x="728" y="268"/>
      <point x="717" y="240" type="qcurve"/>
      <point x="690" y="228"/>
      <point x="613" y="216"/>
      <point x="560" y="216" type="qcurve" smooth="yes"/>
      <point x="537" y="216"/>
      <point x="489" y="222"/>
      <point x="465" y="228" type="qcurve"/>
      <point x="464" y="214"/>
      <point x="463" y="197"/>
      <point x="463" y="190" type="qcurve" smooth="yes"/>
      <point x="463" y="122"/>
      <point x="504" y="44"/>
      <point x="540" y="44" type="qcurve" smooth="yes"/>
      <point x="568" y="44"/>
      <point x="627" y="114"/>
    </contour>
  </outline>
</glyph>
<glyph name="Uogonek" format="1">
  <advance width="580"/>
  <unicode hex="0172"/>
  <outline>
    <contour>
      <point x="388" y="-226" type="qcurve"/>
      <point x="368" y="-255"/>
      <point x="311" y="-284"/>
      <point x="275" y="-284" type="qcurve" smooth="yes"/>
      <point x="230" y="-284"/>
      <point x="178" y="-239"/>
      <point x="178" y="-200" type="qcurve" smooth="yes"/>
      <point x="178" y="-170"/>
      <point x="215" y="-108"/>
      <point x="251" y="-80" type="qcurve"/>
      <point x="148" y="-77"/>
      <point x="43" y="98"/>
      <point x="43" y="268" type="qcurve" smooth="yes"/>
      <point x="43" y="366"/>
      <point x="76" y="578"/>
      <point x="96" y="624" type="qcurve"/>
      <point x="112" y="628"/>
      <point x="154" y="634"/>
      <point x="173" y="634" type="qcurve" smooth="yes"/>
      <point x="194" y="634"/>
      <point x="227" y="628"/>
      <point x="238" y="623" type="qcurve"/>
      <point x="221" y="541"/>
      <point x="204" y="375"/>
      <point x="204" y="300" type="qcurve" smooth="yes"/>
      <point x="204" y="160"/>
      <point x="243" y="21"/>
      <point x="282" y="21" type="qcurve" smooth="yes"/>
      <point x="329" y="21"/>
      <point x="382" y="191"/>
      <point x="382" y="338" type="qcurve" smooth="yes"/>
      <point x="382" y="420"/>
      <point x="360" y="592"/>
      <point x="338" y="681" type="qcurve"/>
      <point x="368" y="693"/>
      <point x="456" y="708"/>
      <point x="497" y="709" type="qcurve"/>
      <point x="520" y="611"/>
      <point x="539" y="462"/>
      <point x="539" y="394" type="qcurve" smooth="yes"/>
      <point x="539" y="205"/>
      <point x="452" y="-18"/>
      <point x="361" y="-63" type="qcurve" smooth="yes"/>
      <point x="319" y="-84"/>
      <point x="268" y="-149"/>
      <point x="268" y="-179" type="qcurve" smooth="yes"/>
      <point x="268" y="-197"/>
      <point x="285" y="-218"/>
      <point x="299" y="-218" type="qcurve" smooth="yes"/>
      <point x="315" y="-218"/>
      <point x="343" y="-198"/>
      <point x="356" y="-176" type="qcurve"/>
      <point x="365" y="-183"/>
      <point x="380" y="-208"/>
    </contour>
  </outline>
</glyph>
<glyph name="uogonek" format="1">
  <advance width="491"/>
  <unicode hex="0173"/>
  <outline>
    <contour>
      <point x="350" y="-153" type="qcurve"/>
      <point x="330" y="-182"/>
      <point x="272" y="-212"/>
      <point x="237" y="-212" type="qcurve" smooth="yes"/>
      <point x="192" y="-212"/>
      <point x="140" y="-168"/>
      <point x="140" y="-129" type="qcurve" smooth="yes"/>
      <point x="140" y="-99"/>
      <point x="177" y="-38"/>
      <point x="213" y="-10" type="qcurve"/>
      <point x="125" y="-7"/>
      <point x="33" y="136"/>
      <point x="33" y="267" type="qcurve" smooth="yes"/>
      <point x="33" y="338"/>
      <point x="61" y="490"/>
      <point x="77" y="520" type="qcurve"/>
      <point x="93" y="524"/>
      <point x="129" y="529"/>
      <point x="145" y="529" type="qcurve" smooth="yes"/>
      <point x="167" y="529"/>
      <point x="200" y="523"/>
      <point x="209" y="518" type="qcurve"/>
      <point x="197" y="466"/>
      <point x="185" y="349"/>
      <point x="185" y="289" type="qcurve" smooth="yes"/>
      <point x="185" y="195"/>
      <point x="216" y="83"/>
      <point x="244" y="83" type="qcurve" smooth="yes"/>
      <point x="275" y="83"/>
      <point x="308" y="210"/>
      <point x="308" y="321" type="qcurve" smooth="yes"/>
      <point x="308" y="364"/>
      <point x="300" y="457"/>
      <point x="296" y="475" type="qcurve"/>
      <point x="325" y="487"/>
      <point x="409" y="502"/>
      <point x="448" y="502" type="qcurve"/>
      <point x="453" y="477"/>
      <point x="458" y="408"/>
      <point x="458" y="372" type="qcurve" smooth="yes"/>
      <point x="458" y="232"/>
      <point x="391" y="51"/>
      <point x="324" y="14" type="qcurve" smooth="yes"/>
      <point x="280" y="-11"/>
      <point x="230" y="-77"/>
      <point x="230" y="-109" type="qcurve" smooth="yes"/>
      <point x="230" y="-125"/>
      <point x="247" y="-145"/>
      <point x="260" y="-145" type="qcurve" smooth="yes"/>
      <point x="277" y="-145"/>
      <point x="305" y="-125"/>
      <point x="317" y="-104" type="qcurve"/>
      <point x="326" y="-111"/>
      <point x="342" y="-134"/>
    </contour>
  </outline>
</glyph>
<glyph name="circumflex" format="1">
  <advance width="260"/>
  <unicode hex="02C6"/>
  <outline>
    <contour>
      <point x="265" y="623" type="qcurve"/>
      <point x="251" y="605"/>
      <point x="219" y="581"/>
      <point x="200" y="574" type="qcurve"/>
      <point x="174" y="597"/>
      <point x="140" y="633"/>
      <point x="124" y="656" type="qcurve"/>
      <point x="108" y="633"/>
      <point x="71" y="594"/>
      <point x="47" y="572" type="qcurve"/>
      <point x="28" y="579"/>
      <point x="-4" y="604"/>
      <point x="-16" y="619" type="qcurve"/>
      <point x="19" y="651"/>
      <point x="63" y="707"/>
      <point x="80" y="741" type="qcurve"/>
      <point x="88" y="743"/>
      <point x="108" y="745"/>
      <point x="119" y="745" type="qcurve" smooth="yes"/>
      <point x="132" y="745"/>
      <point x="156" y="743"/>
      <point x="167" y="741" type="qcurve"/>
      <point x="181" y="712"/>
      <point x="227" y="656"/>
    </contour>
    <contour>
      <point x="131" y="560" type="move" name="_top"/>
    </contour>
  </outline>
</glyph>
<glyph name="uni02C9" format="1">
  <advance width="259"/>
  <unicode hex="02C9"/>
  <outline>
    <contour>
      <point x="17" y="632" type="qcurve"/>
      <point x="15" y="648"/>
      <point x="16" y="697"/>
      <point x="19" y="712" type="qcurve"/>
      <point x="80" y="702"/>
      <point x="184" y="699"/>
      <point x="242" y="705" type="qcurve"/>
      <point x="244" y="686"/>
      <point x="244" y="646"/>
      <point x="242" y="626" type="qcurve"/>
      <point x="168" y="614"/>
      <point x="48" y="618"/>
    </contour>
  </outline>
</glyph>
<glyph name="dotaccent" format="1">
  <advance width="261"/>
  <unicode hex="02D9"/>
  <outline>
    <contour>
      <point x="146" y="751" type="qcurve" smooth="yes"/>
      <point x="168" y="751"/>
      <point x="207" y="743"/>
      <point x="223" y="735" type="qcurve"/>
      <point x="214" y="715"/>
      <point x="192" y="643"/>
      <point x="186" y="611" type="qcurve"/>
      <point x="163" y="607"/>
      <point x="101" y="604"/>
      <point x="60" y="605" type="qcurve"/>
      <point x="55" y="621"/>
      <point x="50" y="653"/>
      <point x="50" y="669" type="qcurve" smooth="yes"/>
      <point x="50" y="686"/>
      <point x="56" y="721"/>
      <point x="61" y="734" type="qcurve"/>
      <point x="80" y="744"/>
      <point x="121" y="752"/>
    </contour>
    <contour>
      <point x="130" y="560" type="move" name="_top"/>
    </contour>
  </outline>
</glyph>
<glyph name="ring" format="1">
  <advance width="260"/>
  <unicode hex="02DA"/>
  <outline>
    <contour>
      <point x="25" y="663" type="qcurve" smooth="yes"/>
      <point x="25" y="710"/>
      <point x="90" y="768"/>
      <point x="143" y="768" type="qcurve" smooth="yes"/>
      <point x="185" y="768"/>
      <point x="233" y="726"/>
      <point x="233" y="688" type="qcurve" smooth="yes"/>
      <point x="233" y="637"/>
      <point x="169" y="574"/>
      <point x="116" y="574" type="qcurve" smooth="yes"/>
      <point x="75" y="574"/>
      <point x="25" y="623"/>
    </contour>
    <contour>
      <point x="157" y="677" type="qcurve" smooth="yes"/>
      <point x="157" y="702"/>
      <point x="144" y="726"/>
      <point x="131" y="726" type="qcurve" smooth="yes"/>
      <point x="117" y="726"/>
      <point x="99" y="693"/>
      <point x="99" y="666" type="qcurve" smooth="yes"/>
      <point x="99" y="645"/>
      <point x="114" y="619"/>
      <point x="127" y="619" type="qcurve" smooth="yes"/>
      <point x="141" y="619"/>
      <point x="157" y="651"/>
    </contour>
    <contour>
      <point x="130" y="560" type="move" name="_top"/>
    </contour>
  </outline>
</glyph>
<glyph name="ogonek" format="1">
  <advance width="261"/>
  <unicode hex="02DB"/>
  <outline>
    <contour>
      <point x="141" y="8" type="qcurve"/>
      <point x="177" y="-7" type="line"/>
      <point x="146" y="-30"/>
      <point x="113" y="-86"/>
      <point x="113" y="-113" type="qcurve" smooth="yes"/>
      <point x="113" y="-130"/>
      <point x="129" y="-148"/>
      <point x="143" y="-148" type="qcurve" smooth="yes"/>
      <point x="159" y="-148"/>
      <point x="187" y="-128"/>
      <point x="200" y="-107" type="qcurve"/>
      <point x="209" y="-115"/>
      <point x="226" y="-140"/>
      <point x="233" y="-157" type="qcurve"/>
      <point x="212" y="-187"/>
      <point x="155" y="-217"/>
      <point x="119" y="-217" type="qcurve" smooth="yes"/>
      <point x="75" y="-217"/>
      <point x="23" y="-175"/>
      <point x="23" y="-139" type="qcurve" smooth="yes"/>
      <point x="23" y="-98"/>
      <point x="79" y="-28"/>
    </contour>
    <contour>
      <point x="144" y="0" type="move" name="_bottom"/>
    </contour>
  </outline>
</glyph>
<glyph name="tilde" format="1">
  <advance width="260"/>
  <unicode hex="02DC"/>
  <outline>
    <contour>
      <point x="126" y="715" type="qcurve" smooth="yes"/>
      <point x="144" y="706"/>
      <point x="163" y="700"/>
      <point x="172" y="700" type="qcurve" smooth="yes"/>
      <point x="188" y="700"/>
      <point x="201" y="719"/>
      <point x="200" y="738" type="qcurve"/>
      <point x="217" y="739"/>
      <point x="247" y="735"/>
      <point x="259" y="729" type="qcurve"/>
      <point x="263" y="679"/>
      <point x="225" y="621"/>
      <point x="187" y="621" type="qcurve" smooth="yes"/>
      <point x="174" y="621"/>
      <point x="148" y="628"/>
      <point x="126" y="639" type="qcurve" smooth="yes"/>
      <point x="110" y="648"/>
      <point x="93" y="653"/>
      <point x="86" y="653" type="qcurve" smooth="yes"/>
      <point x="71" y="653"/>
      <point x="57" y="635"/>
      <point x="58" y="616" type="qcurve"/>
      <point x="45" y="615"/>
      <point x="12" y="620"/>
      <point x="0" y="624" type="qcurve"/>
      <point x="-4" y="675"/>
      <point x="34" y="732"/>
      <point x="71" y="732" type="qcurve" smooth="yes"/>
      <point x="82" y="732"/>
      <point x="105" y="725"/>
    </contour>
    <contour>
      <point x="130" y="560" type="move" name="_top"/>
    </contour>
  </outline>
</glyph>
<glyph name="bn_chandrabindu" format="1">
  <advance width="0"/>
  <unicode hex="0981"/>
  <outline>
    <contour>
      <point x="6" y="934" type="qcurve" smooth="yes"/>
      <point x="30" y="934"/>
      <point x="62" y="900"/>
      <point x="62" y="875" type="qcurve" smooth="yes"/>
      <point x="62" y="852"/>
      <point x="30" y="820"/>
      <point x="7" y="820" type="qcurve" smooth="yes"/>
      <point x="-16" y="820"/>
      <point x="-48" y="854"/>
      <point x="-48" y="877" type="qcurve" smooth="yes"/>
      <point x="-48" y="901"/>
      <point x="-17" y="934"/>
    </contour>
    <contour>
      <point x="100" y="852" type="qcurve"/>
      <point x="160" y="832" type="line"/>
      <point x="149" y="764"/>
      <point x="55" y="678"/>
      <point x="-7" y="678" type="qcurve" smooth="yes"/>
      <point x="-68" y="678"/>
      <point x="-155" y="753"/>
      <point x="-161" y="810" type="qcurve"/>
      <point x="-75" y="834" type="line"/>
      <point x="-68" y="808"/>
      <point x="-20" y="772"/>
      <point x="8" y="772" type="qcurve" smooth="yes"/>
      <point x="41" y="772"/>
      <point x="89" y="815"/>
    </contour>
    <contour>
      <point x="0" y="665" type="move" name="_chandrabindu"/>
    </contour>
  </outline>
</glyph>
<glyph name="bn_bisarga" format="1">
  <advance width="434"/>
  <unicode hex="0983"/>
  <outline>
    <contour>
      <point x="232" y="630" type="qcurve" smooth="yes"/>
      <point x="297" y="630"/>
      <point x="381" y="548"/>
      <point x="380" y="486" type="qcurve" smooth="yes"/>
      <point x="379" y="418"/>
      <point x="281" y="323"/>
      <point x="211" y="323" type="qcurve" smooth="yes"/>
      <point x="148" y="323"/>
      <point x="64" y="405"/>
      <point x="65" y="466" type="qcurve" smooth="yes"/>
      <point x="66" y="535"/>
      <point x="162" y="630"/>
    </contour>
    <contour>
      <point x="207" y="549" type="qcurve" smooth="yes"/>
      <point x="180" y="549"/>
      <point x="148" y="519"/>
      <point x="148" y="493" type="qcurve" smooth="yes"/>
      <point x="148" y="456"/>
      <point x="201" y="405"/>
      <point x="238" y="405" type="qcurve" smooth="yes"/>
      <point x="265" y="405"/>
      <point x="297" y="436"/>
      <point x="297" y="461" type="qcurve" smooth="yes"/>
      <point x="297" y="498"/>
      <point x="245" y="549"/>
    </contour>
    <contour>
      <point x="228" y="283" type="qcurve" smooth="yes"/>
      <point x="290" y="283"/>
      <point x="373" y="202"/>
      <point x="373" y="141" type="qcurve" smooth="yes"/>
      <point x="373" y="76"/>
      <point x="280" y="-15"/>
      <point x="213" y="-15" type="qcurve" smooth="yes"/>
      <point x="151" y="-15"/>
      <point x="69" y="64"/>
      <point x="69" y="124" type="qcurve" smooth="yes"/>
      <point x="69" y="191"/>
      <point x="161" y="283"/>
    </contour>
    <contour>
      <point x="206" y="201" type="qcurve" smooth="yes"/>
      <point x="180" y="201"/>
      <point x="151" y="173"/>
      <point x="151" y="148" type="qcurve" smooth="yes"/>
      <point x="151" y="114"/>
      <point x="201" y="66"/>
      <point x="237" y="66" type="qcurve" smooth="yes"/>
      <point x="262" y="66"/>
      <point x="291" y="93"/>
      <point x="291" y="117" type="qcurve" smooth="yes"/>
      <point x="291" y="153"/>
      <point x="242" y="201"/>
    </contour>
  </outline>
</glyph>
<glyph name="bn_a" format="1">
  <advance width="700"/>
  <unicode hex="0985"/>
  <note>
    uni0985
  </note>
  <outline>
    <contour>
      <point x="625" y="376" type="qcurve" smooth="yes"/>
      <point x="625" y="262"/>
      <point x="590" y="33"/>
      <point x="562" y="-31" type="qcurve"/>
      <point x="536" y="-31"/>
      <point x="477" y="-20"/>
      <point x="460" y="-12" type="qcurve"/>
      <point x="443" y="16"/>
      <point x="402" y="63"/>
      <point x="379" y="83" type="qcurve"/>
      <point x="362" y="71"/>
      <point x="323" y="60"/>
      <point x="300" y="60" type="qcurve" smooth="yes"/>
      <point x="206" y="60"/>
      <point x="59" y="240"/>
      <point x="8" y="417" type="qcurve"/>
      <point x="28" y="430"/>
      <point x="62" y="447"/>
      <point x="77" y="452" type="qcurve"/>
      <point x="120" y="331"/>
      <point x="232" y="191"/>
      <point x="287" y="191" type="qcurve" smooth="yes"/>
      <point x="326" y="191"/>
      <point x="367" y="247"/>
      <point x="367" y="301" type="qcurve" smooth="yes"/>
      <point x="367" y="350"/>
      <point x="336" y="410"/>
      <point x="310" y="410" type="qcurve" smooth="yes"/>
      <point x="294" y="410"/>
      <point x="277" y="384"/>
      <point x="277" y="361" type="qcurve" smooth="yes"/>
      <point x="277" y="346"/>
      <point x="285" y="317"/>
      <point x="292" y="303" type="qcurve"/>
      <point x="266" y="303"/>
      <point x="208" y="313"/>
      <point x="190" y="321" type="qcurve"/>
      <point x="185" y="336"/>
      <point x="180" y="362"/>
      <point x="180" y="377" type="qcurve" smooth="yes"/>
      <point x="180" y="429"/>
      <point x="239" y="499"/>
      <point x="284" y="499" type="qcurve" smooth="yes"/>
      <point x="357" y="499"/>
      <point x="454" y="353"/>
      <point x="454" y="251" type="qcurve" smooth="yes"/>
      <point x="454" y="222"/>
      <point x="443" y="169"/>
      <point x="433" y="148" type="qcurve"/>
      <point x="447" y="129"/>
      <point x="473" y="87"/>
      <point x="484" y="64" type="qcurve"/>
      <point x="497" y="114"/>
      <point x="509" y="244"/>
      <point x="509" y="334" type="qcurve" smooth="yes"/>
      <point x="509" y="398"/>
      <point x="503" y="497"/>
      <point x="497" y="541" type="qcurve"/>
      <point x="463" y="544"/>
      <point x="397" y="546"/>
      <point x="366" y="546" type="qcurve" smooth="yes"/>
      <point x="271" y="546"/>
      <point x="85" y="530"/>
      <point x="0" y="514" type="qcurve"/>
      <point x="-4" y="528"/>
      <point x="-8" y="559"/>
      <point x="-8" y="574" type="qcurve" smooth="yes"/>
      <point x="-8" y="587"/>
      <point x="-4" y="611"/>
      <point x="0" y="618" type="qcurve"/>
      <point x="75" y="635"/>
      <point x="268" y="654"/>
      <point x="370" y="654" type="qcurve" smooth="yes"/>
      <point x="464" y="654"/>
      <point x="637" y="635"/>
      <point x="700" y="618" type="qcurve"/>
      <point x="704" y="609"/>
      <point x="707" y="585"/>
      <point x="707" y="571" type="qcurve" smooth="yes"/>
      <point x="707" y="556"/>
      <point x="703" y="526"/>
      <point x="700" y="514" type="qcurve"/>
      <point x="680" y="518"/>
      <point x="638" y="525"/>
      <point x="618" y="528" type="qcurve"/>
      <point x="622" y="487"/>
      <point x="625" y="412"/>
    </contour>
    <contour>
      <point x="363" y="690" type="move" name="chandrabindu"/>
    </contour>
  </outline>
</glyph>
<glyph name="bn_u" format="1">
  <advance width="602"/>
  <unicode hex="0989"/>
  <outline>
    <contour>
      <point x="580" y="212" type="qcurve" smooth="yes"/>
      <point x="580" y="100"/>
      <point x="470" y="-31"/>
      <point x="374" y="-31" type="qcurve" smooth="yes"/>
      <point x="249" y="-31"/>
      <point x="70" y="186"/>
      <point x="10" y="419" type="qcurve"/>
      <point x="29" y="431"/>
      <point x="71" y="450"/>
      <point x="93" y="458" type="qcurve"/>
      <point x="147" y="274"/>
      <point x="290" y="93"/>
      <point x="381" y="93" type="qcurve" smooth="yes"/>
      <point x="439" y="93"/>
      <point x="500" y="169"/>
      <point x="500" y="241" type="qcurve" smooth="yes"/>
      <point x="500" y="254"/>
      <point x="499" y="278"/>
      <point x="497" y="290" type="qcurve"/>
      <point x="467" y="251"/>
      <point x="408" y="217"/>
      <point x="374" y="217" type="qcurve" smooth="yes"/>
      <point x="309" y="217"/>
      <point x="222" y="329"/>
      <point x="222" y="403" type="qcurve" smooth="yes"/>
      <point x="222" y="429"/>
      <point x="233" y="503"/>
      <point x="242" y="544" type="qcurve"/>
      <point x="177" y="541"/>
      <point x="55" y="526"/>
      <point x="0" y="514" type="qcurve"/>
      <point x="-4" y="524"/>
      <point x="-8" y="557"/>
      <point x="-8" y="573" type="qcurve" smooth="yes"/>
      <point x="-8" y="589"/>
      <point x="-4" y="611"/>
      <point x="0" y="618" type="qcurve"/>
      <point x="68" y="635"/>
      <point x="220" y="653"/>
      <point x="302" y="653" type="qcurve" smooth="yes"/>
      <point x="364" y="653"/>
      <point x="479" y="643"/>
      <point x="532" y="633" type="qcurve"/>
      <point x="517" y="677"/>
      <point x="467" y="718"/>
      <point x="429" y="718" type="qcurve" smooth="yes"/>
      <point x="413" y="718"/>
      <point x="372" y="713"/>
      <point x="329" y="704" type="qcurve" smooth="yes"/>
      <point x="285" y="695"/>
      <point x="243" y="690"/>
      <point x="226" y="690" type="qcurve" smooth="yes"/>
      <point x="174" y="690"/>
      <point x="90" y="747"/>
      <point x="57" y="804" type="qcurve"/>
      <point x="69" y="822"/>
      <point x="102" y="856"/>
      <point x="123" y="871" type="qcurve"/>
      <point x="149" y="827"/>
      <point x="202" y="788"/>
      <point x="235" y="788" type="qcurve" smooth="yes"/>
      <point x="248" y="788"/>
      <point x="283" y="793"/>
      <point x="323" y="801" type="qcurve" smooth="yes"/>
      <point x="369" y="811"/>
      <point x="413" y="817"/>
      <point x="430" y="817" type="qcurve" smooth="yes"/>
      <point x="496" y="817"/>
      <point x="586" y="711"/>
      <point x="602" y="618" type="qcurve"/>
      <point x="606" y="611"/>
      <point x="611" y="588"/>
      <point x="611" y="575" type="qcurve" smooth="yes"/>
      <point x="611" y="561"/>
      <point x="606" y="527"/>
      <point x="602" y="514" type="qcurve"/>
      <point x="551" y="526"/>
      <point x="430" y="541"/>
      <point x="362" y="544" type="qcurve"/>
      <point x="342" y="486"/>
      <point x="317" y="382"/>
      <point x="317" y="358" type="qcurve" smooth="yes"/>
      <point x="317" y="340"/>
      <point x="333" y="320"/>
      <point x="348" y="320" type="qcurve" smooth="yes"/>
      <point x="364" y="320"/>
      <point x="408" y="369"/>
      <point x="447" y="434" type="qcurve"/>
      <point x="471" y="428"/>
      <point x="520" y="410"/>
      <point x="539" y="400" type="qcurve"/>
      <point x="558" y="361"/>
      <point x="580" y="263"/>
    </contour>
    <contour>
      <point x="300" y="830" type="move" name="chandrabindu"/>
    </contour>
  </outline>
</glyph>
<glyph name="bn_uu" format="1">
  <advance width="669"/>
  <unicode hex="098A"/>
  <outline>
    <contour>
      <point x="648" y="213" type="qcurve" smooth="yes"/>
      <point x="648" y="95"/>
      <point x="528" y="-37"/>
      <point x="419" y="-37" type="qcurve" smooth="yes"/>
      <point x="281" y="-37"/>
      <point x="70" y="180"/>
      <point x="5" y="386" type="qcurve"/>
      <point x="20" y="394"/>
      <point x="53" y="408"/>
      <point x="73" y="415" type="qcurve"/>
      <point x="111" y="299"/>
      <point x="206" y="140"/>
      <point x="267" y="91" type="qcurve"/>
      <point x="222" y="147"/>
      <point x="149" y="311"/>
      <point x="116" y="432" type="qcurve"/>
      <point x="130" y="440"/>
      <point x="165" y="455"/>
      <point x="184" y="461" type="qcurve"/>
      <point x="242" y="254"/>
      <point x="359" y="92"/>
      <point x="443" y="92" type="qcurve" smooth="yes"/>
      <point x="506" y="92"/>
      <point x="569" y="168"/>
      <point x="569" y="244" type="qcurve" smooth="yes"/>
      <point x="569" y="255"/>
      <point x="567" y="279"/>
      <point x="566" y="291" type="qcurve"/>
      <point x="536" y="252"/>
      <point x="477" y="217"/>
      <point x="442" y="217" type="qcurve" smooth="yes"/>
      <point x="378" y="217"/>
      <point x="290" y="331"/>
      <point x="290" y="405" type="qcurve" smooth="yes"/>
      <point x="290" y="426"/>
      <point x="300" y="495"/>
      <point x="309" y="542" type="qcurve"/>
      <point x="223" y="541"/>
      <point x="71" y="528"/>
      <point x="0" y="514" type="qcurve"/>
      <point x="-4" y="524"/>
      <point x="-9" y="558"/>
      <point x="-9" y="573" type="qcurve" smooth="yes"/>
      <point x="-9" y="587"/>
      <point x="-4" y="610"/>
      <point x="0" y="618" type="qcurve"/>
      <point x="72" y="634"/>
      <point x="239" y="650"/>
      <point x="335" y="650" type="qcurve" smooth="yes"/>
      <point x="407" y="650"/>
      <point x="539" y="641"/>
      <point x="601" y="631" type="qcurve"/>
      <point x="586" y="675"/>
      <point x="534" y="718"/>
      <point x="497" y="718" type="qcurve" smooth="yes"/>
      <point x="479" y="718"/>
      <point x="431" y="713"/>
      <point x="381" y="704" type="qcurve" smooth="yes"/>
      <point x="329" y="695"/>
      <point x="279" y="690"/>
      <point x="260" y="690" type="qcurve" smooth="yes"/>
      <point x="208" y="690"/>
      <point x="123" y="747"/>
      <point x="90" y="804" type="qcurve"/>
      <point x="102" y="822"/>
      <point x="135" y="856"/>
      <point x="156" y="871" type="qcurve"/>
      <point x="182" y="827"/>
      <point x="235" y="788"/>
      <point x="269" y="788" type="qcurve" smooth="yes"/>
      <point x="283" y="788"/>
      <point x="324" y="793"/>
      <point x="371" y="801" type="qcurve" smooth="yes"/>
      <point x="425" y="811"/>
      <point x="477" y="817"/>
      <point x="497" y="817" type="qcurve" smooth="yes"/>
      <point x="563" y="817"/>
      <point x="653" y="711"/>
      <point x="669" y="618" type="qcurve"/>
      <point x="673" y="611"/>
      <point x="677" y="586"/>
      <point x="677" y="572" type="qcurve" smooth="yes"/>
      <point x="677" y="553"/>
      <point x="673" y="523"/>
      <point x="669" y="514" type="qcurve"/>
      <point x="614" y="525"/>
      <point x="494" y="538"/>
      <point x="429" y="540" type="qcurve"/>
      <point x="410" y="481"/>
      <point x="386" y="381"/>
      <point x="386" y="359" type="qcurve" smooth="yes"/>
      <point x="386" y="341"/>
      <point x="402" y="320"/>
      <point x="415" y="320" type="qcurve" smooth="yes"/>
      <point x="432" y="320"/>
      <point x="474" y="367"/>
      <point x="515" y="434" type="qcurve"/>
      <point x="539" y="428"/>
      <point x="588" y="410"/>
      <point x="607" y="400" type="qcurve"/>
      <point x="626" y="361"/>
      <point x="648" y="263"/>
    </contour>
    <contour>
      <point x="327" y="830" type="move" name="chandrabindu"/>
    </contour>
  </outline>
</glyph>
<glyph name="bn_ri" format="1">
  <advance width="749"/>
  <unicode hex="098B"/>
  <outline>
    <contour>
      <point x="212" y="242" type="qcurve"/>
      <point x="263" y="212"/>
      <point x="341" y="139"/>
      <point x="367" y="96" type="qcurve"/>
      <point x="368" y="156"/>
      <point x="378" y="280"/>
      <point x="388" y="339" type="qcurve"/>
      <point x="345" y="323"/>
      <point x="252" y="271"/>
    </contour>
    <contour>
      <point x="469" y="91" type="qcurve" smooth="yes"/>
      <point x="469" y="65"/>
      <point x="470" y="10"/>
      <point x="471" y="-22" type="qcurve"/>
      <point x="454" y="-26"/>
      <point x="405" y="-30"/>
      <point x="376" y="-29" type="qcurve"/>
      <point x="333" y="52"/>
      <point x="211" y="152"/>
      <point x="133" y="172" type="qcurve"/>
      <point x="110" y="210"/>
      <point x="92" y="270"/>
      <point x="91" y="306" type="qcurve"/>
      <point x="136" y="347"/>
      <point x="256" y="420"/>
      <point x="324" y="448" type="qcurve"/>
      <point x="322" y="464"/>
      <point x="311" y="494"/>
      <point x="303" y="506" type="qcurve"/>
      <point x="274" y="471"/>
      <point x="196" y="430"/>
      <point x="158" y="430" type="qcurve" smooth="yes"/>
      <point x="100" y="430"/>
      <point x="32" y="503"/>
      <point x="32" y="566" type="qcurve" smooth="yes"/>
      <point x="32" y="580"/>
      <point x="36" y="601"/>
      <point x="41" y="611" type="qcurve"/>
      <point x="62" y="623"/>
      <point x="119" y="636"/>
      <point x="152" y="635" type="qcurve"/>
      <point x="147" y="628"/>
      <point x="142" y="610"/>
      <point x="141" y="596" type="qcurve" smooth="yes"/>
      <point x="141" y="571"/>
      <point x="166" y="543"/>
      <point x="190" y="543" type="qcurve" smooth="yes"/>
      <point x="219" y="543"/>
      <point x="279" y="580"/>
      <point x="301" y="609" type="qcurve"/>
      <point x="359" y="570" type="line"/>
      <point x="372" y="550"/>
      <point x="388" y="501"/>
      <point x="391" y="473" type="qcurve"/>
      <point x="393" y="474"/>
      <point x="403" y="477"/>
      <point x="405" y="478" type="qcurve"/>
      <point x="409" y="519"/>
      <point x="423" y="601"/>
      <point x="433" y="641" type="qcurve"/>
      <point x="462" y="639"/>
      <point x="518" y="623"/>
      <point x="543" y="611" type="qcurve"/>
      <point x="512" y="518"/>
      <point x="478" y="327"/>
      <point x="472" y="220" type="qcurve"/>
      <point x="502" y="200"/>
      <point x="557" y="146"/>
      <point x="579" y="115" type="qcurve"/>
      <point x="576" y="146"/>
      <point x="572" y="215"/>
      <point x="572" y="250" type="qcurve" smooth="yes"/>
      <point x="572" y="352"/>
      <point x="600" y="534"/>
      <point x="630" y="621" type="qcurve"/>
      <point x="654" y="621"/>
      <point x="708" y="611"/>
      <point x="725" y="603" type="qcurve"/>
      <point x="701" y="544"/>
      <point x="671" y="389"/>
      <point x="671" y="318" type="qcurve" smooth="yes"/>
      <point x="671" y="237"/>
      <point x="696" y="73"/>
      <point x="719" y="10" type="qcurve"/>
      <point x="699" y="0"/>
      <point x="631" y="-12"/>
      <point x="600" y="-10" type="qcurve"/>
      <point x="572" y="35"/>
      <point x="507" y="100"/>
      <point x="469" y="123" type="qcurve"/>
      <point x="469" y="115"/>
      <point x="469" y="99"/>
    </contour>
    <contour>
      <point x="428" y="690" type="move" name="chandrabindu"/>
    </contour>
  </outline>
</glyph>
<glyph name="bn_e" format="1">
  <advance width="632"/>
  <unicode hex="098F"/>
  <note>
    uni098F
  </note>
  <outline>
    <contour>
      <point x="544" y="-16" type="qcurve"/>
      <point x="523" y="-24"/>
      <point x="467" y="-32"/>
      <point x="440" y="-32" type="qcurve"/>
      <point x="440" y="-31"/>
      <point x="416" y="14"/>
      <point x="407" y="25" type="qcurve" smooth="yes"/>
      <point x="396" y="38"/>
      <point x="367" y="51"/>
      <point x="348" y="51" type="qcurve" smooth="yes"/>
      <point x="334" y="51"/>
      <point x="297" y="44"/>
      <point x="258" y="31" type="qcurve" smooth="yes"/>
      <point x="214" y="18"/>
      <point x="170" y="9"/>
      <point x="151" y="9" type="qcurve" smooth="yes"/>
      <point x="91" y="9"/>
      <point x="20" y="89"/>
      <point x="20" y="156" type="qcurve" smooth="yes"/>
      <point x="20" y="190"/>
      <point x="39" y="269"/>
      <point x="56" y="307" type="qcurve"/>
      <point x="83" y="306"/>
      <point x="126" y="298"/>
      <point x="143" y="291" type="qcurve"/>
      <point x="133" y="272"/>
      <point x="120" y="222"/>
      <point x="120" y="202" type="qcurve" smooth="yes"/>
      <point x="120" y="175"/>
      <point x="148" y="146"/>
      <point x="173" y="146" type="qcurve" smooth="yes"/>
      <point x="184" y="146"/>
      <point x="214" y="152"/>
      <point x="246" y="163" type="qcurve" smooth="yes"/>
      <point x="282" y="174"/>
      <point x="317" y="181"/>
      <point x="331" y="181" type="qcurve" smooth="yes"/>
      <point x="365" y="181"/>
      <point x="411" y="137"/>
      <point x="428" y="88" type="qcurve"/>
      <point x="443" y="175"/>
      <point x="459" y="406"/>
      <point x="459" y="526" type="qcurve" smooth="yes"/>
      <point x="459" y="551"/>
      <point x="439" y="579"/>
      <point x="421" y="579" type="qcurve" smooth="yes"/>
      <point x="383" y="579"/>
      <point x="298" y="474"/>
      <point x="298" y="428" type="qcurve" smooth="yes"/>
      <point x="298" y="408"/>
      <point x="320" y="386"/>
      <point x="340" y="386" type="qcurve" smooth="yes"/>
      <point x="356" y="386"/>
      <point x="386" y="399"/>
      <point x="400" y="412" type="qcurve"/>
      <point x="402" y="409"/>
      <point x="404" y="398"/>
      <point x="404" y="389" type="qcurve" smooth="yes"/>
      <point x="404" y="364"/>
      <point x="388" y="308"/>
      <point x="375" y="290" type="qcurve"/>
      <point x="361" y="281"/>
      <point x="325" y="271"/>
      <point x="306" y="271" type="qcurve" smooth="yes"/>
      <point x="246" y="271"/>
      <point x="167" y="347"/>
      <point x="167" y="408" type="qcurve" smooth="yes"/>
      <point x="167" y="499"/>
      <point x="321" y="661"/>
      <point x="409" y="661" type="qcurve" smooth="yes"/>
      <point x="477" y="661"/>
      <point x="571" y="561"/>
      <point x="571" y="484" type="qcurve" smooth="yes"/>
      <point x="571" y="344"/>
      <point x="558" y="98"/>
    </contour>
    <contour>
      <point x="387" y="690" type="move" name="chandrabindu"/>
    </contour>
  </outline>
</glyph>
<glyph name="bn_o" format="1">
  <advance width="714"/>
  <unicode hex="0993"/>
  <outline>
    <contour>
      <point x="673" y="156" type="qcurve" smooth="yes"/>
      <point x="673" y="72"/>
      <point x="562" y="-33"/>
      <point x="468" y="-33" type="qcurve" smooth="yes"/>
      <point x="317" y="-33"/>
      <point x="94" y="252"/>
      <point x="18" y="550" type="qcurve"/>
      <point x="38" y="563"/>
      <point x="80" y="582"/>
      <point x="102" y="589" type="qcurve"/>
      <point x="163" y="361"/>
      <point x="361" y="96"/>
      <point x="475" y="96" type="qcurve" smooth="yes"/>
      <point x="524" y="96"/>
      <point x="578" y="144"/>
      <point x="578" y="188" type="qcurve" smooth="yes"/>
      <point x="578" y="206"/>
      <point x="568" y="239"/>
      <point x="558" y="253" type="qcurve"/>
      <point x="541" y="231"/>
      <point x="496" y="208"/>
      <point x="471" y="208" type="qcurve" smooth="yes"/>
      <point x="426" y="208"/>
      <point x="367" y="269"/>
      <point x="367" y="317" type="qcurve" smooth="yes"/>
      <point x="367" y="364"/>
      <point x="425" y="427"/>
      <point x="467" y="427" type="qcurve" smooth="yes"/>
      <point x="486" y="427"/>
      <point x="524" y="411"/>
      <point x="538" y="397" type="qcurve"/>
      <point x="555" y="418"/>
      <point x="573" y="464"/>
      <point x="573" y="488" type="qcurve" smooth="yes"/>
      <point x="573" y="524"/>
      <point x="530" y="564"/>
      <point x="491" y="566" type="qcurve" smooth="yes"/>
      <point x="428" y="568"/>
      <point x="338" y="484"/>
      <point x="338" y="426" type="qcurve" smooth="yes"/>
      <point x="338" y="414"/>
      <point x="340" y="392"/>
      <point x="341" y="384" type="qcurve"/>
      <point x="307" y="384"/>
      <point x="234" y="411"/>
      <point x="214" y="432" type="qcurve"/>
      <point x="213" y="528"/>
      <point x="350" y="660"/>
      <point x="451" y="660" type="qcurve" smooth="yes"/>
      <point x="543" y="660"/>
      <point x="663" y="550"/>
      <point x="663" y="464" type="qcurve" smooth="yes"/>
      <point x="663" y="423"/>
      <point x="635" y="344"/>
      <point x="610" y="314" type="qcurve"/>
      <point x="640" y="281"/>
      <point x="673" y="199"/>
    </contour>
    <contour>
      <point x="425" y="333" type="qcurve" smooth="yes"/>
      <point x="425" y="319"/>
      <point x="443" y="302"/>
      <point x="458" y="302" type="qcurve" smooth="yes"/>
      <point x="471" y="302"/>
      <point x="497" y="319"/>
      <point x="510" y="337" type="qcurve"/>
      <point x="499" y="353"/>
      <point x="474" y="370"/>
      <point x="461" y="370" type="qcurve" smooth="yes"/>
      <point x="446" y="370"/>
      <point x="425" y="348"/>
    </contour>
    <contour>
      <point x="419" y="690" type="move" name="chandrabindu"/>
    </contour>
  </outline>
</glyph>
<glyph name="bn_ka" format="1">
  <advance width="644"/>
  <unicode hex="0995"/>
  <outline>
    <contour>
      <point x="407" y="288" type="qcurve" smooth="yes"/>
      <point x="407" y="198"/>
      <point x="420" y="39"/>
      <point x="431" y="-12" type="qcurve"/>
      <point x="409" y="-20"/>
      <point x="341" y="-30"/>
      <point x="305" y="-30" type="qcurve"/>
      <point x="262" y="58"/>
      <point x="147" y="164"/>
      <point x="75" y="182" type="qcurve"/>
      <point x="51" y="215"/>
      <point x="25" y="281"/>
      <point x="22" y="319" type="qcurve"/>
      <point x="74" y="374"/>
      <point x="227" y="473"/>
      <point x="319" y="509" type="qcurve"/>
      <point x="320" y="524"/>
      <point x="322" y="539"/>
      <point x="323" y="545" type="qcurve"/>
      <point x="317" y="545" type="line" smooth="yes"/>
      <point x="236" y="545"/>
      <point x="76" y="529"/>
      <point x="0" y="514" type="qcurve"/>
      <point x="-3" y="525"/>
      <point x="-8" y="558"/>
      <point x="-8" y="572" type="qcurve" smooth="yes"/>
      <point x="-8" y="588"/>
      <point x="-4" y="611"/>
      <point x="0" y="618" type="qcurve"/>
      <point x="68" y="635"/>
      <point x="234" y="653"/>
      <point x="321" y="653" type="qcurve" smooth="yes"/>
      <point x="411" y="653"/>
      <point x="587" y="634"/>
      <point x="644" y="618" type="qcurve"/>
      <point x="648" y="610"/>
      <point x="653" y="586"/>
      <point x="653" y="571" type="qcurve" smooth="yes"/>
      <point x="653" y="556"/>
      <point x="648" y="526"/>
      <point x="644" y="514" type="qcurve"/>
      <point x="597" y="524"/>
      <point x="478" y="539"/>
      <point x="416" y="542" type="qcurve"/>
      <point x="416" y="539"/>
      <point x="415" y="531"/>
      <point x="415" y="523" type="qcurve" smooth="yes"/>
      <point x="415" y="516"/>
      <point x="414" y="508"/>
      <point x="414" y="505" type="qcurve"/>
      <point x="506" y="483"/>
      <point x="625" y="357"/>
      <point x="625" y="283" type="qcurve" smooth="yes"/>
      <point x="625" y="233"/>
      <point x="577" y="148"/>
      <point x="537" y="123" type="qcurve"/>
      <point x="513" y="128"/>
      <point x="463" y="176"/>
      <point x="449" y="210" type="qcurve"/>
      <point x="492" y="225"/>
      <point x="549" y="279"/>
      <point x="549" y="306" type="qcurve" smooth="yes"/>
      <point x="549" y="334"/>
      <point x="479" y="368"/>
      <point x="408" y="374" type="qcurve"/>
      <point x="407" y="360"/>
      <point x="407" y="325"/>
    </contour>
    <contour>
      <point x="300" y="104" type="qcurve"/>
      <point x="300" y="113"/>
      <point x="300" y="131"/>
      <point x="300" y="140" type="qcurve" smooth="yes"/>
      <point x="300" y="201"/>
      <point x="303" y="310"/>
      <point x="306" y="364" type="qcurve"/>
      <point x="265" y="345"/>
      <point x="180" y="289"/>
      <point x="146" y="258" type="qcurve"/>
      <point x="195" y="229"/>
      <point x="272" y="151"/>
    </contour>
    <contour>
      <point x="346" y="-9" type="move" name="blwm"/>
    </contour>
    <contour>
      <point x="128" y="0" type="move" name="nukt"/>
    </contour>
    <contour>
      <point x="367" y="690" type="move" name="reph"/>
    </contour>
    <contour>
      <point x="367" y="690" type="move" name="chandrabindu"/>
    </contour>
    <contour>
      <point x="230" y="-6" type="move" name="haln"/>
    </contour>
  </outline>
</glyph>
<glyph name="bn_kha" format="1">
  <advance width="615"/>
  <unicode hex="0996"/>
  <outline>
    <contour>
      <point x="555" y="455" type="qcurve" smooth="yes"/>
      <point x="555" y="295"/>
      <point x="523" y="42"/>
      <point x="492" y="-33" type="qcurve"/>
      <point x="460" y="-33"/>
      <point x="390" y="-22"/>
      <point x="369" y="-13" type="qcurve"/>
      <point x="329" y="77"/>
      <point x="230" y="174"/>
      <point x="163" y="189" type="qcurve"/>
      <point x="143" y="219"/>
      <point x="119" y="279"/>
      <point x="115" y="311" type="qcurve"/>
      <point x="202" y="355" type="line" smooth="yes"/>
      <point x="257" y="383"/>
      <point x="309" y="445"/>
      <point x="309" y="484" type="qcurve"/>
      <point x="309" y="488" type="line"/>
      <point x="280" y="452"/>
      <point x="202" y="409"/>
      <point x="164" y="409" type="qcurve" smooth="yes"/>
      <point x="105" y="409"/>
      <point x="37" y="483"/>
      <point x="37" y="548" type="qcurve" smooth="yes"/>
      <point x="37" y="559"/>
      <point x="41" y="579"/>
      <point x="45" y="589" type="qcurve"/>
      <point x="66" y="602"/>
      <point x="123" y="615"/>
      <point x="156" y="615" type="qcurve"/>
      <point x="151" y="607"/>
      <point x="146" y="589"/>
      <point x="146" y="577" type="qcurve" smooth="yes"/>
      <point x="146" y="550"/>
      <point x="170" y="523"/>
      <point x="194" y="523" type="qcurve" smooth="yes"/>
      <point x="222" y="523"/>
      <point x="284" y="562"/>
      <point x="304" y="591" type="qcurve"/>
      <point x="364" y="553" type="line"/>
      <point x="380" y="530"/>
      <point x="396" y="470"/>
      <point x="396" y="434" type="qcurve" smooth="yes"/>
      <point x="396" y="371"/>
      <point x="337" y="273"/>
      <point x="281" y="244" type="qcurve"/>
      <point x="323" y="212"/>
      <point x="384" y="121"/>
      <point x="401" y="65" type="qcurve"/>
      <point x="421" y="127"/>
      <point x="441" y="292"/>
      <point x="441" y="395" type="qcurve" smooth="yes"/>
      <point x="441" y="415"/>
      <point x="440" y="450"/>
      <point x="439" y="473" type="qcurve" smooth="yes"/>
      <point x="438" y="485"/>
      <point x="438" y="495"/>
      <point x="438" y="499" type="qcurve" smooth="yes"/>
      <point x="438" y="529"/>
      <point x="469" y="573"/>
      <point x="497" y="585" type="qcurve" smooth="yes"/>
      <point x="524" y="596"/>
      <point x="581" y="612"/>
      <point x="615" y="618" type="qcurve"/>
      <point x="619" y="610"/>
      <point x="623" y="587"/>
      <point x="623" y="572" type="qcurve" smooth="yes"/>
      <point x="623" y="556"/>
      <point x="619" y="524"/>
      <point x="615" y="514" type="qcurve"/>
      <point x="602" y="510"/>
      <point x="584" y="505"/>
      <point x="578" y="502" type="qcurve" smooth="yes"/>
      <point x="565" y="496"/>
      <point x="555" y="476"/>
    </contour>
    <contour>
      <point x="431" y="-6" type="move" name="blwm"/>
    </contour>
    <contour>
      <point x="180" y="0" type="move" name="nukt"/>
    </contour>
    <contour>
      <point x="459" y="690" type="move" name="reph"/>
    </contour>
    <contour>
      <point x="459" y="690" type="move" name="chandrabindu"/>
    </contour>
    <contour>
      <point x="272" y="0" type="move" name="haln"/>
    </contour>
  </outline>
</glyph>
<glyph name="bn_nga" format="1">
  <advance width="606"/>
  <unicode hex="0999"/>
  <outline>
    <contour>
      <point x="351" y="533" type="qcurve"/>
      <point x="364" y="530"/>
      <point x="392" y="526"/>
      <point x="406" y="526" type="qcurve" smooth="yes"/>
      <point x="438" y="526"/>
      <point x="472" y="549"/>
      <point x="472" y="571" type="qcurve" smooth="yes"/>
      <point x="472" y="589"/>
      <point x="448" y="611"/>
      <point x="428" y="611" type="qcurve" smooth="yes"/>
      <point x="404" y="611"/>
      <point x="365" y="571"/>
    </contour>
    <contour>
      <point x="578" y="197" type="qcurve" smooth="yes"/>
      <point x="578" y="86"/>
      <point x="468" y="-43"/>
      <point x="372" y="-43" type="qcurve" smooth="yes"/>
      <point x="248" y="-43"/>
      <point x="70" y="178"/>
      <point x="10" y="418" type="qcurve"/>
      <point x="30" y="428"/>
      <point x="72" y="445"/>
      <point x="95" y="451" type="qcurve"/>
      <point x="149" y="266"/>
      <point x="288" y="85"/>
      <point x="377" y="85" type="qcurve" smooth="yes"/>
      <point x="436" y="85"/>
      <point x="498" y="161"/>
      <point x="498" y="234" type="qcurve" smooth="yes"/>
      <point x="498" y="246"/>
      <point x="497" y="269"/>
      <point x="495" y="280" type="qcurve"/>
      <point x="459" y="243"/>
      <point x="404" y="214"/>
      <point x="374" y="213" type="qcurve" smooth="yes"/>
      <point x="307" y="211"/>
      <point x="226" y="318"/>
      <point x="226" y="408" type="qcurve" smooth="yes"/>
      <point x="226" y="428"/>
      <point x="228" y="460"/>
      <point x="231" y="474" type="qcurve"/>
      <point x="188" y="489"/>
      <point x="116" y="528"/>
      <point x="93" y="548" type="qcurve"/>
      <point x="102" y="580"/>
      <point x="124" y="630"/>
      <point x="139" y="650" type="qcurve"/>
      <point x="159" y="628"/>
      <point x="221" y="585"/>
      <point x="257" y="568" type="qcurve"/>
      <point x="281" y="620"/>
      <point x="360" y="675"/>
      <point x="414" y="675" type="qcurve" smooth="yes"/>
      <point x="471" y="675"/>
      <point x="537" y="614"/>
      <point x="537" y="565" type="qcurve" smooth="yes"/>
      <point x="537" y="509"/>
      <point x="457" y="442"/>
      <point x="388" y="442" type="qcurve" smooth="yes"/>
      <point x="376" y="442"/>
      <point x="348" y="444"/>
      <point x="332" y="447" type="qcurve"/>
      <point x="329" y="424"/>
      <point x="325" y="375"/>
      <point x="325" y="351" type="qcurve" smooth="yes"/>
      <point x="325" y="330"/>
      <point x="339" y="310"/>
      <point x="353" y="310" type="qcurve" smooth="yes"/>
      <point x="368" y="310"/>
      <point x="412" y="355"/>
      <point x="450" y="410" type="qcurve"/>
      <point x="468" y="406"/>
      <point x="512" y="390"/>
      <point x="536" y="378" type="qcurve"/>
      <point x="556" y="338"/>
      <point x="578" y="245"/>
    </contour>
    <contour>
      <point x="340" y="-13" type="move" name="blwm"/>
    </contour>
    <contour>
      <point x="151" y="-120" type="move" name="nukt"/>
    </contour>
    <contour>
      <point x="345" y="690" type="move" name="reph"/>
    </contour>
    <contour>
      <point x="345" y="690" type="move" name="chandrabindu"/>
    </contour>
    <contour>
      <point x="260" y="-13" type="move" name="haln"/>
    </contour>
  </outline>
</glyph>
<glyph name="bn_ca" format="1">
  <advance width="475"/>
  <unicode hex="099A"/>
  <outline>
    <contour>
      <point x="351" y="407" type="qcurve" smooth="yes"/>
      <point x="400" y="383"/>
      <point x="441" y="324"/>
      <point x="441" y="278" type="qcurve" smooth="yes"/>
      <point x="441" y="158"/>
      <point x="301" y="-30"/>
      <point x="208" y="-30" type="qcurve" smooth="yes"/>
      <point x="139" y="-30"/>
      <point x="53" y="72"/>
      <point x="53" y="160" type="qcurve" smooth="yes"/>
      <point x="53" y="228"/>
      <point x="75" y="435"/>
      <point x="92" y="529" type="qcurve"/>
      <point x="65" y="526"/>
      <point x="18" y="518"/>
      <point x="0" y="514" type="qcurve"/>
      <point x="-3" y="525"/>
      <point x="-7" y="556"/>
      <point x="-7" y="572" type="qcurve" smooth="yes"/>
      <point x="-7" y="584"/>
      <point x="-3" y="609"/>
      <point x="0" y="618" type="qcurve"/>
      <point x="39" y="630"/>
      <point x="173" y="646"/>
      <point x="237" y="646" type="qcurve" smooth="yes"/>
      <point x="299" y="646"/>
      <point x="438" y="630"/>
      <point x="475" y="618" type="qcurve"/>
      <point x="478" y="611"/>
      <point x="482" y="587"/>
      <point x="482" y="573" type="qcurve" smooth="yes"/>
      <point x="482" y="560"/>
      <point x="479" y="530"/>
      <point x="475" y="514" type="qcurve"/>
      <point x="431" y="525"/>
      <point x="299" y="538"/>
      <point x="239" y="538" type="qcurve" smooth="yes"/>
      <point x="234" y="538"/>
      <point x="223" y="538"/>
      <point x="217" y="538" type="qcurve"/>
      <point x="230" y="497"/>
      <point x="293" y="434"/>
    </contour>
    <contour>
      <point x="160" y="118" type="qcurve" smooth="yes"/>
      <point x="160" y="83"/>
      <point x="175" y="52"/>
      <point x="192" y="52" type="qcurve" smooth="yes"/>
      <point x="234" y="52"/>
      <point x="312" y="213"/>
      <point x="312" y="291" type="qcurve" smooth="yes"/>
      <point x="312" y="307"/>
      <point x="297" y="329"/>
      <point x="273" y="344" type="qcurve" smooth="yes"/>
      <point x="245" y="363"/>
      <point x="205" y="414"/>
      <point x="195" y="445" type="qcurve"/>
      <point x="179" y="354"/>
      <point x="160" y="175"/>
    </contour>
    <contour>
      <point x="193" y="0" type="move" name="blwm"/>
    </contour>
    <contour>
      <point x="115" y="-120" type="move" name="nukt"/>
    </contour>
    <contour>
      <point x="225" y="690" type="move" name="reph"/>
    </contour>
    <contour>
      <point x="225" y="690" type="move" name="chandrabindu"/>
    </contour>
    <contour>
      <point x="107" y="0" type="move" name="haln"/>
    </contour>
  </outline>
</glyph>
<glyph name="bn_cha" format="1">
  <advance width="532"/>
  <unicode hex="099B"/>
  <outline>
    <contour>
      <point x="163" y="333" type="qcurve" smooth="yes"/>
      <point x="163" y="318"/>
      <point x="174" y="304"/>
      <point x="186" y="304" type="qcurve" smooth="yes"/>
      <point x="216" y="304"/>
      <point x="268" y="375"/>
      <point x="268" y="419" type="qcurve"/>
      <point x="268" y="422" type="line"/>
      <point x="238" y="428"/>
      <point x="188" y="453"/>
      <point x="172" y="471" type="qcurve"/>
      <point x="168" y="437"/>
      <point x="163" y="363"/>
    </contour>
    <contour>
      <point x="531" y="-89" type="qcurve"/>
      <point x="515" y="-110"/>
      <point x="480" y="-146"/>
      <point x="462" y="-160" type="qcurve"/>
      <point x="383" y="-83"/>
      <point x="210" y="33"/>
      <point x="114" y="72" type="qcurve"/>
      <point x="95" y="211" type="line"/>
      <point x="134" y="197"/>
      <point x="209" y="183"/>
      <point x="243" y="183" type="qcurve" smooth="yes"/>
      <point x="307" y="183"/>
      <point x="381" y="243"/>
      <point x="381" y="296" type="qcurve" smooth="yes"/>
      <point x="381" y="315"/>
      <point x="370" y="351"/>
      <point x="360" y="366" type="qcurve"/>
      <point x="339" y="308"/>
      <point x="244" y="237"/>
      <point x="185" y="237" type="qcurve" smooth="yes"/>
      <point x="131" y="237"/>
      <point x="54" y="306"/>
      <point x="54" y="358" type="qcurve" smooth="yes"/>
      <point x="54" y="390"/>
      <point x="60" y="484"/>
      <point x="65" y="527" type="qcurve"/>
      <point x="42" y="523"/>
      <point x="11" y="517"/>
      <point x="0" y="514" type="qcurve"/>
      <point x="-3" y="525"/>
      <point x="-7" y="556"/>
      <point x="-7" y="572" type="qcurve" smooth="yes"/>
      <point x="-7" y="584"/>
      <point x="-3" y="609"/>
      <point x="0" y="618" type="qcurve"/>
      <point x="39" y="632"/>
      <point x="196" y="650"/>
      <point x="273" y="650" type="qcurve" smooth="yes"/>
      <point x="349" y="650"/>
      <point x="496" y="632"/>
      <point x="533" y="618" type="qcurve"/>
      <point x="536" y="611"/>
      <point x="540" y="587"/>
      <point x="540" y="573" type="qcurve" smooth="yes"/>
      <point x="540" y="562"/>
      <point x="537" y="537"/>
      <point x="532" y="514" type="qcurve"/>
      <point x="488" y="526"/>
      <point x="343" y="542"/>
      <point x="272" y="542" type="qcurve" smooth="yes"/>
      <point x="250" y="542"/>
      <point x="205" y="541"/>
      <point x="182" y="539" type="qcurve"/>
      <point x="207" y="517"/>
      <point x="301" y="484"/>
      <point x="367" y="475" type="qcurve"/>
      <point x="423" y="433"/>
      <point x="489" y="316"/>
      <point x="489" y="254" type="qcurve" smooth="yes"/>
      <point x="489" y="179"/>
      <point x="390" y="86"/>
      <point x="301" y="76" type="qcurve"/>
      <point x="356" y="43"/>
      <point x="470" y="-39"/>
    </contour>
    <contour>
      <point x="312" y="-16" type="move" name="blwm"/>
    </contour>
    <contour>
      <point x="124" y="-170" type="move" name="nukt"/>
    </contour>
    <contour>
      <point x="256" y="690" type="move" name="reph"/>
    </contour>
    <contour>
      <point x="256" y="690" type="move" name="chandrabindu"/>
    </contour>
    <contour>
      <point x="94" y="0" type="move" name="haln"/>
    </contour>
  </outline>
</glyph>
<glyph name="bn_nya" format="1">
  <advance width="868"/>
  <unicode hex="099E"/>
  <outline>
    <contour>
      <point x="566" y="262" type="qcurve"/>
      <point x="595" y="229"/>
      <point x="670" y="190"/>
      <point x="704" y="190" type="qcurve" smooth="yes"/>
      <point x="733" y="190"/>
      <point x="768" y="219"/>
      <point x="768" y="243" type="qcurve" smooth="yes"/>
      <point x="768" y="250"/>
      <point x="764" y="264"/>
      <point x="761" y="272" type="qcurve"/>
      <point x="746" y="254"/>
      <point x="711" y="236"/>
      <point x="692" y="236" type="qcurve" smooth="yes"/>
      <point x="658" y="236"/>
      <point x="612" y="283"/>
      <point x="612" y="319" type="qcurve" smooth="yes"/>
      <point x="612" y="357"/>
      <point x="659" y="407"/>
      <point x="693" y="407" type="qcurve" smooth="yes"/>
      <point x="710" y="407"/>
      <point x="743" y="392"/>
      <point x="755" y="379" type="qcurve"/>
      <point x="760" y="393"/>
      <point x="764" y="411"/>
      <point x="764" y="419" type="qcurve" smooth="yes"/>
      <point x="764" y="437"/>
      <point x="737" y="458"/>
      <point x="714" y="458" type="qcurve" smooth="yes"/>
      <point x="675" y="458"/>
      <point x="599" y="407"/>
      <point x="570" y="361" type="qcurve"/>
      <point x="569" y="321"/>
      <point x="567" y="279"/>
    </contour>
    <contour>
      <point x="660" y="333" type="qcurve" smooth="yes"/>
      <point x="660" y="321"/>
      <point x="674" y="307"/>
      <point x="686" y="307" type="qcurve" smooth="yes"/>
      <point x="695" y="307"/>
      <point x="711" y="315"/>
      <point x="720" y="324" type="qcurve"/>
      <point x="720" y="324" type="line"/>
      <point x="722" y="326"/>
      <point x="729" y="335"/>
      <point x="730" y="337" type="qcurve"/>
      <point x="722" y="349"/>
      <point x="702" y="362"/>
      <point x="691" y="362" type="qcurve" smooth="yes"/>
      <point x="677" y="362"/>
      <point x="660" y="346"/>
    </contour>
    <contour>
      <point x="544" y="-16" type="qcurve"/>
      <point x="523" y="-24"/>
      <point x="467" y="-32"/>
      <point x="440" y="-32" type="qcurve"/>
      <point x="440" y="-31"/>
      <point x="416" y="14"/>
      <point x="407" y="25" type="qcurve" smooth="yes"/>
      <point x="396" y="38"/>
      <point x="367" y="51"/>
      <point x="348" y="51" type="qcurve" smooth="yes"/>
      <point x="334" y="51"/>
      <point x="297" y="44"/>
      <point x="258" y="31" type="qcurve" smooth="yes"/>
      <point x="214" y="18"/>
      <point x="170" y="9"/>
      <point x="151" y="9" type="qcurve" smooth="yes"/>
      <point x="91" y="9"/>
      <point x="20" y="89"/>
      <point x="20" y="156" type="qcurve" smooth="yes"/>
      <point x="20" y="190"/>
      <point x="39" y="269"/>
      <point x="56" y="307" type="qcurve"/>
      <point x="83" y="306"/>
      <point x="126" y="298"/>
      <point x="143" y="291" type="qcurve"/>
      <point x="133" y="272"/>
      <point x="120" y="222"/>
      <point x="120" y="202" type="qcurve" smooth="yes"/>
      <point x="120" y="175"/>
      <point x="148" y="146"/>
      <point x="173" y="146" type="qcurve" smooth="yes"/>
      <point x="184" y="146"/>
      <point x="214" y="152"/>
      <point x="246" y="163" type="qcurve" smooth="yes"/>
      <point x="282" y="174"/>
      <point x="317" y="181"/>
      <point x="331" y="181" type="qcurve" smooth="yes"/>
      <point x="365" y="181"/>
      <point x="411" y="137"/>
      <point x="428" y="88" type="qcurve"/>
      <point x="443" y="175"/>
      <point x="459" y="406"/>
      <point x="459" y="526" type="qcurve" smooth="yes"/>
      <point x="459" y="551"/>
      <point x="439" y="579"/>
      <point x="421" y="579" type="qcurve" smooth="yes"/>
      <point x="383" y="579"/>
      <point x="298" y="474"/>
      <point x="298" y="428" type="qcurve" smooth="yes"/>
      <point x="298" y="408"/>
      <point x="320" y="386"/>
      <point x="340" y="386" type="qcurve" smooth="yes"/>
      <point x="356" y="386"/>
      <point x="386" y="399"/>
      <point x="400" y="412" type="qcurve"/>
      <point x="402" y="409"/>
      <point x="404" y="398"/>
      <point x="404" y="389" type="qcurve" smooth="yes"/>
      <point x="404" y="364"/>
      <point x="388" y="308"/>
      <point x="375" y="290" type="qcurve"/>
      <point x="361" y="281"/>
      <point x="325" y="271"/>
      <point x="306" y="271" type="qcurve" smooth="yes"/>
      <point x="246" y="271"/>
      <point x="167" y="347"/>
      <point x="167" y="408" type="qcurve" smooth="yes"/>
      <point x="167" y="499"/>
      <point x="321" y="661"/>
      <point x="409" y="661" type="qcurve" smooth="yes"/>
      <point x="477" y="661"/>
      <point x="571" y="562"/>
      <point x="571" y="487" type="qcurve"/>
      <point x="601" y="518"/>
      <point x="674" y="553"/>
      <point x="712" y="553" type="qcurve" smooth="yes"/>
      <point x="768" y="553"/>
      <point x="838" y="487"/>
      <point x="838" y="432" type="qcurve" smooth="yes"/>
      <point x="838" y="402"/>
      <point x="819" y="344"/>
      <point x="801" y="316" type="qcurve"/>
      <point x="821" y="290"/>
      <point x="841" y="237"/>
      <point x="841" y="208" type="qcurve" smooth="yes"/>
      <point x="841" y="155"/>
      <point x="770" y="89"/>
      <point x="714" y="89" type="qcurve" smooth="yes"/>
      <point x="671" y="89"/>
      <point x="591" y="131"/>
      <point x="561" y="167" type="qcurve"/>
      <point x="558" y="122"/>
      <point x="550" y="31"/>
    </contour>
    <contour>
      <point x="475" y="-2" type="move" name="blwm"/>
    </contour>
    <contour>
      <point x="312" y="-68" type="move" name="nukt"/>
    </contour>
    <contour>
      <point x="414" y="690" type="move" name="reph"/>
    </contour>
    <contour>
      <point x="491" y="690" type="move" name="chandrabindu"/>
    </contour>
    <contour>
      <point x="383" y="0" type="move" name="haln"/>
    </contour>
  </outline>
</glyph>
<glyph name="bn_ddha" format="1">
  <advance width="503"/>
  <unicode hex="09A2"/>
  <outline>
    <contour>
      <point x="337" y="392" type="qcurve" smooth="yes"/>
      <point x="396" y="392"/>
      <point x="473" y="312"/>
      <point x="473" y="247" type="qcurve" smooth="yes"/>
      <point x="473" y="201"/>
      <point x="435" y="105"/>
      <point x="401" y="64" type="qcurve" smooth="yes"/>
      <point x="365" y="20"/>
      <point x="275" y="-30"/>
      <point x="232" y="-30" type="qcurve" smooth="yes"/>
      <point x="161" y="-30"/>
      <point x="67" y="69"/>
      <point x="67" y="147" type="qcurve" smooth="yes"/>
      <point x="67" y="240"/>
      <point x="79" y="434"/>
      <point x="91" y="531" type="qcurve"/>
      <point x="65" y="527"/>
      <point x="18" y="519"/>
      <point x="0" y="514" type="qcurve"/>
      <point x="-3" y="528"/>
      <point x="-6" y="555"/>
      <point x="-6" y="567" type="qcurve" smooth="yes"/>
      <point x="-6" y="582"/>
      <point x="-3" y="609"/>
      <point x="0" y="618" type="qcurve"/>
      <point x="38" y="632"/>
      <point x="170" y="649"/>
      <point x="244" y="649" type="qcurve" smooth="yes"/>
      <point x="311" y="649"/>
      <point x="452" y="632"/>
      <point x="503" y="618" type="qcurve"/>
      <point x="507" y="610"/>
      <point x="511" y="585"/>
      <point x="511" y="568" type="qcurve" smooth="yes"/>
      <point x="511" y="553"/>
      <point x="507" y="524"/>
      <point x="503" y="514" type="qcurve"/>
      <point x="443" y="526"/>
      <point x="307" y="541"/>
      <point x="246" y="541" type="qcurve" smooth="yes"/>
      <point x="239" y="541"/>
      <point x="226" y="541"/>
      <point x="219" y="541" type="qcurve"/>
      <point x="201" y="446"/>
      <point x="180" y="214"/>
      <point x="180" y="110" type="qcurve" smooth="yes"/>
      <point x="180" y="81"/>
      <point x="200" y="51"/>
      <point x="220" y="50" type="qcurve" smooth="yes"/>
      <point x="258" y="50"/>
      <point x="342" y="172"/>
      <point x="342" y="225" type="qcurve" smooth="yes"/>
      <point x="342" y="250"/>
      <point x="320" y="278"/>
      <point x="301" y="278" type="qcurve" smooth="yes"/>
      <point x="285" y="278"/>
      <point x="253" y="263"/>
      <point x="242" y="250" type="qcurve"/>
      <point x="240" y="255"/>
      <point x="237" y="268"/>
      <point x="237" y="275" type="qcurve" smooth="yes"/>
      <point x="237" y="301"/>
      <point x="253" y="355"/>
      <point x="265" y="372" type="qcurve"/>
      <point x="279" y="382"/>
      <point x="316" y="392"/>
    </contour>
    <contour>
      <point x="226" y="-6" type="move" name="blwm"/>
    </contour>
    <contour>
      <point x="188" y="-120" type="move" name="nukt"/>
    </contour>
    <contour>
      <point x="224" y="690" type="move" name="reph"/>
    </contour>
    <contour>
      <point x="224" y="690" type="move" name="chandrabindu"/>
    </contour>
    <contour>
      <point x="105" y="0" type="move" name="haln"/>
    </contour>
  </outline>
</glyph>
<glyph name="bn_ta" format="1">
  <advance width="609"/>
  <unicode hex="09A4"/>
  <outline>
    <contour>
      <point x="609" y="514" type="qcurve"/>
      <point x="539" y="527"/>
      <point x="381" y="541"/>
      <point x="304" y="541" type="qcurve" smooth="yes"/>
      <point x="226" y="541"/>
      <point x="72" y="527"/>
      <point x="0" y="514" type="qcurve"/>
      <point x="-4" y="526"/>
      <point x="-9" y="556"/>
      <point x="-9" y="572" type="qcurve" smooth="yes"/>
      <point x="-9" y="585"/>
      <point x="-4" y="610"/>
      <point x="0" y="618" type="qcurve"/>
      <point x="65" y="633"/>
      <point x="221" y="649"/>
      <point x="304" y="649" type="qcurve" smooth="yes"/>
      <point x="385" y="649"/>
      <point x="544" y="633"/>
      <point x="609" y="618" type="qcurve"/>
      <point x="613" y="612"/>
      <point x="618" y="589"/>
      <point x="618" y="572" type="qcurve" smooth="yes"/>
      <point x="618" y="557"/>
      <point x="613" y="525"/>
    </contour>
    <contour>
      <point x="378" y="490" type="qcurve" smooth="yes"/>
      <point x="463" y="490"/>
      <point x="590" y="314"/>
      <point x="590" y="193" type="qcurve" smooth="yes"/>
      <point x="590" y="87"/>
      <point x="486" y="-33"/>
      <point x="393" y="-33" type="qcurve" smooth="yes"/>
      <point x="269" y="-33"/>
      <point x="81" y="185"/>
      <point x="13" y="413" type="qcurve"/>
      <point x="31" y="424"/>
      <point x="72" y="444"/>
      <point x="96" y="453" type="qcurve"/>
      <point x="144" y="296"/>
      <point x="301" y="102"/>
      <point x="385" y="102" type="qcurve" smooth="yes"/>
      <point x="441" y="102"/>
      <point x="499" y="170"/>
      <point x="499" y="236" type="qcurve" smooth="yes"/>
      <point x="499" y="302"/>
      <point x="447" y="385"/>
      <point x="410" y="385" type="qcurve" smooth="yes"/>
      <point x="389" y="385"/>
      <point x="366" y="354"/>
      <point x="366" y="327" type="qcurve" smooth="yes"/>
      <point x="366" y="307"/>
      <point x="384" y="264"/>
      <point x="401" y="243" type="qcurve"/>
      <point x="390" y="238"/>
      <point x="356" y="231"/>
      <point x="340" y="231" type="qcurve" smooth="yes"/>
      <point x="318" y="231"/>
      <point x="281" y="239"/>
      <point x="273" y="245" type="qcurve"/>
      <point x="261" y="267"/>
      <point x="248" y="317"/>
      <point x="248" y="340" type="qcurve" smooth="yes"/>
      <point x="248" y="405"/>
      <point x="321" y="490"/>
    </contour>
    <contour>
      <point x="365" y="-6" type="move" name="blwm"/>
    </contour>
    <contour>
      <point x="325" y="-120" type="move" name="nukt"/>
    </contour>
    <contour>
      <point x="301" y="690" type="move" name="reph"/>
    </contour>
    <contour>
      <point x="301" y="690" type="move" name="chandrabindu"/>
    </contour>
    <contour>
      <point x="239" y="0" type="move" name="haln"/>
    </contour>
  </outline>
</glyph>
<glyph name="bn_tha" format="1">
  <advance width="588"/>
  <unicode hex="09A5"/>
  <outline>
    <contour>
      <point x="526" y="452" type="qcurve" smooth="yes"/>
      <point x="526" y="298"/>
      <point x="494" y="44"/>
      <point x="465" y="-33" type="qcurve"/>
      <point x="432" y="-33"/>
      <point x="361" y="-18"/>
      <point x="341" y="-6" type="qcurve"/>
      <point x="301" y="75"/>
      <point x="199" y="163"/>
      <point x="130" y="177" type="qcurve"/>
      <point x="111" y="208"/>
      <point x="89" y="269"/>
      <point x="85" y="302" type="qcurve"/>
      <point x="175" y="351" type="line" smooth="yes"/>
      <point x="222" y="377"/>
      <point x="269" y="443"/>
      <point x="269" y="482" type="qcurve" smooth="yes"/>
      <point x="269" y="510"/>
      <point x="237" y="542"/>
      <point x="211" y="542" type="qcurve" smooth="yes"/>
      <point x="184" y="542"/>
      <point x="151" y="506"/>
      <point x="151" y="479" type="qcurve" smooth="yes"/>
      <point x="151" y="460"/>
      <point x="163" y="434"/>
      <point x="176" y="424" type="qcurve"/>
      <point x="150" y="408"/>
      <point x="90" y="392"/>
      <point x="54" y="392" type="qcurve"/>
      <point x="42" y="411"/>
      <point x="28" y="458"/>
      <point x="28" y="481" type="qcurve" smooth="yes"/>
      <point x="28" y="549"/>
      <point x="116" y="638"/>
      <point x="187" y="638" type="qcurve" smooth="yes"/>
      <point x="266" y="638"/>
      <point x="363" y="529"/>
      <point x="363" y="444" type="qcurve" smooth="yes"/>
      <point x="363" y="376"/>
      <point x="306" y="274"/>
      <point x="248" y="237" type="qcurve"/>
      <point x="245" y="235" type="line"/>
      <point x="289" y="205"/>
      <point x="356" y="122"/>
      <point x="376" y="71" type="qcurve"/>
      <point x="396" y="135"/>
      <point x="415" y="295"/>
      <point x="415" y="403" type="qcurve" smooth="yes"/>
      <point x="415" y="417"/>
      <point x="414" y="445"/>
      <point x="413" y="468" type="qcurve" smooth="yes"/>
      <point x="412" y="483"/>
      <point x="411" y="497"/>
      <point x="411" y="503" type="qcurve"/>
      <point x="411" y="530"/>
      <point x="440" y="573"/>
      <point x="465" y="584" type="qcurve" smooth="yes"/>
      <point x="491" y="595"/>
      <point x="550" y="611"/>
      <point x="588" y="618" type="qcurve"/>
      <point x="592" y="611"/>
      <point x="597" y="587"/>
      <point x="597" y="572" type="qcurve" smooth="yes"/>
      <point x="597" y="558"/>
      <point x="592" y="525"/>
      <point x="588" y="514" type="qcurve"/>
      <point x="573" y="509"/>
      <point x="554" y="503"/>
      <point x="551" y="502" type="qcurve" smooth="yes"/>
      <point x="537" y="496"/>
      <point x="526" y="475"/>
    </contour>
    <contour>
      <point x="392" y="-6" type="move" name="blwm"/>
    </contour>
    <contour>
      <point x="171" y="0" type="move" name="nukt"/>
    </contour>
    <contour>
      <point x="467" y="690" type="move" name="reph"/>
    </contour>
    <contour>
      <point x="467" y="690" type="move" name="chandrabindu"/>
    </contour>
    <contour>
      <point x="276" y="0" type="move" name="haln"/>
    </contour>
  </outline>
</glyph>
<glyph name="bn_da" format="1">
  <advance width="515"/>
  <unicode hex="09A6"/>
  <outline>
    <contour>
      <point x="441" y="168" type="qcurve" smooth="yes"/>
      <point x="441" y="128"/>
      <point x="450" y="42"/>
      <point x="459" y="-3" type="qcurve"/>
      <point x="443" y="-13"/>
      <point x="381" y="-28"/>
      <point x="358" y="-29" type="qcurve"/>
      <point x="350" y="6"/>
      <point x="342" y="85"/>
      <point x="342" y="127" type="qcurve" smooth="yes"/>
      <point x="342" y="181"/>
      <point x="356" y="289"/>
      <point x="369" y="339" type="qcurve"/>
      <point x="309" y="293"/>
      <point x="199" y="170"/>
      <point x="163" y="109" type="qcurve"/>
      <point x="129" y="113"/>
      <point x="57" y="138"/>
      <point x="38" y="153" type="qcurve"/>
      <point x="66" y="243"/>
      <point x="101" y="441"/>
      <point x="105" y="531" type="qcurve"/>
      <point x="77" y="527"/>
      <point x="23" y="519"/>
      <point x="0" y="514" type="qcurve"/>
      <point x="-4" y="527"/>
      <point x="-8" y="560"/>
      <point x="-8" y="574" type="qcurve" smooth="yes"/>
      <point x="-8" y="589"/>
      <point x="-4" y="611"/>
      <point x="0" y="618" type="qcurve"/>
      <point x="53" y="632"/>
      <point x="200" y="649"/>
      <point x="276" y="649" type="qcurve" smooth="yes"/>
      <point x="340" y="649"/>
      <point x="479" y="631"/>
      <point x="515" y="618" type="qcurve"/>
      <point x="518" y="609"/>
      <point x="522" y="586"/>
      <point x="522" y="575" type="qcurve" smooth="yes"/>
      <point x="522" y="558"/>
      <point x="518" y="525"/>
      <point x="515" y="514" type="qcurve"/>
      <point x="474" y="525"/>
      <point x="334" y="541"/>
      <point x="272" y="541" type="qcurve" smooth="yes"/>
      <point x="258" y="541"/>
      <point x="226" y="540"/>
      <point x="195" y="539" type="qcurve"/>
      <point x="195" y="531"/>
      <point x="195" y="514"/>
      <point x="195" y="506" type="qcurve" smooth="yes"/>
      <point x="195" y="465"/>
      <point x="190" y="377"/>
      <point x="186" y="333" type="qcurve"/>
      <point x="229" y="381"/>
      <point x="317" y="457"/>
      <point x="363" y="485" type="qcurve"/>
      <point x="396" y="472"/>
      <point x="449" y="428"/>
      <point x="475" y="393" type="qcurve"/>
      <point x="458" y="336"/>
      <point x="441" y="224"/>
    </contour>
    <contour>
      <point x="397" y="0" type="move" name="blwm"/>
    </contour>
    <contour>
      <point x="178" y="0" type="move" name="nukt"/>
    </contour>
    <contour>
      <point x="276" y="690" type="move" name="reph"/>
    </contour>
    <contour>
      <point x="270" y="690" type="move" name="chandrabindu"/>
    </contour>
    <contour>
      <point x="243" y="0" type="move" name="haln"/>
    </contour>
  </outline>
</glyph>
<glyph name="bn_dha" format="1">
  <advance width="528"/>
  <unicode hex="09A7"/>
  <outline>
    <contour>
      <point x="452" y="298" type="qcurve" smooth="yes"/>
      <point x="452" y="194"/>
      <point x="461" y="45"/>
      <point x="470" y="-4" type="qcurve"/>
      <point x="448" y="-16"/>
      <point x="379" y="-29"/>
      <point x="342" y="-29" type="qcurve"/>
      <point x="297" y="60"/>
      <point x="177" y="166"/>
      <point x="101" y="183" type="qcurve"/>
      <point x="77" y="218"/>
      <point x="52" y="282"/>
      <point x="49" y="320" type="qcurve"/>
      <point x="65" y="335"/>
      <point x="104" y="365"/>
      <point x="128" y="380" type="qcurve"/>
      <point x="81" y="398"/>
      <point x="28" y="466"/>
      <point x="28" y="509" type="qcurve" smooth="yes"/>
      <point x="28" y="573"/>
      <point x="105" y="649"/>
      <point x="172" y="649" type="qcurve" smooth="yes"/>
      <point x="214" y="649"/>
      <point x="286" y="601"/>
      <point x="305" y="562" type="qcurve"/>
      <point x="286" y="537"/>
      <point x="245" y="504"/>
      <point x="220" y="495" type="qcurve"/>
      <point x="218" y="516"/>
      <point x="190" y="543"/>
      <point x="170" y="543" type="qcurve" smooth="yes"/>
      <point x="150" y="543"/>
      <point x="127" y="515"/>
      <point x="127" y="491" type="qcurve" smooth="yes"/>
      <point x="127" y="465"/>
      <point x="168" y="430"/>
      <point x="196" y="430" type="qcurve" smooth="yes"/>
      <point x="205" y="430"/>
      <point x="227" y="435"/>
      <point x="243" y="441" type="qcurve"/>
      <point x="272" y="455"/>
      <point x="333" y="479"/>
      <point x="366" y="489" type="qcurve"/>
      <point x="367" y="491"/>
      <point x="368" y="500"/>
      <point x="368" y="502" type="qcurve" smooth="yes"/>
      <point x="374" y="539"/>
      <point x="397" y="578"/>
      <point x="419" y="586" type="qcurve" smooth="yes"/>
      <point x="446" y="597"/>
      <point x="501" y="613"/>
      <point x="528" y="618" type="qcurve"/>
      <point x="532" y="610"/>
      <point x="537" y="584"/>
      <point x="537" y="570" type="qcurve" smooth="yes"/>
      <point x="537" y="556"/>
      <point x="532" y="525"/>
      <point x="528" y="514" type="qcurve"/>
      <point x="511" y="510"/>
      <point x="488" y="502"/>
      <point x="478" y="497" type="qcurve" smooth="yes"/>
      <point x="468" y="492"/>
      <point x="460" y="477"/>
      <point x="458" y="451" type="qcurve" smooth="yes"/>
      <point x="455" y="413"/>
      <point x="452" y="331"/>
    </contour>
    <contour>
      <point x="340" y="83" type="qcurve"/>
      <point x="340" y="93"/>
      <point x="340" y="112"/>
      <point x="340" y="121" type="qcurve" smooth="yes"/>
      <point x="340" y="175"/>
      <point x="344" y="282"/>
      <point x="349" y="343" type="qcurve"/>
      <point x="304" y="326"/>
      <point x="215" y="281"/>
      <point x="179" y="256" type="qcurve"/>
      <point x="231" y="223"/>
      <point x="313" y="135"/>
    </contour>
    <contour>
      <point x="385" y="0" type="move" name="blwm"/>
    </contour>
    <contour>
      <point x="162" y="0" type="move" name="nukt"/>
    </contour>
    <contour>
      <point x="433" y="690" type="move" name="reph"/>
    </contour>
    <contour>
      <point x="433" y="690" type="move" name="chandrabindu"/>
    </contour>
    <contour>
      <point x="262" y="0" type="move" name="haln"/>
    </contour>
  </outline>
</glyph>
<glyph name="bn_na" format="1">
  <advance width="513"/>
  <unicode hex="09A8"/>
  <outline>
    <contour>
      <point x="456" y="-19" type="qcurve"/>
      <point x="434" y="-24"/>
      <point x="365" y="-29"/>
      <point x="329" y="-29" type="qcurve"/>
      <point x="326" y="-2"/>
      <point x="324" y="67"/>
      <point x="324" y="113" type="qcurve" smooth="yes"/>
      <point x="324" y="114"/>
      <point x="324" y="117"/>
      <point x="324" y="118" type="qcurve"/>
      <point x="324" y="118" type="line"/>
      <point x="323" y="196"/>
      <point x="214" y="332"/>
      <point x="153" y="332" type="qcurve" smooth="yes"/>
      <point x="124" y="332"/>
      <point x="91" y="305"/>
      <point x="91" y="280" type="qcurve" smooth="yes"/>
      <point x="91" y="252"/>
      <point x="136" y="219"/>
      <point x="173" y="219" type="qcurve" smooth="yes"/>
      <point x="191" y="219"/>
      <point x="223" y="226"/>
      <point x="234" y="232" type="qcurve"/>
      <point x="234" y="202"/>
      <point x="224" y="131"/>
      <point x="216" y="105" type="qcurve"/>
      <point x="211" y="102"/>
      <point x="190" y="98"/>
      <point x="178" y="98" type="qcurve" smooth="yes"/>
      <point x="108" y="98"/>
      <point x="20" y="202"/>
      <point x="20" y="287" type="qcurve" smooth="yes"/>
      <point x="20" y="360"/>
      <point x="95" y="450"/>
      <point x="155" y="450" type="qcurve" smooth="yes"/>
      <point x="208" y="450"/>
      <point x="299" y="372"/>
      <point x="328" y="303" type="qcurve"/>
      <point x="331" y="369"/>
      <point x="344" y="483"/>
      <point x="355" y="538" type="qcurve"/>
      <point x="333" y="540"/>
      <point x="288" y="541"/>
      <point x="265" y="541" type="qcurve" smooth="yes"/>
      <point x="195" y="541"/>
      <point x="58" y="527"/>
      <point x="0" y="514" type="qcurve"/>
      <point x="-4" y="532"/>
      <point x="-8" y="562"/>
      <point x="-8" y="574" type="qcurve" smooth="yes"/>
      <point x="-8" y="586"/>
      <point x="-4" y="609"/>
      <point x="0" y="618" type="qcurve"/>
      <point x="57" y="633"/>
      <point x="199" y="649"/>
      <point x="268" y="649" type="qcurve" smooth="yes"/>
      <point x="332" y="649"/>
      <point x="458" y="633"/>
      <point x="513" y="618" type="qcurve"/>
      <point x="516" y="610"/>
      <point x="520" y="586"/>
      <point x="520" y="572" type="qcurve" smooth="yes"/>
      <point x="520" y="556"/>
      <point x="516" y="526"/>
      <point x="513" y="514" type="qcurve"/>
      <point x="502" y="517"/>
      <point x="474" y="523"/>
      <point x="453" y="527" type="qcurve"/>
      <point x="443" y="445"/>
      <point x="436" y="340"/>
      <point x="436" y="277" type="qcurve" smooth="yes"/>
      <point x="436" y="186"/>
      <point x="447" y="25"/>
    </contour>
    <contour>
      <point x="374" y="-3" type="move" name="blwm"/>
    </contour>
    <contour>
      <point x="192" y="-13" type="move" name="nukt"/>
    </contour>
    <contour>
      <point x="383" y="690" type="move" name="reph"/>
    </contour>
    <contour>
      <point x="383" y="690" type="move" name="chandrabindu"/>
    </contour>
    <contour>
      <point x="279" y="0" type="move" name="haln"/>
    </contour>
  </outline>
</glyph>
<glyph name="bn_pa" format="1">
  <advance width="603"/>
  <unicode hex="09AA"/>
  <outline>
    <contour>
      <point x="548" y="-19" type="qcurve"/>
      <point x="526" y="-24"/>
      <point x="457" y="-29"/>
      <point x="421" y="-29" type="qcurve"/>
      <point x="418" y="-1"/>
      <point x="416" y="69"/>
      <point x="416" y="120" type="qcurve" smooth="yes"/>
      <point x="416" y="183"/>
      <point x="419" y="296"/>
      <point x="422" y="347" type="qcurve"/>
      <point x="421" y="361"/>
      <point x="418" y="385"/>
      <point x="415" y="395" type="qcurve"/>
      <point x="380" y="343"/>
      <point x="268" y="225"/>
      <point x="202" y="170" type="qcurve"/>
      <point x="174" y="190"/>
      <point x="131" y="239"/>
      <point x="115" y="269" type="qcurve"/>
      <point x="118" y="271"/>
      <point x="125" y="276"/>
      <point x="132" y="281" type="qcurve"/>
      <point x="142" y="289"/>
      <point x="153" y="313"/>
      <point x="153" y="325" type="qcurve" smooth="yes"/>
      <point x="153" y="355"/>
      <point x="91" y="395"/>
      <point x="44" y="400" type="qcurve"/>
      <point x="31" y="425"/>
      <point x="13" y="476"/>
      <point x="8" y="502" type="qcurve"/>
      <point x="55" y="567"/>
      <point x="178" y="641"/>
      <point x="241" y="641" type="qcurve" smooth="yes"/>
      <point x="309" y="641"/>
      <point x="410" y="555"/>
      <point x="437" y="476" type="qcurve"/>
      <point x="437" y="477"/>
      <point x="442" y="505"/>
      <point x="444" y="514" type="qcurve" smooth="yes"/>
      <point x="450" y="544"/>
      <point x="474" y="579"/>
      <point x="495" y="588" type="qcurve" smooth="yes"/>
      <point x="512" y="596"/>
      <point x="574" y="613"/>
      <point x="602" y="618" type="qcurve"/>
      <point x="606" y="611"/>
      <point x="611" y="586"/>
      <point x="611" y="571" type="qcurve" smooth="yes"/>
      <point x="611" y="556"/>
      <point x="606" y="525"/>
      <point x="602" y="514" type="qcurve"/>
      <point x="592" y="511"/>
      <point x="574" y="506"/>
      <point x="567" y="503" type="qcurve" smooth="yes"/>
      <point x="553" y="498"/>
      <point x="539" y="475"/>
      <point x="537" y="455" type="qcurve" smooth="yes"/>
      <point x="532" y="413"/>
      <point x="528" y="332"/>
      <point x="528" y="282" type="qcurve" smooth="yes"/>
      <point x="528" y="187"/>
      <point x="539" y="26"/>
    </contour>
    <contour>
      <point x="145" y="468" type="qcurve"/>
      <point x="179" y="450"/>
      <point x="217" y="403"/>
      <point x="217" y="378" type="qcurve" smooth="yes"/>
      <point x="217" y="369"/>
      <point x="212" y="350"/>
      <point x="207" y="342" type="qcurve"/>
      <point x="253" y="381"/>
      <point x="328" y="455"/>
      <point x="358" y="492" type="qcurve"/>
      <point x="337" y="510"/>
      <point x="285" y="530"/>
      <point x="259" y="530" type="qcurve" smooth="yes"/>
      <point x="227" y="530"/>
      <point x="173" y="500"/>
    </contour>
    <contour>
      <point x="463" y="-6" type="move" name="blwm"/>
    </contour>
    <contour>
      <point x="238" y="0" type="move" name="nukt"/>
    </contour>
    <contour>
      <point x="499" y="690" type="move" name="reph"/>
    </contour>
    <contour>
      <point x="499" y="690" type="move" name="chandrabindu"/>
    </contour>
    <contour>
      <point x="339" y="0" type="move" name="haln"/>
    </contour>
  </outline>
</glyph>
